<?xml version="1.0" encoding="UTF-8" standalone="no"?>
<svg
   version="1.1"
   id="svg2"
   xml:space="preserve"
   width="111.20174"
   height="99.837173"
   viewBox="0 0 111.20174 99.837173"
   sodipodi:docname="beagle.svg"
   inkscape:version="1.1 (c68e22c387, 2021-05-23)"
   xmlns:inkscape="http://www.inkscape.org/namespaces/inkscape"
   xmlns:sodipodi="http://sodipodi.sourceforge.net/DTD/sodipodi-0.dtd"
   xmlns="http://www.w3.org/2000/svg"
   xmlns:svg="http://www.w3.org/2000/svg"
   xmlns:rdf="http://www.w3.org/1999/02/22-rdf-syntax-ns#"
   xmlns:cc="http://creativecommons.org/ns#"
   xmlns:dc="http://purl.org/dc/elements/1.1/"><metadata
     id="metadata8"><rdf:RDF><cc:Work
         rdf:about=""><dc:format>image/svg+xml</dc:format><dc:type
           rdf:resource="http://purl.org/dc/dcmitype/StillImage" /></cc:Work></rdf:RDF></metadata><defs
     id="defs6" /><sodipodi:namedview
     pagecolor="#ffffff"
     bordercolor="#666666"
     borderopacity="1"
     objecttolerance="10"
     gridtolerance="10"
     guidetolerance="10"
     inkscape:pageopacity="0"
     inkscape:pageshadow="2"
     inkscape:window-width="1920"
     inkscape:window-height="1001"
     id="namedview4"
     inkscape:pagecheckerboard="0"
     showgrid="false"
     inkscape:zoom="0.71376665"
     inkscape:cx="290.71126"
     inkscape:cy="-6.3045815"
     inkscape:window-x="-9"
     inkscape:window-y="-9"
     inkscape:window-maximized="1"
     inkscape:current-layer="g12" /><g
     id="g10"
     inkscape:groupmode="layer"
     inkscape:label="ink_ext_XXXXXX"
     transform="matrix(1.3333333,0,0,-1.3333333,-20.594729,99.83717)"><g
       id="g12"
       transform="scale(0.1)"><path
         d="m 498.836,51.1914 c 3.902,0 7.797,0 11.266,2.3594 2.496,1.6992 4.336,4.2305 4.336,7.0586 0,1.4492 -0.477,2.9414 -1.684,4.0703 -2.004,1.8594 -5.086,1.8711 -8.25,1.8711 h -6.75 L 494.77,51.1914 Z m -9.402,-27.4726 h 7.636 c 4.422,0 13.285,-0.2383 14.864,7.8828 l 0.179,1.8593 c 0,2.418 -0.945,4.5782 -2.508,6.2696 -3.316,3.4218 -8.273,3.4218 -13.23,3.4218 h -3.164 z m 22.254,23.4023 c 6.886,-1.7188 12.656,-6.0117 12.656,-13.0313 0,-2.8398 -1,-9.7109 -8.508,-14.1796 -6.844,-4.2305 -15.207,-4.2305 -23.66,-4.2305 h -16.492 l 11.453,58.9101 h 15.765 c 7.469,0 14.942,0 19.782,-3.9804 2.921,-2.4375 4.082,-5.6406 4.082,-8.7188 0,-8.8593 -8.262,-13.1992 -15.078,-14.7695"
         style="fill:#2f3032;fill-opacity:1;fill-rule:nonzero;stroke:none"
         id="path248" /><path
         d="m 564.137,48.8086 c 0,1.9023 -1.289,4.1602 -5.617,4.1602 -3.18,0 -10.637,-1.2891 -14.071,-11.7891 l 1.055,0.0195 c 5.976,0 18.633,0.3711 18.633,7.6094 z m 11.633,1.0117 c 0,-5.7617 -5.09,-11.6094 -14.321,-14.3906 -5.695,-1.7109 -12.148,-1.8711 -17.429,-1.8711 l -1.102,0.0117 -0.063,-1.6992 c 0,-8.8516 5.868,-10.0195 10.266,-10.0195 5.199,0 10.961,1.6289 16.609,3.5 l -1.695,-8.6993 c -5.558,-1.8632 -11.273,-2.4414 -15.824,-2.4414 -16.231,0 -20.938,8.0586 -20.938,17.0079 0,1.9804 0.235,4 0.622,5.9921 3.019,15.5313 14.691,23.3985 28.113,23.3985 10.308,0 15.762,-4.9571 15.762,-10.7891"
         style="fill:#2f3032;fill-opacity:1;fill-rule:nonzero;stroke:none"
         id="path250" /><path
         d="m 605.84,35.4219 c -4.348,-0.043 -8.61,-0.3008 -12.223,-2.2696 -3.984,-2.3906 -4.769,-5.3125 -4.769,-7.1132 0,-2.5469 1.742,-4.1875 5.246,-4.1875 3.211,0 6.562,1.4375 9.804,3.5976 z m 14.004,14.6601 c 0,-2.3515 -0.485,-4.9023 -0.985,-7.4218 l -5.242,-26.9805 h -11.621 l 0.832,4.2695 c -4.543,-3.3398 -9.492,-5.7383 -14.765,-5.7383 -6.75,0 -10.985,3.9805 -10.985,9.918 0,3.4922 1.324,9.5 8.785,13.4922 6.129,3.2109 13.547,3.8281 21.164,3.9492 l 0.551,2.7891 c 0.242,1.2695 0.469,2.5 0.469,3.6211 0,2.6406 -1.27,4.5898 -6.598,4.5898 -5.039,0 -10.422,-1.789 -15.566,-3.9805 l 1.648,8.4493 c 5.508,2.4414 11.258,3.1718 16.703,3.1718 12.735,0 15.61,-4.4687 15.61,-10.1289"
         style="fill:#2f3032;fill-opacity:1;fill-rule:nonzero;stroke:none"
         id="path252" /><path
         d="m 645.07,34.4492 c 6.84,0 7.95,5.3321 8.664,9.0196 0.258,1.3398 0.512,2.7421 0.512,4.0312 0,4.0508 -2.855,5.0703 -5.652,5.0703 -6.828,0 -7.949,-5.3789 -8.668,-9.1015 -0.262,-1.3282 -0.516,-2.6993 -0.516,-3.9688 0,-3.0312 1.516,-5.0508 5.66,-5.0508 z m 5.012,25.7617 c 3.273,0 6.481,-0.5117 9.211,-1.7812 4.246,3.3711 9.133,5.6016 14.043,5.6016 l -1.488,-7.6407 c -2.657,0 -5.434,-0.4297 -7.957,-1.4922 1.867,-2.3086 2.89,-5.25 2.89,-8.4375 0,-9.4101 -8.867,-19.7304 -23.207,-19.7304 -1.304,0 -2.605,0.0898 -3.867,0.2812 l -0.332,-1.1797 c 0,-1.1914 1.098,-2.3125 4.922,-2.9218 l 10.933,-2.2696 c 4.579,-0.8086 9.247,-2.5195 9.247,-7.5586 C 664.477,7.85156 661.105,0 639.684,0 h -1.246 c -4.504,0 -12.418,0.0585938 -18.856,1.53906 l 1.703,8.78124 c 7.719,-1.71092 15.738,-2.69139 24.184,-2.69139 3.172,0 6.937,0.17187 7.101,2.69139 -0.007,1.8516 -0.992,1.8789 -2.48,2.2695 l -10.949,2.1993 c -4.606,0.9218 -9.661,2.3007 -9.661,7.5703 0,2.9101 1.559,5.332 3.399,7.0429 -3.816,2.379 -6.016,6.3985 -6.016,11.0586 0,8.168 7.395,19.75 23.219,19.75"
         style="fill:#2f3032;fill-opacity:1;fill-rule:nonzero;stroke:none"
         id="path254" /><path
         d="M 671.184,15.6797 683.348,78.25 h 11.539 l -12.16,-62.5703 h -11.543"
         style="fill:#2f3032;fill-opacity:1;fill-rule:nonzero;stroke:none"
         id="path256" /><path
         d="m 728.668,48.8086 c 0,1.9023 -1.289,4.1602 -5.617,4.1602 -3.18,0 -10.633,-1.2891 -14.067,-11.7891 l 1.051,0.0195 c 5.977,0 18.633,0.3711 18.633,7.6094 z m 11.633,1.0117 c 0,-5.7617 -5.09,-11.6094 -14.321,-14.3906 -5.695,-1.7109 -12.148,-1.8711 -17.429,-1.8711 l -1.102,0.0117 -0.062,-1.6992 c 0,-8.8516 5.867,-10.0195 10.265,-10.0195 5.2,0 10.961,1.6289 16.61,3.5 l -1.692,-8.6993 c -5.562,-1.8632 -11.277,-2.4414 -15.828,-2.4414 -16.23,0 -20.937,8.0586 -20.937,17.0079 0,1.9804 0.234,4 0.621,5.9921 3.019,15.5313 14.691,23.3985 28.113,23.3985 10.313,0 15.762,-4.9571 15.762,-10.7891"
         style="fill:#2f3032;fill-opacity:1;fill-rule:nonzero;stroke:none"
         id="path258" /><path
         d="m 949.367,288.75 c -56.715,28.832 -79.949,60.582 -88.465,92.859 H 709.543 l -9.629,-42.98 c 31.422,-14.18 77.859,-41.68 105.875,-63.859 30.492,-24.141 80.047,-22.872 92.754,-33.879 12.707,-11.02 9.316,-40.661 7.625,-47.731 -1.695,-7.058 -5.93,0.289 -31.344,-6.488 -12.605,-3.363 -12.808,-10.113 -9.812,-16.063 3.609,-7.168 11.41,-11.25 19.437,-11.25 h 41.446 c 13.57,0 24.984,10.231 26.574,23.711 11.097,94.02 -3.102,105.68 -3.102,105.68"
         style="fill:#9a8a7f;fill-opacity:1;fill-rule:nonzero;stroke:none"
         id="path260" /><path
         d="m 445.973,351.941 c 13.929,25.5 21.976,54.09 21.695,83.149 -0.32,32.691 -11.117,65.211 -53.051,64.582 -83.859,-1.274 -64.027,-107.66 -58.695,-152.942 5.332,-45.281 17.199,-158.941 -5.887,-153.57 -20.836,4.852 -51.176,-8 -39.652,-27.262 3.379,-5.648 9.578,-6.539 9.578,-6.539 h 47.863 c 9.067,0 17.223,5.422 20.699,13.789 8.34,20.063 23.598,55.864 29.907,64.832 7.828,11.129 2.863,68.77 27.543,113.961"
         style="fill:#9a8a7f;fill-opacity:1;fill-rule:nonzero;stroke:none"
         id="path262" /><path
         d="m 796.473,489.711 c 0,0 72.847,73.269 72.847,187.359 0,59.731 9.746,74.672 20.403,71.25 9.703,-3.121 29.574,-83.789 17.488,-134.769 -11.203,-47.25 -34.344,-101.621 -74.106,-144.27 l -36.632,20.43"
         style="fill:#d5c5bb;fill-opacity:1;fill-rule:nonzero;stroke:none"
         id="path264" /><path
         d="m 868.621,659.281 c -6.945,-103.832 -72.148,-169.57 -72.148,-169.57 l 36.632,-20.43 c 39.762,42.649 62.903,97.02 74.106,144.27 2.551,10.758 3.613,22.859 3.715,35.258 -15.238,-2.161 -29.317,2.531 -42.305,10.472"
         style="fill:#251c1f;fill-opacity:1;fill-rule:nonzero;stroke:none"
         id="path266" /><path
         d="m 373.781,700.531 c 0,0 48.282,-94.019 85.129,-139.761 36.848,-45.75 167.723,-69.7 205.84,-71.059 13.387,-0.481 33.816,2.359 56.023,5.211 41.028,5.258 88.098,10.508 107.887,-5.211 30.492,-24.242 58.445,-50.469 59.719,-93.262 1.269,-42.789 17.789,-85.988 92.754,-124.109 0,0 14.199,-11.649 3.101,-105.68 -1.589,-13.48 -13.004,-23.711 -26.574,-23.711 h -41.445 c -7.973,0 -15.727,4.02 -19.367,11.11 -3.071,5.992 -2.965,12.82 9.742,16.211 12.578,3.351 19.969,3.242 24.43,3.128 4.55,-0.109 6.054,-0.218 6.914,3.352 1.691,7.07 5.082,36.719 -7.625,47.73 -12.707,11.012 -62.262,9.739 -92.754,33.879 C 807.059,282.5 801.977,313 762.586,325.699 723.199,338.41 660.938,306.641 602.488,296.48 544.043,286.309 500.844,286.309 458.91,304.102 c 0,0 -110.543,16.097 -141.039,93.179 -15.305,38.699 1.274,98.68 -24.137,177.461 -25.414,78.778 58.446,146.117 80.047,125.789"
         style="fill:#dcd0c9;fill-opacity:1;fill-rule:nonzero;stroke:none"
         id="path268" /><path
         d="m 888.379,396.449 c -1.274,42.793 -29.227,69.02 -59.719,93.262 -19.789,15.719 -66.859,10.469 -107.887,5.211 -22.207,-2.852 -42.636,-5.692 -56.023,-5.211 -38.117,1.359 -168.992,25.309 -205.84,71.059 -5.621,6.98 -56.832,112.921 -69.394,129.402 -12.559,16.476 -32.938,33.527 -67.028,40.707 -34.093,7.172 -89.414,-8.078 -89.715,-19.438 -0.296,-11.371 6.282,-16.152 -4.187,-21.832 -10.465,-5.679 -73.598,-18.269 -72.402,-33.218 1.195,-14.961 10.648,-64.571 60.441,-58.289 0,0 10.316,-0.45 13.906,-6.731 3.59,-6.281 35.438,-3.141 50.688,4.93 0,0 24.863,-79.16 26.656,-110.571 0.945,-16.511 41.91,4.352 78.324,33.219 0.551,-18.898 -15.519,-31.867 -29.508,-47.59 -48.961,-55.05 24.375,-51.039 70.868,-47.039 14.023,1.211 25.605,2.422 30.652,2.012 22.894,-1.863 38.805,-19.703 49.109,-38.641 31.426,-57.761 75.649,-79.441 141.223,-62.859 39.121,9.898 82.605,26.449 123.652,19.367 25.27,-4.367 52.996,-25.429 78.489,-22.308 17.933,2.199 35.984,4.711 53.929,0.871 3.992,-0.864 7.754,-1.453 11.328,-1.821 -20.558,24.551 -26.808,50.098 -27.562,75.508"
         style="fill:#c55e3b;fill-opacity:1;fill-rule:nonzero;stroke:none"
         id="path270" /><path
         d="m 306.926,494.59 c -4.852,35.199 -25.625,101.461 -25.707,101.711 0.082,-0.25 20.867,-66.481 25.742,-101.699 -0.012,-0.012 -0.023,-0.012 -0.035,-0.012 m -33.836,98.332 c 0.019,0.008 0.039,0.008 0.058,0.019 -0.019,-0.011 -0.039,-0.011 -0.058,-0.019 m 0.113,0.039 c 0.035,0.008 0.067,0.019 0.098,0.031 -0.031,-0.012 -0.063,-0.023 -0.098,-0.031 m 0.121,0.039 c 0.039,0.012 0.082,0.031 0.125,0.039 -0.043,-0.008 -0.082,-0.027 -0.125,-0.039 m 0.137,0.039 c 2.758,0.941 5.309,1.992 7.527,3.141 -2.218,-1.149 -4.769,-2.2 -7.527,-3.141 m 7.531,3.152 c 0.039,0.02 0.074,0.028 0.113,0.047 -0.039,-0.019 -0.074,-0.027 -0.113,-0.047 m 0.113,0.059 c 0.04,0.02 0.075,0.031 0.114,0.051 v 0 0 c -0.039,-0.02 -0.074,-0.039 -0.114,-0.051"
         style="fill:#e2ac97;fill-opacity:1;fill-rule:nonzero;stroke:none"
         id="path272" /><path
         d="m 306.961,494.602 c -4.875,35.218 -25.66,101.449 -25.742,101.699 v 0 0 c -0.039,-0.02 -0.074,-0.031 -0.114,-0.051 0,-0.012 0,-0.012 0,-0.012 -0.039,-0.019 -0.074,-0.027 -0.113,-0.047 l -0.004,-0.011 c -2.218,-1.149 -4.769,-2.2 -7.527,-3.141 -0.004,0 -0.008,0 -0.012,0 -0.043,-0.008 -0.086,-0.027 -0.125,-0.039 -0.008,0 -0.015,-0.008 -0.023,-0.008 -0.031,-0.012 -0.063,-0.023 -0.098,-0.031 -0.015,-0.012 -0.035,-0.012 -0.055,-0.02 -0.019,-0.011 -0.039,-0.011 -0.058,-0.019 -7.914,-2.633 -17.445,-4.32 -25.512,-4.762 11.945,11.11 21.383,25 26.156,39.262 3.586,10.707 6.211,21.367 8.762,32.367 1.258,6.133 2.516,12.262 3.774,18.402 l 1.632,1.891 c 7.282,7.719 13.711,13.09 20.336,16.707 1.84,-2.75 3.969,-5.449 6.516,-8.059 14.375,-14.769 39.527,-27.46 50.969,-43.3 15.07,-20.86 20.738,-53.371 15.945,-78.18 -4.477,-23.168 -25.215,-42.84 -41.516,-58.078 -10.105,-9.461 -21.422,-13.57 -33.191,-14.57"
         style="fill:#b3462c;fill-opacity:1;fill-rule:nonzero;stroke:none"
         id="path274" /><path
         d="m 413.051,558.039 c 8.023,-30.449 18.988,-57.73 47.785,-74.437 13.41,-7.782 24.871,-15.301 36.387,-25.563 17.84,-15.891 22.148,-42.238 30.113,-63.359 20.07,-53.211 114.019,-45.75 157.644,-30.41 63.731,22.41 100.926,84.652 162.028,110.011 -5.871,5.309 -12.047,10.418 -18.348,15.43 -30.496,24.238 -125.793,-1.371 -163.91,0 -38.117,1.359 -166.508,28.828 -203.352,74.57 -18.445,22.899 -26.039,48.821 -51.195,89.668 1.399,-30.418 -4.789,-66.949 2.848,-95.91"
         style="fill:#171214;fill-opacity:1;fill-rule:nonzero;stroke:none"
         id="path276" /><path
         d="m 472.477,335.531 c 13.929,25.5 21.976,54.09 21.695,83.149 -0.32,32.691 -11.117,65.211 -53.047,64.582 -83.863,-1.27 -64.031,-107.66 -58.699,-152.93 5.332,-45.293 17.203,-158.953 -5.887,-153.582 -20.832,4.852 -51.176,-8 -39.652,-27.25 3.383,-5.648 9.578,-6.551 9.578,-6.551 h 47.867 c 9.066,0 17.219,5.422 20.699,13.793 8.336,20.059 23.594,55.86 29.903,64.828 7.828,11.129 2.863,68.77 27.543,113.961"
         style="fill:#dcd0c9;fill-opacity:1;fill-rule:nonzero;stroke:none"
         id="path278" /><path
         d="m 385.348,303.781 c 18.004,-17.922 44.148,-19.562 71.058,-14.07 3.219,15.25 8.074,31.18 16.071,45.82 13.929,25.5 21.976,54.09 21.695,83.16 -0.32,32.68 -11.117,65.2 -53.047,64.571 -83.863,-1.27 -64.031,-107.66 -58.699,-152.93 0.859,-7.32 1.894,-16.453 2.922,-26.551"
         style="fill:#c55e3b;fill-opacity:1;fill-rule:nonzero;stroke:none"
         id="path280" /><path
         d="m 256.766,680.66 c 0,0 -15.746,19.899 -22.317,9.949 -2.562,-3.879 -2.34,-13.48 1.356,-15.187 12.047,-5.551 20.961,5.238 20.961,5.238"
         style="fill:#242823;fill-opacity:1;fill-rule:nonzero;stroke:none"
         id="path282" /><path
         d="m 235.711,689.969 c -0.551,-0.828 -0.973,-1.887 -1.262,-3.02 -1.629,-5.23 0.895,-9.937 2.446,-10.66 2.82,-1.301 5.531,-1.48 8.011,-1.059 1.996,2.352 3.492,5.079 3.567,7.422 0.078,2.309 -1.071,5.02 -2.746,7.489 -3.645,1.519 -7.723,3.3 -10.016,-0.172"
         style="fill:#3f1e24;fill-opacity:1;fill-rule:nonzero;stroke:none"
         id="path284" /><path
         d="m 242.559,686.25 c -0.055,-1.16 -1.043,-2.059 -2.207,-2.008 -1.164,0.059 -2.063,1.047 -2.008,2.207 0.054,1.16 1.043,2.063 2.203,2.012 1.164,-0.063 2.066,-1.039 2.012,-2.211"
         style="fill:#9f6c74;fill-opacity:1;fill-rule:nonzero;stroke:none"
         id="path286" /><path
         d="m 154.84,658.902 c -0.707,-4.863 -0.477,-9.621 1.121,-13.98 0.941,-2.57 3.887,-3.992 6.383,-2.863 18.742,8.511 21.363,22.531 16.808,31.23 -4.492,3.492 -23.511,-8.918 -24.312,-14.387"
         style="fill:#3f1e24;fill-opacity:1;fill-rule:nonzero;stroke:none"
         id="path288" /><path
         d="m 218.004,597.961 c 2.5,-0.309 7.934,-1.34 11.172,-4.77 0.515,-0.55 7.949,-1.429 10.172,-0.261 5.586,2.941 7.582,8.422 5.406,12.679 -3.012,5.903 -18.906,-2.64 -26.75,-7.648"
         style="fill:#3f1e24;fill-opacity:1;fill-rule:nonzero;stroke:none"
         id="path290" /><path
         d="m 330.637,702.559 c -14.907,8.261 -33.324,-3.098 -33.715,-20.129 -0.332,-14.52 -3.246,-38.149 -16.715,-58.621 -21.215,-32.227 -21.945,-98.438 16.75,-88.86 38.695,9.59 90.965,47.922 81.383,96.699 -5.82,29.622 -27.211,59.563 -47.703,70.911"
         style="fill:#c55e3b;fill-opacity:1;fill-rule:nonzero;stroke:none"
         id="path292" /></g></g></svg>
