<?xml version="1.0" encoding="UTF-8" standalone="no"?>
<svg
   version="1.1"
   id="svg2"
   xml:space="preserve"
   width="152.39148"
   height="115.15379"
   viewBox="0 0 152.39148 115.15379"
   sodipodi:docname="bernardyn.svg"
   inkscape:version="1.1 (c68e22c387, 2021-05-23)"
   xmlns:inkscape="http://www.inkscape.org/namespaces/inkscape"
   xmlns:sodipodi="http://sodipodi.sourceforge.net/DTD/sodipodi-0.dtd"
   xmlns="http://www.w3.org/2000/svg"
   xmlns:svg="http://www.w3.org/2000/svg"
   xmlns:rdf="http://www.w3.org/1999/02/22-rdf-syntax-ns#"
   xmlns:cc="http://creativecommons.org/ns#"
   xmlns:dc="http://purl.org/dc/elements/1.1/"><metadata
     id="metadata8"><rdf:RDF><cc:Work
         rdf:about=""><dc:format>image/svg+xml</dc:format><dc:type
           rdf:resource="http://purl.org/dc/dcmitype/StillImage" /></cc:Work></rdf:RDF></metadata><defs
     id="defs6" /><sodipodi:namedview
     pagecolor="#ffffff"
     bordercolor="#666666"
     borderopacity="1"
     objecttolerance="10"
     gridtolerance="10"
     guidetolerance="10"
     inkscape:pageopacity="0"
     inkscape:pageshadow="2"
     inkscape:window-width="1920"
     inkscape:window-height="1001"
     id="namedview4"
     inkscape:pagecheckerboard="0"
     showgrid="false"
     inkscape:zoom="1.4275333"
     inkscape:cx="420.65569"
     inkscape:cy="49.385889"
     inkscape:window-x="-9"
     inkscape:window-y="-9"
     inkscape:window-maximized="1"
     inkscape:current-layer="g12" /><g
     id="g10"
     inkscape:groupmode="layer"
     inkscape:label="ink_ext_XXXXXX"
     transform="matrix(1.3333333,0,0,-1.3333333,-3.9874819e-5,277.20719)"><g
       id="g12"
       transform="scale(0.1)"><path
         d="m 960.59,1657.93 c 6.586,18.11 11.441,35.65 14.848,52.59 H 749.07 l 4.36,-115.38 c 19.961,-47.73 43.472,-71.69 76.394,-94.76 32.66,-22.89 61.957,-66.27 70.891,-99.56 5.047,-18.81 8.945,-89.76 -0.231,-95.27 -9.179,-5.5 -46.8,-1.19 -46.8,-30.56 0,-29.36 49.55,-23.58 87.175,-23.58 37.625,0 33.493,164.26 16.977,243.47 -16.52,79.21 2.754,163.05 2.754,163.05"
         style="fill:#b2ab9a;fill-opacity:1;fill-rule:nonzero;stroke:none"
         id="path682" /><path
         d="m 381.602,1704.72 c -15.442,26.32 -48.676,38.04 -76.114,24.69 -17.683,-8.6 -33.343,-27.71 -33.992,-68.21 -1.512,-94.52 55.383,-187.2 44.371,-267.03 -11.012,-79.84 -7.34,-82.59 -22.941,-91.77 -13.371,-7.86 -54.555,-24.16 -41.774,-45.7 4.34,-7.32 12.766,-11.23 21.278,-11.36 18.32,-0.27 55.871,-0.7 61.558,0.16 7.575,1.15 22.254,32.12 31.434,80.76 0,0 17.433,33.03 15.598,70.66 0,0 21.105,19.88 11.929,68.21 0,0 42.211,56.59 21.106,142.85 -12.516,51.14 -21.801,78.58 -32.453,96.74"
         style="fill:#b2ab9a;fill-opacity:1;fill-rule:nonzero;stroke:none"
         id="path684" /><path
         d="m 988.117,1622.43 c 38.543,105.99 22.023,194.08 -42.668,238.13 -64.695,44.05 -249.601,21.56 -297.316,8.78 -47.719,-12.77 -168.852,27.46 -211.852,73.35 -1.789,1.91 -42.258,41.35 -51.89,47.43 -47.121,29.79 -124.973,75.94 -169.551,85.85 -67,14.89 -134.0002,-27.92 -133.3791,-47.77 0.6172,-19.86 1.8594,-29.78 -5.5859,-29.78 -7.4453,0 -54.5937,-10.55 -68.86328,-21.1 -14.26563,-10.54 -11.78516,-124.07 55.83598,-125.93 0,0 21.7109,-28.54 58.3163,-31.02 7.227,-0.49 16.106,-3.54 25.852,-8.28 0.23,-48.43 9.531,-61.65 16.597,-90.55 10.098,-41.3 31.66,-57.82 31.66,-57.82 8.258,-90.84 66.071,-96.35 66.071,-96.35 19.269,-88.09 73,-78.46 73,-78.46 0,0 60.515,1.38 92.176,-19.27 31.66,-20.65 85.339,27.53 85.339,27.53 37.164,-11.01 90.848,24.78 90.848,24.78 39.918,-20.65 87.637,31.66 87.637,31.66 21.691,-2.72 42.742,12.28 56.336,25.01 7.355,6.89 19.172,4.84 24.105,-3.95 24.684,-43.99 75.11,-64.32 91.156,-77.96 18.356,-15.6 64.938,-101.14 73.872,-134.43 5.046,-18.81 1.375,-86.72 -7.801,-92.23 -9.176,-5.5 -46.797,-1.19 -46.797,-30.56 0,-29.36 49.551,-23.58 87.172,-23.58 37.623,0 33.493,164.26 16.976,243.47 -16.515,79.21 2.754,163.05 2.754,163.05"
         style="fill:#ddd2c1;fill-opacity:1;fill-rule:nonzero;stroke:none"
         id="path686" /><path
         d="m 952.332,1850.92 c 0,0 74.328,-55.06 83.958,-123.88 9.64,-68.82 9.64,-184.45 20.65,-211.97 11.01,-27.53 100.48,-141.78 83.97,-169.31 -16.52,-27.53 -57.82,42.67 -57.82,42.67 0,0 -39.91,-6.88 -46.8,22.02 -6.88,28.91 -44.044,24.78 -61.938,115.63 -17.891,90.84 12.39,220.23 -1.375,254.64 -13.762,34.41 -20.645,70.2 -20.645,70.2"
         style="fill:#ddd2c1;fill-opacity:1;fill-rule:nonzero;stroke:none"
         id="path688" /><path
         d="m 1050.1,1553.45 c -4.84,47.61 -6.74,123.13 -13.81,173.59 -9.63,68.82 -83.958,123.88 -83.958,123.88 0,0 6.883,-35.79 20.645,-70.2 13.765,-34.41 -16.516,-163.8 1.375,-254.64 11.257,-57.14 30.128,-76.7 44.298,-90.55 -1.06,41.88 8.7,85.01 31.45,117.92"
         style="fill:#9d4331;fill-opacity:1;fill-rule:nonzero;stroke:none"
         id="path690" /><path
         d="m 882.32,1542.05 c 3.114,-2.51 6.098,-5.14 9.137,-7.71 18.074,-8.79 35.086,-19.34 48.828,-33.29 16.688,-16.94 30.488,-47.84 49.203,-64.9 -1.261,8.3 -2.64,16.12 -4.125,23.23 -16.515,79.21 2.754,163.05 2.754,163.05 38.543,105.99 22.023,194.08 -42.668,238.13 -64.695,44.05 -249.601,21.56 -297.316,8.78 -30.547,-8.18 -91.117,5.42 -142.074,28.26 -0.188,-3.67 -0.434,-7.41 -0.735,-11.5 -1.996,-27.07 11.301,-46.76 22.528,-70.06 11.929,-24.77 6.304,-49.71 -9.348,-70.77 -29.211,-39.3 -71.258,-47.63 -70.418,-107.24 1.105,-78.75 74.301,-90.74 128.672,-51.4 33.183,24.01 57.004,26.28 97.441,22.78 30.375,-2.62 48.344,1.19 73.739,17.81 11.48,7.52 22.207,7.71 35.085,6.22 29.418,-3.39 36.457,-36.39 50.219,-56.79 13.68,-20.27 31.649,-20.56 49.078,-34.6"
         style="fill:#a7523c;fill-opacity:1;fill-rule:nonzero;stroke:none"
         id="path692" /><path
         d="m 531.09,1808.08 c -0.043,0.02 -0.082,0.04 -0.121,0.06 -0.883,2.63 -1.852,5.27 -3.117,7.9 -10.461,21.7 -22.715,40.28 -22.727,64.61 0.012,-24.33 12.266,-42.91 22.727,-64.61 1.277,-2.65 2.351,-5.31 3.238,-7.96"
         style="fill:#e4d7c5;fill-opacity:1;fill-rule:nonzero;stroke:none"
         id="path694" /><path
         d="m 648.133,1869.34 c 2.234,0.6 4.777,1.22 7.594,1.86 -2.821,-0.64 -5.356,-1.26 -7.594,-1.86"
         style="fill:#e0beb3;fill-opacity:1;fill-rule:nonzero;stroke:none"
         id="path696" /><path
         d="m 586.023,1797.25 c -19.621,0 -38.023,2.44 -54.933,10.83 -0.887,2.65 -1.961,5.31 -3.238,7.96 -10.461,21.7 -22.715,40.28 -22.727,64.61 -0.004,1.79 0.063,3.6 0.199,5.45 0.301,4.09 0.547,7.83 0.735,11.5 40.808,-18.29 87.769,-30.65 120.55,-30.65 8.153,0 15.438,0.76 21.524,2.39 v 0 c 2.238,0.6 4.773,1.22 7.594,1.86 30.55,6.88 93.5,15.34 154.933,15.34 41.867,0 83.039,-3.93 112.738,-14.97 -11.125,-8.8 -21.554,-18.82 -32.343,-28.97 -29.641,-27.89 -56.262,-35.73 -85.578,-35.73 -21.231,0 -43.879,4.11 -70.098,7.72 -1.945,0.27 -3.957,0.39 -6.012,0.39 -12.32,0 -26.215,-4.33 -37.363,-7.12 -29.375,-7.36 -59.484,-8.54 -89.57,-10.14 -5.559,-0.29 -11.032,-0.47 -16.411,-0.47"
         style="fill:#ba6348;fill-opacity:1;fill-rule:nonzero;stroke:none"
         id="path698" /><path
         d="m 410.121,1675.13 c -15.437,26.32 -48.672,38.04 -76.109,24.69 -17.684,-8.61 -33.344,-27.71 -33.992,-68.22 -1.512,-94.51 55.382,-187.19 44.371,-267.03 -11.012,-79.83 -7.34,-82.59 -22.942,-91.76 -13.371,-7.87 -54.551,-24.17 -41.773,-45.71 4.34,-7.32 12.765,-11.23 21.277,-11.35 18.32,-0.27 55.871,-0.7 61.563,0.16 7.57,1.15 22.25,32.12 31.429,80.76 0,0 17.434,33.03 15.598,70.65 0,0 21.105,19.88 11.93,68.21 0,0 42.211,56.59 21.105,142.85 -12.515,51.15 -21.801,78.58 -32.457,96.75"
         style="fill:#ddd2c1;fill-opacity:1;fill-rule:nonzero;stroke:none"
         id="path700" /><path
         d="m 214.84,2075.97 c -21.981,4.88 -43.914,3.49 -63.504,-1.2 -13.957,-13.02 -28.633,-24.6 -43.609,-37.49 -11.1567,-9.6 -20.477,-5.54 -20.477,-32.31 0,-13.22 0.9844,-25.49 10.0898,-33.13 31.8122,-26.69 81.9302,-40.08 101.9612,-76.98 15.086,-27.79 31.222,-67.46 65.187,-76.75 54.84,-15 88.473,60.54 100.727,101.86 6.598,22.27 12.633,47.74 14.41,73.15 -47.461,29.79 -121.668,73.26 -164.785,82.85"
         style="fill:#a7523c;fill-opacity:1;fill-rule:nonzero;stroke:none"
         id="path702" /><path
         d="m 205.969,1882.18 c -1.352,2.6 -2.68,5.16 -3.992,7.66 24.589,8.49 82.644,75.7 96.246,103.23 8.707,-24.45 -14.246,-51.1 -31.332,-69.24 -14.161,-15.04 -34.641,-25.32 -52.071,-36.03 -3.019,-1.77 -5.945,-3.68 -8.851,-5.62 m -30.254,47.06 c -4.926,5.91 -10.11,11.58 -15.488,17.08 0.086,11.41 0.769,22.85 -0.719,32.53 -3.367,21.87 -14.395,51.61 -1.945,67.63 3.316,-11.54 9.066,-27.35 9.23,-43.65 0,-0.01 0,-0.02 0,-0.03 0,-0.04 0,-0.09 0.004,-0.13 0,-0.02 0,-0.03 0,-0.05 0,-0.04 0,-0.08 0,-0.12 0,-0.02 0,-0.03 0,-0.05 0,-0.04 0,-0.08 0,-0.12 0,-0.02 0,-0.03 0,-0.05 0,-0.05 0,-0.11 0,-0.17 v 0 c 0,-17.34 2.973,-47.81 8.918,-72.87 m 20.488,130.84 c -1.281,0.25 -2.543,0.49 -3.777,0.71 0.387,0.23 0.765,0.47 1.137,0.72 0.875,-0.48 1.757,-0.96 2.64,-1.43"
         style="fill:#8d3b2c;fill-opacity:1;fill-rule:nonzero;stroke:none"
         id="path704" /><path
         d="m 73.4492,1853.34 c -10.8047,12.23 -19.0703,26.69 -28.9765,39.63 -19.211,25.11 -30.2227,53.45 -38.35161,83.47 -13.22656,-14.59 -9.42968,-123.23 56.72661,-125.05 0,0 15.1992,-19.88 41.5393,-27.88 -10.0901,10.38 -21.9847,19.69 -30.9378,29.83"
         style="fill:#445161;fill-opacity:1;fill-rule:nonzero;stroke:none"
         id="path706" /><path
         d="m 2.88672,1917.19 c 12.93748,5.79 27.44918,17.46 35.38668,32.95 6.9961,13.67 4.6719,28.03 -0.2382,39.99 -12.5743,-3.71 -24.8633,-8.25 -31.02348,-12.81 -6.648439,-4.91 -9.65235,-32.21 -4.125,-60.13"
         style="fill:#0a0d0e;fill-opacity:1;fill-rule:nonzero;stroke:none"
         id="path708" /><path
         d="m 46.5625,1848.28 c 0,0 60.0235,13.5 77.2385,0 17.215,-13.49 -5.117,-14.88 -23.731,-8.84 -18.613,6.05 -36.7575,-4.18 -46.9919,1.87 -10.2383,6.04 -6.5156,6.97 -6.5156,6.97"
         style="fill:#0a0d0e;fill-opacity:1;fill-rule:nonzero;stroke:none"
         id="path710" /><path
         d="m 99.6055,2013.16 c 0,0 -10.7032,-14.59 -2.793,-24.36 7.9105,-9.77 26.0585,4.19 26.0585,4.19 0,0 -14.891,17.08 -23.2655,20.17"
         style="fill:#0e100e;fill-opacity:1;fill-rule:nonzero;stroke:none"
         id="path712" /><path
         d="m 159.211,2064.33 c 0,0 29.59,0 64.492,-11.38 34.906,-11.38 76.641,-32.62 77.399,-50.84 0.757,-18.21 -88.778,-123.68 -106.989,-112.3 -18.211,11.39 -27.316,81.95 -27.316,112.3 0,30.35 -19.731,59.19 -7.586,62.22"
         style="fill:#a7523c;fill-opacity:1;fill-rule:nonzero;stroke:none"
         id="path714" /><path
         d="m 197.48,1888.96 c 0.004,0 0.008,0 0.008,0 -0.004,0 -0.004,0 -0.008,0 m 0.051,0 c 0.008,0 0.016,0 0.02,0 -0.004,0 -0.012,0 -0.02,0 m 0.063,0 c 0.008,0 0.011,0 0.019,0 -0.008,0 -0.011,0 -0.019,0 m 0.062,0 c 0.004,0 0.008,0 0.012,0 -0.004,0 -0.008,0 -0.012,0 m 0.11,0 c 0,0 0.004,0 0.007,0 -0.003,0 -0.007,0 -0.007,0 m 0.05,0 c 0.004,0 0.012,0 0.02,0 -0.008,0 -0.012,0 -0.02,0 m 0.063,0.01 c 0.008,0 0.012,0 0.019,0 -0.007,0 -0.011,0 -0.019,0 m 0.062,0 c 0.004,0 0.008,0 0.012,0 -0.004,0 -0.008,0 -0.012,0 m 0.168,0.01 c 0.004,0 0.008,0 0.012,0 -0.004,0 -0.008,0 -0.012,0 m 0.063,0.01 c 0.004,0 0.008,0 0.012,0 -0.004,0 -0.008,0 -0.012,0 m 0.301,0.02 v 0 0"
         style="fill:#c39e8c;fill-opacity:1;fill-rule:nonzero;stroke:none"
         id="path716" /><path
         d="m 166.797,2002.28 c 0,0.02 0,0.03 0,0.05 0,-0.02 0,-0.03 0,-0.05 m 0,0.17 c 0,0.02 0,0.03 0,0.05 0,-0.02 0,-0.03 0,-0.05 m 0,0.17 c 0,0.02 0,0.03 0,0.05 0,-0.02 0,-0.03 0,-0.05 m -0.004,0.18 c 0,0.01 0,0.02 0,0.03 0,-0.01 0,-0.02 0,-0.03"
         style="fill:#7e2e24;fill-opacity:1;fill-rule:nonzero;stroke:none"
         id="path718" /><path
         d="m 197.434,1888.96 c -1.278,0 -2.395,0.27 -3.321,0.85 v 0 c -18.211,11.39 -27.316,81.95 -27.316,112.3 v 0 c 0,0.06 0,0.12 0,0.17 0,0.02 0,0.03 0,0.05 0,0.04 0,0.08 0,0.12 0,0.02 0,0.03 0,0.05 0,0.04 0,0.08 0,0.12 0,0.02 0,0.03 0,0.05 -0.004,0.04 -0.004,0.09 -0.004,0.13 0,0.01 0,0.02 0,0.03 -0.258,25.44 -14.035,49.6 -11.039,58.31 8.398,-9.73 17.582,-19.49 21.027,-31.21 5.313,-18.06 7.555,-33.3 20.305,-47.96 6.914,-7.95 17.137,-10.6 27.48,-10.6 7.184,0 14.43,1.28 20.664,2.95 8.329,2.24 16.493,7.1 23.653,11.73 3.324,2.45 6.476,5.1 9.539,7.86 4.285,-2.73 8.496,-5.56 12.551,-8.62 l 2.175,-1.15 c -20.453,-32.71 -74.656,-93.02 -94.675,-95.13 v 0 c -0.098,-0.01 -0.196,-0.02 -0.289,-0.02 -0.004,0 -0.008,0 -0.012,0 -0.016,-0.01 -0.031,-0.01 -0.051,-0.01 -0.004,0 -0.008,0 -0.012,0 -0.054,0 -0.105,-0.01 -0.156,-0.01 -0.004,0 -0.008,0 -0.012,0 -0.011,0 -0.031,0 -0.043,0 -0.007,0 -0.011,0 -0.019,0 -0.016,0 -0.027,0 -0.043,-0.01 -0.008,0 -0.016,0 -0.02,0 -0.015,0 -0.031,0 -0.043,0 -0.003,0 -0.007,0 -0.007,0 -0.036,0 -0.067,0 -0.098,0 -0.004,0 -0.008,0 -0.012,0 -0.015,0 -0.031,0 -0.043,0 -0.008,0 -0.011,0 -0.019,0 -0.016,0 -0.028,0 -0.043,0 -0.004,0 -0.012,0 -0.02,0 -0.015,0 -0.027,0 -0.043,0 0,0 -0.004,0 -0.008,0 -0.015,0 -0.031,0 -0.046,0"
         style="fill:#944130;fill-opacity:1;fill-rule:nonzero;stroke:none"
         id="path720" /><path
         d="m 96.8125,1988.8 c 2.6055,-3.22 6.3245,-3.78 10.1365,-3.19 2.082,4.75 5.649,14.36 1.574,21.6 -3.171,2.69 -6.347,5 -8.9175,5.95 0,0 -10.7032,-14.59 -2.793,-24.36"
         style="fill:#50211b;fill-opacity:1;fill-rule:nonzero;stroke:none"
         id="path722" /><path
         d="m 97.3711,2003.16 c 0.2422,-1.61 1.8906,-2.73 3.6799,-2.5 1.785,0.22 3.035,1.71 2.789,3.32 -0.242,1.61 -1.887,2.73 -3.672,2.51 -1.7891,-0.23 -3.043,-1.72 -2.7969,-3.33"
         style="fill:#f4eadb;fill-opacity:1;fill-rule:nonzero;stroke:none"
         id="path724" /></g></g></svg>
