<?xml version="1.0" encoding="UTF-8" standalone="no"?>
<svg
   version="1.1"
   id="svg2"
   xml:space="preserve"
   width="96.134293"
   height="88.590469"
   viewBox="0 0 96.134293 88.590469"
   sodipodi:docname="chihuahua.svg"
   inkscape:version="1.1 (c68e22c387, 2021-05-23)"
   xmlns:inkscape="http://www.inkscape.org/namespaces/inkscape"
   xmlns:sodipodi="http://sodipodi.sourceforge.net/DTD/sodipodi-0.dtd"
   xmlns="http://www.w3.org/2000/svg"
   xmlns:svg="http://www.w3.org/2000/svg"
   xmlns:rdf="http://www.w3.org/1999/02/22-rdf-syntax-ns#"
   xmlns:cc="http://creativecommons.org/ns#"
   xmlns:dc="http://purl.org/dc/elements/1.1/"><metadata
     id="metadata8"><rdf:RDF><cc:Work
         rdf:about=""><dc:format>image/svg+xml</dc:format><dc:type
           rdf:resource="http://purl.org/dc/dcmitype/StillImage" /></cc:Work></rdf:RDF></metadata><defs
     id="defs6" /><sodipodi:namedview
     pagecolor="#ffffff"
     bordercolor="#666666"
     borderopacity="1"
     objecttolerance="10"
     gridtolerance="10"
     guidetolerance="10"
     inkscape:pageopacity="0"
     inkscape:pageshadow="2"
     inkscape:window-width="1920"
     inkscape:window-height="1001"
     id="namedview4"
     inkscape:pagecheckerboard="0"
     showgrid="false"
     inkscape:zoom="1.4275333"
     inkscape:cx="-175.47752"
     inkscape:cy="54.289452"
     inkscape:window-x="-9"
     inkscape:window-y="-9"
     inkscape:window-maximized="1"
     inkscape:current-layer="g12" /><g
     id="g10"
     inkscape:groupmode="layer"
     inkscape:label="ink_ext_XXXXXX"
     transform="matrix(1.3333333,0,0,-1.3333333,-320.32288,400.51874)"><g
       id="g12"
       transform="scale(0.1)"><path
         d="m 3040.1,2578.5 c 4.4,17.29 12.14,31.38 15.09,46.27 h -135.64 v -27.17 c 8.88,-18.17 40,-63.89 113.07,-116.52 3.33,-2.4 5.83,-5.81 6.87,-9.78 2.74,-10.42 5.25,-32.83 -9.84,-63.7 -3.24,-6.61 -10.25,-10.65 -17.87,-11.07 -10,-0.55 -22.79,-4.02 -22.44,-18.15 0.49,-19.53 21.16,-16.31 47.4,-14.84 9.23,0.52 17.31,6.1 20.77,14.32 12.21,29.03 39.05,94.21 36.82,101.06 -2.89,8.83 -65.19,56.5 -54.23,99.58"
         style="fill:#201d1d;fill-opacity:1;fill-rule:nonzero;stroke:none"
         id="path916" /><path
         d="m 3041.3,2448.28 c -0.77,-10.97 -3.82,-24.65 -11.65,-40.68 -3.24,-6.61 -10.25,-10.65 -17.87,-11.07 -10,-0.55 -22.79,-4.02 -22.44,-18.14 0.49,-19.54 21.16,-16.32 47.4,-14.85 9.23,0.52 17.31,6.1 20.77,14.32 10.34,24.58 31.09,74.93 35.88,94 -13.48,-15.22 -31.93,-21.71 -52.09,-23.58"
         style="fill:#a49d97;fill-opacity:1;fill-rule:nonzero;stroke:none"
         id="path918" /><path
         d="m 2602.12,2676.62 c -1.83,-24.73 1.03,-65.39 18.44,-130.68 0,0 27.58,-76.95 22.33,-122.44 -1.11,-9.68 -9.44,-19.1 -19.17,-19.66 -16.73,-0.96 -31.92,-5.38 -31.92,-14.42 0,-18.02 10.93,-21.64 34.27,-21.64 19.09,0 30.92,9.43 36.28,20.97 6.44,13.82 11.43,30.38 18.86,38.93 15.38,17.69 -8.65,16.73 11.35,69.8 17.55,46.58 40.47,181.7 -34.82,210.06 -21.85,8.23 -53.89,-7.63 -55.62,-30.92"
         style="fill:#201d1d;fill-opacity:1;fill-rule:nonzero;stroke:none"
         id="path920" /><path
         d="m 2702.09,2530.77 c -9.22,-5.24 -18.85,-9.52 -28.87,-12.29 -16.3,-4.49 -30.37,-4.3 -43.64,-1.32 7.51,-26.56 16.51,-65.92 13.31,-93.66 -1.11,-9.68 -9.44,-19.1 -19.17,-19.66 -16.73,-0.96 -31.92,-5.38 -31.92,-14.42 0,-18.01 10.93,-21.64 34.27,-21.64 19.09,0 30.92,9.43 36.28,20.97 6.44,13.82 11.43,30.38 18.86,38.93 15.38,17.69 -8.65,16.73 11.35,69.8 3.21,8.52 6.6,20.03 9.53,33.29"
         style="fill:#a49d97;fill-opacity:1;fill-rule:nonzero;stroke:none"
         id="path922" /><path
         d="m 3021.42,2709.37 c 0,0 40.14,43.05 49.13,67.74 5.77,15.87 4.86,37.46 -2.99,54.15 -9.38,19.95 -27.48,41.71 -54.35,51.28 -12.42,4.42 -4.74,13.54 10.09,12.44 40.23,-2.98 67.83,-34.74 79.27,-62.56 11.09,-26.98 9.21,-49.04 1.35,-77.48 -9.14,-33.1 -55.39,-81.18 -55.39,-81.18 0,0 -33.61,-8.37 -27.11,35.61"
         style="fill:#2d2a2b;fill-opacity:1;fill-rule:nonzero;stroke:none"
         id="path924" /><path
         d="m 3123.33,2461.14 c -2.57,20.77 -65.18,59.41 -54.22,104.41 10.96,44.99 42.68,69.22 -30.58,137.28 -73.25,68.07 -91.58,54.23 -182.21,51.92 -49.43,-1.26 -106.03,-5.48 -150.28,7.04 v 0.22 c 0,0 -28.44,11.99 -46.31,57.58 -17.86,45.58 -44.97,132.45 -123.83,123.83 0,0 -46.41,-9.66 -53.81,-27.32 -7.39,-17.66 -3.69,-34.5 -17.25,-41.48 -13.55,-6.98 -50.93,-4.52 -58.32,-10.27 -7.39,-5.75 -6.16,-32.85 15.2,-48.87 21.36,-16.02 64.48,-31 77.21,-37.98 0,0 24.45,-12.03 32.36,-29 39.31,-49.18 18.03,-69.19 37.77,-117.63 18.4,-45.13 125.17,-101.29 160.35,-96.72 90.89,11.79 144.73,97.16 216.25,57.93 0,0 26.81,-61.69 116.13,-128.8 3.19,-2.4 5.57,-5.74 6.58,-9.61 2.78,-10.65 5.61,-34.28 -9.72,-67 -3.24,-6.91 -10.25,-11.12 -17.87,-11.56 -10,-0.58 -22.79,-4.2 -22.43,-18.95 0.48,-20.41 21.17,-17.03 47.42,-15.5 9.22,0.54 17.28,6.36 20.73,14.92 12.21,30.3 38.75,89.99 36.83,105.56"
         style="fill:#2d2a2b;fill-opacity:1;fill-rule:nonzero;stroke:none"
         id="path926" /><path
         d="m 2521.35,2762.43 c -0.35,32.26 47.71,63.02 9.94,78.84 -5.34,2.23 -19.28,-7.98 -28.88,-7.02 -31.22,3.1 -52.2,14.08 -72.11,34.52 -10.76,-0.88 -20.4,-1.79 -23.78,-4.42 -7.39,-5.75 -6.16,-32.85 15.2,-48.87 21.36,-16.02 64.48,-31 77.21,-37.98 0,0 12.33,-6.1 22.32,-15.7 l 0.1,0.63"
         style="fill:#cdc9c4;fill-opacity:1;fill-rule:nonzero;stroke:none"
         id="path928" /><path
         d="m 2581.37,2673.12 c -3.82,48.51 -52.44,78.46 -50.08,75.38 27.01,-35.34 21.26,-97.98 26.24,-109.94 17.3,-41.53 60.41,-64.19 102.96,-84.5 -21.92,35.92 -76.02,79.69 -79.12,119.06"
         style="fill:#cdc9c4;fill-opacity:1;fill-rule:nonzero;stroke:none"
         id="path930" /><path
         d="m 2890.29,2610.54 c -31.34,-2.42 -62.63,-10.83 -91.28,-23.54 -28.24,-12.53 -57.4,-26.48 -87.73,-28.15 2.03,-3.75 4.03,-7.5 5.89,-11.27 2.28,-4.62 2.88,-9.13 2.38,-13.32 3.71,-0.4 7.06,-0.48 9.86,-0.11 76.19,9.88 126.34,71.42 182.7,67.99 -7.96,5.18 -15.49,8.89 -21.82,8.4"
         style="fill:#cdc9c4;fill-opacity:1;fill-rule:nonzero;stroke:none"
         id="path932" /><path
         d="m 3070.35,2430.1 c -0.66,-11.61 -3.64,-26.22 -11.7,-43.43 -3.24,-6.91 -10.25,-11.12 -17.87,-11.56 -10,-0.58 -22.79,-4.2 -22.43,-18.95 0.48,-20.41 21.17,-17.03 47.42,-15.5 9.22,0.54 17.28,6.36 20.73,14.92 11.03,27.38 33.68,78.62 36.56,99.77 -14.44,-12.45 -32.73,-20.57 -52.71,-25.25"
         style="fill:#cdc9c4;fill-opacity:1;fill-rule:nonzero;stroke:none"
         id="path934" /><path
         d="m 2629.58,2648.94 c -1.84,-24.74 1.03,-65.4 18.44,-130.69 0,0 19.42,-76.95 14.17,-122.43 -1.12,-9.69 -9.44,-19.11 -19.17,-19.67 -16.73,-0.96 -31.92,-5.38 -31.92,-14.42 0,-18.01 10.93,-21.64 34.27,-21.64 19.09,0 30.91,9.43 36.28,20.97 6.44,13.83 11.43,30.39 18.86,38.94 15.38,17.69 -8.65,16.73 11.35,69.79 17.55,46.58 40.47,181.7 -34.82,210.06 -21.85,8.23 -45.73,-7.62 -47.46,-30.91"
         style="fill:#2d2a2b;fill-opacity:1;fill-rule:nonzero;stroke:none"
         id="path936" /><path
         d="m 2722.97,2510.57 c -13.77,-8.33 -28.84,-16.47 -42.94,-15.97 -9.81,0.34 -18.98,2.03 -27.72,4.66 5.39,-25.73 13.5,-72.07 9.88,-103.44 -1.12,-9.69 -9.44,-19.11 -19.17,-19.67 -16.73,-0.96 -31.92,-5.38 -31.92,-14.42 0,-18.01 10.93,-21.64 34.27,-21.64 19.09,0 30.91,9.43 36.28,20.97 6.44,13.83 11.43,30.39 18.86,38.94 15.38,17.69 -8.65,16.73 11.35,69.79 3.8,10.1 7.85,24.36 11.11,40.78"
         style="fill:#cdc9c4;fill-opacity:1;fill-rule:nonzero;stroke:none"
         id="path938" /><path
         d="m 2515.77,2881.52 c 0,0 -13.96,16.1 -24.64,16.1 -10.68,0 -18.89,-34.91 2.46,-32.03 21.36,2.87 22.18,15.93 22.18,15.93"
         style="fill:#868990;fill-opacity:1;fill-rule:nonzero;stroke:none"
         id="path940" /><path
         d="m 2404.5,2839.96 c 5.09,0.51 10.25,2.49 13.93,6.18 5.02,5.01 5.3,13.91 4.22,21.94 -7.46,-0.75 -13.58,-1.75 -16.13,-3.73 -4.18,-3.25 -5.42,-13.35 -2.02,-24.39"
         style="fill:#0b111b;fill-opacity:1;fill-rule:nonzero;stroke:none"
         id="path942" /><path
         d="m 2465.66,2820.51 c -11.14,-7.43 -36.26,-3.66 -47.97,-1.35 1.32,-1.24 2.51,-2.54 4.03,-3.68 2.36,-1.77 5.02,-3.4 7.85,-4.94 48.04,-5.64 50.04,19.26 36.09,9.97"
         style="fill:#0b111b;fill-opacity:1;fill-rule:nonzero;stroke:none"
         id="path944" /><path
         d="m 2597.09,2865.42 c 0,0 -39.84,44.52 -5.75,76.15 34.09,31.62 72.29,44.77 86.67,55.45 14.37,10.67 29.98,15.19 18.48,-34.92 -11.5,-50.1 -32.45,-72.04 -47.23,-80.58 -14.79,-8.54 -39.02,-24.49 -52.17,-16.1"
         style="fill:#2d2a2b;fill-opacity:1;fill-rule:nonzero;stroke:none"
         id="path946" /><path
         d="m 2675.75,2981.58 c -16.14,-5.28 -35.41,-12.88 -46.82,-25.53 -12.1,-13.4 -20.37,-29.41 -25.33,-46.51 -1.96,-6.77 0.37,-13.86 5.41,-18.78 l 0.08,-0.08 c 2.05,-2.01 10.9,-5.79 19.81,2.02 25.72,22.54 50.17,29.47 50.94,64.68 0.19,8.53 8.81,28.42 -4.09,24.2"
         style="fill:#9f938a;fill-opacity:1;fill-rule:nonzero;stroke:none"
         id="path948" /><path
         d="m 2493.59,2865.59 c 2.54,0.34 4.74,0.84 6.73,1.43 2.06,4.07 3.35,9.47 3.35,15.45 0,4.03 -0.63,7.76 -1.63,11.04 -3.59,2.32 -7.42,4.11 -10.91,4.11 -10.68,0 -18.89,-34.91 2.46,-32.03"
         style="fill:#242630;fill-opacity:1;fill-rule:nonzero;stroke:none"
         id="path950" /><path
         d="m 2495.92,2888.84 c 0,-2.18 -1.78,-3.95 -3.96,-3.95 -2.19,0 -3.96,1.77 -3.96,3.95 0,2.19 1.77,3.96 3.96,3.96 2.18,0 3.96,-1.77 3.96,-3.96"
         style="fill:#f3f8ea;fill-opacity:1;fill-rule:nonzero;stroke:none"
         id="path952" /></g></g></svg>
