<?xml version="1.0" encoding="UTF-8" standalone="no"?>
<svg
   version="1.1"
   id="svg2"
   xml:space="preserve"
   width="141.62175"
   height="125.50993"
   viewBox="0 0 141.62175 125.50993"
   sodipodi:docname="doberman.svg"
   inkscape:version="1.1 (c68e22c387, 2021-05-23)"
   xmlns:inkscape="http://www.inkscape.org/namespaces/inkscape"
   xmlns:sodipodi="http://sodipodi.sourceforge.net/DTD/sodipodi-0.dtd"
   xmlns="http://www.w3.org/2000/svg"
   xmlns:svg="http://www.w3.org/2000/svg"
   xmlns:rdf="http://www.w3.org/1999/02/22-rdf-syntax-ns#"
   xmlns:cc="http://creativecommons.org/ns#"
   xmlns:dc="http://purl.org/dc/elements/1.1/"><metadata
     id="metadata8"><rdf:RDF><cc:Work
         rdf:about=""><dc:format>image/svg+xml</dc:format><dc:type
           rdf:resource="http://purl.org/dc/dcmitype/StillImage" /></cc:Work></rdf:RDF></metadata><defs
     id="defs6" /><sodipodi:namedview
     pagecolor="#ffffff"
     bordercolor="#666666"
     borderopacity="1"
     objecttolerance="10"
     gridtolerance="10"
     guidetolerance="10"
     inkscape:pageopacity="0"
     inkscape:pageshadow="2"
     inkscape:window-width="1920"
     inkscape:window-height="1001"
     id="namedview4"
     inkscape:pagecheckerboard="0"
     showgrid="false"
     inkscape:zoom="0.71376665"
     inkscape:cx="-133.79723"
     inkscape:cy="45.533089"
     inkscape:window-x="-9"
     inkscape:window-y="-9"
     inkscape:window-maximized="1"
     inkscape:current-layer="g12" /><g
     id="g10"
     inkscape:groupmode="layer"
     inkscape:label="ink_ext_XXXXXX"
     transform="matrix(1.3333333,0,0,-1.3333333,-424.46016,144.5698)"><g
       id="g12"
       transform="scale(0.1)"><path
         d="m 3530.93,663.949 c 0,0 29.81,-58.679 12.78,-168.457 -16.18,-104.211 -16.14,-124.851 -13.26,-194.683 0.31,-7.7 -0.78,-15.387 -3.26,-22.68 -8.6,-25.32 -24.97,-81.641 -37.51,-106.418 -3.67,-7.242 -11.23,-11.66 -19.34,-11.66 h -28.75 c -9.91,0 -19.69,3.918 -26.02,11.539 -5.89,7.09 -8.99,16.84 2.15,27.441 4.69,4.469 11.35,7.098 25.67,8.758 0,0 22.71,-2.84 29.34,24.602 6.62,27.449 11.53,170.738 -10.42,232.82 -8.92,25.238 -34.56,75.539 -40.55,93.379 -23.86,71.058 -5.98,63 19.74,105.359 32.17,53 84.43,12.672 89.43,0"
         style="fill:#181b2d;fill-opacity:1;fill-rule:nonzero;stroke:none"
         id="path604" /><path
         d="m 3529.02,356.301 c -0.94,-0.821 -1.96,-1.469 -2.91,-2.262 -5.88,-6.449 -13.94,-12.707 -20.91,-16.199 -1.84,-0.93 -3.78,-1.551 -5.66,-2.348 -2.14,-1.082 -4.24,-2.094 -6.18,-2.953 -4.79,-2.148 -9.91,-3.719 -15.06,-5.219 0.25,-43.57 -2.46,-82.039 -5.57,-94.929 -6.63,-27.442 -29.34,-24.602 -29.34,-24.602 -14.32,-1.66 -20.98,-4.289 -25.67,-8.758 -11.14,-10.601 -8.04,-20.34 -2.15,-27.441 6.33,-7.629 16.11,-11.539 26.02,-11.539 h 28.75 c 8.11,0 15.67,4.418 19.34,11.66 12.54,24.777 28.91,81.098 37.51,106.418 2.48,7.293 3.57,14.98 3.25,22.68 -0.9,21.992 -1.5,39.113 -1.42,55.492"
         style="fill:#7a4a2f;fill-opacity:1;fill-rule:nonzero;stroke:none"
         id="path606" /><path
         d="m 3472.74,232.469 c 3.12,13.011 5.8,51.66 5.53,95.332 0.02,0 0.03,0 0.05,0.008 0,-0.157 0,-0.321 0,-0.477 -0.01,0 -0.02,0 -0.02,-0.012 0.24,-42.879 -2.38,-80.82 -5.43,-94.3 v -0.008 c -0.01,-0.02 -0.01,-0.043 -0.01,-0.063 -0.01,-0.008 -0.01,-0.019 -0.01,-0.027 0,-0.012 -0.01,-0.031 -0.01,-0.051 0,-0.012 -0.01,-0.019 -0.01,-0.031 0,-0.02 -0.01,-0.039 -0.01,-0.051 0,-0.008 -0.01,-0.019 -0.01,-0.027 0,-0.024 -0.01,-0.032 -0.01,-0.051 0,-0.02 -0.01,-0.031 -0.01,-0.051 0,-0.008 0,-0.019 -0.01,-0.031 0,-0.02 -0.01,-0.027 -0.01,-0.047 0,-0.012 0,-0.023 -0.01,-0.031 0,-0.02 0,-0.031 -0.01,-0.051 0,-0.012 0,-0.02 -0.01,-0.031 v 0 m 57.49,73.722 c -0.02,0.379 -0.03,0.77 -0.05,1.149 -0.75,18.922 -1.23,34.242 -1.16,48.961 -0.01,-0.012 -0.02,-0.012 -0.03,-0.02 0,0.129 0,0.27 0,0.41 0.02,0.008 0.04,0.028 0.05,0.039 -0.09,-15.16 0.4,-30.898 1.19,-50.539"
         style="fill:#b19380;fill-opacity:1;fill-rule:nonzero;stroke:none"
         id="path608" /><path
         d="m 3472.73,232.391 c 0,0.031 0.01,0.05 0.01,0.078 v 0 c 0,-0.02 -0.01,-0.047 -0.01,-0.078 m 0.02,0.109 c 0.01,0.02 0.01,0.031 0.01,0.051 0,-0.02 -0.01,-0.039 -0.01,-0.051 m 0.02,0.082 c 0,0.02 0.01,0.027 0.01,0.047 0,-0.02 -0.01,-0.027 -0.01,-0.047 m 0.02,0.078 c 0,0.02 0.01,0.031 0.01,0.051 0,-0.02 -0.01,-0.031 -0.01,-0.051 m 0.02,0.102 c 0,0.008 0.01,0.019 0.01,0.027 0,-0.008 -0.01,-0.019 -0.01,-0.027 m 0.02,0.078 c 0,0.012 0.01,0.019 0.01,0.031 0,-0.012 -0.01,-0.019 -0.01,-0.031 m 0.02,0.082 c 0,0.008 0,0.019 0.01,0.027 -0.01,-0.008 -0.01,-0.019 -0.01,-0.027 m 0.02,0.09 v 0.008 -0.008 m 57.54,68.668 c -0.08,1.922 -0.16,3.812 -0.23,5.66 0.02,-0.379 0.03,-0.77 0.05,-1.149 0.06,-1.48 0.12,-2.992 0.18,-4.511 m -52.09,25.652 c 0,0.156 0,0.32 0,0.477 6.12,1.453 12.13,3.41 17.88,6.14 12.43,5.903 22.75,14.02 32.79,22.742 0,-0.14 0,-0.281 0,-0.41 -0.94,-0.812 -1.94,-1.461 -2.88,-2.242 -5.88,-6.449 -13.94,-12.707 -20.91,-16.199 -1.84,-0.93 -3.78,-1.551 -5.66,-2.348 -2.14,-1.082 -4.24,-2.094 -6.18,-2.953 -4.78,-2.148 -9.9,-3.719 -15.04,-5.207"
         style="fill:#121118;fill-opacity:1;fill-rule:nonzero;stroke:none"
         id="path610" /><path
         d="m 3470.34,160.051 h -28.75 c -9.91,0 -19.69,3.91 -26.02,11.539 -3.02,3.64 -5.32,7.992 -5.32,12.789 0,4.543 2.05,9.5 7.47,14.652 4.69,4.469 11.35,7.098 25.67,8.758 0,0 0.66,-0.078 1.8,-0.078 5.51,0 22.05,1.949 27.54,24.68 v 0 c 0,0.031 0.01,0.058 0.01,0.078 0.01,0.011 0.01,0.019 0.01,0.031 0,0.012 0.01,0.031 0.01,0.051 0.01,0.008 0.01,0.019 0.01,0.031 0,0.02 0.01,0.027 0.01,0.047 0.01,0.012 0.01,0.023 0.01,0.031 0,0.02 0.01,0.031 0.01,0.051 0,0.019 0.01,0.027 0.01,0.051 0,0.008 0.01,0.019 0.01,0.027 0,0.012 0.01,0.031 0.01,0.051 0,0.012 0.01,0.019 0.01,0.031 0,0.02 0.01,0.039 0.01,0.051 0,0.008 0,0.019 0.01,0.027 0,0.02 0,0.043 0.01,0.063 v 0.008 c 3.05,13.48 5.67,51.421 5.43,94.3 0,0.012 0.01,0.012 0.02,0.012 5.14,1.488 10.26,3.059 15.04,5.207 1.94,0.859 4.04,1.871 6.18,2.953 1.88,0.797 3.82,1.418 5.66,2.348 6.97,3.492 15.03,9.75 20.91,16.199 0.94,0.781 1.94,1.43 2.88,2.242 0.01,0.008 0.02,0.008 0.03,0.02 -0.07,-14.719 0.41,-30.039 1.16,-48.961 0.07,-1.848 0.15,-3.738 0.23,-5.66 0.01,-0.289 0.02,-0.578 0.03,-0.871 0.04,-0.84 0.06,-1.68 0.06,-2.528 0.01,-6.851 -1.1,-13.66 -3.31,-20.152 -8.6,-25.32 -24.97,-81.641 -37.51,-106.418 -3.67,-7.242 -11.23,-11.66 -19.34,-11.66"
         style="fill:#572c1c;fill-opacity:1;fill-rule:nonzero;stroke:none"
         id="path612" /><path
         d="m 4212.8,321.281 c 0,22.719 -25.08,32.649 -25.08,32.649 l -12.77,10.89 c 0,0 -84.58,54.891 -101.91,138.172 -3.57,17.117 -7.07,33.399 -11.11,48.738 h -172.97 l -8.81,-37.851 c 7.92,-5.848 55.11,-13.66 61.99,-24.137 79.49,-121.14 158.99,-160.89 192.44,-166.562 33.45,-5.68 39.66,-71.461 40.37,-99.141 0.72,-27.68 -16.33,-30.519 -16.33,-30.519 -21.65,-2.481 -25.37,-10.821 -23.69,-18.54 1.97,-8.988 10.77,-14.89 19.97,-14.921 43.54,-0.137 52.65,3.5 57.9,19.261 5.68,17.039 0,119.25 0,141.961"
         style="fill:#181b2d;fill-opacity:1;fill-rule:nonzero;stroke:none"
         id="path614" /><path
         d="M 4211.77,328.852 H 4115 c 7.55,-2.86 14.21,-4.762 19.58,-5.672 33.45,-5.68 39.66,-71.461 40.37,-99.141 0.72,-27.68 -16.33,-30.519 -16.33,-30.519 -21.65,-2.481 -25.37,-10.821 -23.69,-18.54 1.97,-8.988 10.77,-14.89 19.97,-14.921 43.54,-0.137 52.65,3.5 57.9,19.261 5.68,17.039 0,119.25 0,141.961 0,2.719 -0.4,5.219 -1.03,7.571"
         style="fill:#7a4a2f;fill-opacity:1;fill-rule:nonzero;stroke:none"
         id="path616" /><path
         d="m 4157.25,160.051 c -0.77,0 -1.56,0 -2.35,0.008 -9.2,0.031 -18,5.933 -19.97,14.921 -0.22,1.04 -0.35,2.09 -0.35,3.141 0,6.719 5.31,13.25 24.04,15.399 0,0 16.32,2.718 16.35,28.769 0,0.57 0,1.16 -0.02,1.75 -0.55,21.262 -4.33,64.973 -21.21,86.691 4.12,-1.261 7.84,-2.14 11.12,-2.699 0.03,0 0.07,-0.011 0.1,-0.011 14.19,-2.469 23.47,-15.758 29.5,-32.36 8.14,-22.418 10.37,-50.871 10.77,-66.758 0.29,-11.082 -2.27,-18.183 -5.44,-22.722 -4.76,-6.782 -10.88,-7.801 -10.88,-7.801 -18.73,-2.149 -24.05,-8.68 -24.05,-15.41 0,-0.949 0.11,-1.91 0.3,-2.86 -2.5,-0.039 -5.13,-0.058 -7.91,-0.058"
         style="fill:#572c1c;fill-opacity:1;fill-rule:nonzero;stroke:none"
         id="path618" /><path
         d="m 4031.1,633.59 c 0,0 58.67,64.359 70.03,51.109 11.36,-13.25 -24.61,-75.711 -35.02,-96.527 -10.41,-20.832 -35.01,45.418 -35.01,45.418"
         style="fill:#1f2235;fill-opacity:1;fill-rule:nonzero;stroke:none"
         id="path620" /><path
         d="m 4243.09,306.141 c 0,22.711 -25.08,32.648 -25.08,32.648 l -12.78,10.891 c 0,0 -84.58,54.89 -101.91,138.172 -17.33,83.277 -32.48,147.64 -119.54,174.128 -79.14,24.09 -270.65,14.75 -390.16,70.942 -21.9,10.289 -75.78,83.469 -139.05,168.68 l -0.27,0.027 c -8.45,13.543 -17.32,28.262 -26.64,44.57 -23.58,41.262 -43.72,59.101 -130.98,15.153 0,0 -14.51,-7.954 -16.03,-15.532 -1.51,-7.578 -0.38,-21.968 -26.14,-30.691 -25.76,-8.707 -74.64,-26.141 -70.85,-36.367 3.79,-10.231 23.11,-33.34 29.93,-32.961 0,0 4.17,-1.653 7.2,-1.141 0,0 11.37,-14.898 37.38,-14.148 26.02,0.758 47.74,18.437 79.06,-0.75 24.34,-14.922 39.51,-49.621 50.76,-73.141 4.65,-66.039 -28.58,-154.41 63.32,-226.512 24.53,-19.238 26.26,-49.32 72.52,-66.867 103.25,-39.16 191.01,-12.191 263.28,14.77 81.43,30.379 143.19,60.758 185.31,-3.41 79.5,-121.141 158.99,-160.891 192.44,-166.571 33.45,-5.672 39.66,-71.449 40.38,-99.129 0.71,-27.683 -16.33,-30.523 -16.33,-30.523 -21.65,-2.488 -25.38,-10.828 -23.69,-18.539 1.96,-8.988 10.76,-14.899 19.96,-14.93 43.54,-0.14 52.65,3.512 57.91,19.27 5.68,17.039 0,119.25 0,141.961"
         style="fill:#333548;fill-opacity:1;fill-rule:nonzero;stroke:none"
         id="path622" /><path
         d="m 3763.55,690.121 c -60.06,7.801 -120.65,19.75 -169.38,42.539 v 0.012 c 48.73,-22.793 109.33,-34.75 169.38,-42.551"
         style="fill:#dbdcdd;fill-opacity:1;fill-rule:nonzero;stroke:none"
         id="path624" /><path
         d="m 3800.42,622.141 c -116.05,0 -191.31,46.418 -206.25,110.519 48.73,-22.789 109.32,-34.738 169.38,-42.539 77.25,-10.039 153.6,-13.199 202.58,-23.672 -33.06,-11.597 -62.64,-34.578 -97.71,-39.429 -23.97,-3.309 -46.67,-4.879 -68,-4.879"
         style="fill:#3a3c51;fill-opacity:1;fill-rule:nonzero;stroke:none"
         id="path626" /><path
         d="m 4187.52,144.91 v 0 c 31.32,0 44.07,2.16 50.66,9.852 -6.59,-7.692 -19.34,-9.852 -50.66,-9.852 m -2.34,0 v 0 c -9.2,0.031 -18,5.942 -19.96,14.93 -0.02,0.09 -0.04,0.18 -0.06,0.269 v 0 c 0.02,-0.089 0.04,-0.179 0.06,-0.269 1.96,-8.988 10.76,-14.899 19.96,-14.93 v 0 m 32.83,193.879 -12.78,10.891 c 0,0 -28.24,18.332 -55.43,49.871 0.03,0 0.05,0.008 0.07,0.008 27.17,-31.5 55.36,-49.879 55.36,-49.879 l 12.78,-10.891 m -796.24,219.77 c -0.83,1.011 -1.64,2.031 -2.43,3.043 0.79,-1 1.59,-2 2.42,-3 v -0.012 c 0,-0.008 0.01,-0.02 0.01,-0.031"
         style="fill:#a1a1ac;fill-opacity:1;fill-rule:nonzero;stroke:none"
         id="path628" /><path
         d="m 3448.9,532.031 c -10.87,8.758 -19.82,17.617 -27.13,26.528 0,0.011 -0.01,0.023 -0.01,0.031 v 0.012 c 7.46,-9.043 16.42,-17.922 27.14,-26.571"
         style="fill:#10131f;fill-opacity:1;fill-rule:nonzero;stroke:none"
         id="path630" /><path
         d="m 4165.16,160.109 c -0.19,0.95 -0.3,1.911 -0.3,2.86 0,-0.949 0.11,-1.91 0.3,-2.86 v 0 m 34.63,26.071 c 3.17,4.539 5.73,11.64 5.44,22.722 -0.4,15.887 -2.63,44.34 -10.77,66.758 8.14,-22.418 10.37,-50.871 10.78,-66.758 0.28,-11.082 -2.28,-18.183 -5.45,-22.722"
         style="fill:#391d15;fill-opacity:1;fill-rule:nonzero;stroke:none"
         id="path632" /><path
         d="m 4187.52,144.91 c -0.77,0 -1.55,0 -2.34,0 v 0 c -9.2,0.031 -18,5.942 -19.96,14.93 -0.02,0.09 -0.04,0.18 -0.06,0.269 v 0 c -0.19,0.95 -0.3,1.911 -0.3,2.86 0,6.73 5.32,13.261 24.05,15.41 0,0 6.12,1.019 10.88,7.801 3.17,4.539 5.73,11.64 5.45,22.722 -0.41,15.887 -2.64,44.34 -10.78,66.758 -6.03,16.602 -15.31,29.891 -29.5,32.36 -0.03,0 -0.07,0.011 -0.1,0.011 -4.57,0.778 -10,2.188 -16.18,4.36 -39,13.711 -107.63,57.629 -176.26,162.211 -18.25,27.796 -40.17,37.847 -65.79,37.847 -33.52,0 -73.37,-17.219 -119.52,-34.437 -46.15,-17.223 -98.62,-34.442 -157.4,-34.442 -33.27,0 -68.57,5.52 -105.88,19.672 -46.26,17.547 -47.99,47.629 -72.52,66.867 -0.82,0.641 -1.62,1.282 -2.41,1.922 -10.72,8.649 -19.68,17.528 -27.14,26.571 -0.83,1 -1.63,2 -2.42,3 -24.42,31.347 -28.97,63.128 -25.82,92.668 10.25,-11.618 28.31,-14.961 43.53,-14.961 9.61,0 18.1,1.339 22.76,2.75 3.53,-5.297 7.18,-10.559 11.16,-15.688 31.1,-40.082 67.75,-72.012 113.26,-94.531 30.22,-14.969 60.47,-20.41 90.77,-20.41 54.36,0 108.84,17.539 163.45,29.082 16.77,3.539 32.17,5.34 46.56,5.34 47.24,0 83.52,-19.43 121.02,-60.473 29.15,-31.91 59.4,-66.32 100.21,-82.641 8.69,-3.468 17.56,-5.008 26.43,-5.008 5.72,0 11.45,0.641 17.13,1.821 27.19,-31.539 55.43,-49.871 55.43,-49.871 l 12.78,-10.891 c 0,0 25.08,-9.937 25.08,-32.648 0,-22.711 5.68,-124.922 0,-141.961 -1.27,-3.801 -2.76,-6.899 -4.91,-9.418 -6.59,-7.692 -19.34,-9.852 -50.66,-9.852"
         style="fill:#212331;fill-opacity:1;fill-rule:nonzero;stroke:none"
         id="path634" /><path
         d="m 4224.59,212.879 c -1.16,32.152 -5.66,101.723 -47.97,108.812 -16.24,2.719 -32.44,-0.16 -48.51,-0.339 15.02,-7.563 27.64,-11.77 36.75,-13.321 33.45,-5.672 39.66,-71.449 40.38,-99.129 0.71,-27.683 -16.33,-30.523 -16.33,-30.523 -21.65,-2.488 -25.38,-10.828 -23.69,-18.547 1.96,-8.98 10.76,-14.891 19.96,-14.922 43.54,-0.14 52.65,3.5 57.91,19.27 0.3,0.902 0.55,2.152 0.79,3.5 -11.35,12.402 -18.72,29.371 -19.29,45.199"
         style="fill:#7a4a2f;fill-opacity:1;fill-rule:nonzero;stroke:none"
         id="path636" /><path
         d="m 3545.12,646.84 c 0,0 29.82,-58.668 12.78,-168.449 -16.17,-104.219 -16.14,-124.86 -13.26,-194.692 0.32,-7.699 -0.77,-15.39 -3.25,-22.679 -8.61,-25.321 -24.97,-81.641 -37.52,-106.418 -3.66,-7.243 -11.22,-11.653 -19.34,-11.653 h -28.74 c -9.92,0 -19.69,3.91 -26.02,11.531 -5.89,7.102 -9,16.84 2.14,27.45 4.7,4.472 11.36,7.09 25.67,8.75 0,0 22.72,-2.84 29.34,24.609 6.63,27.441 10.41,170.352 -10.41,232.813 -20.82,62.457 -53,145.738 -20.82,198.738 32.18,53 84.43,12.68 89.43,0"
         style="fill:#333548;fill-opacity:1;fill-rule:nonzero;stroke:none"
         id="path638" /><path
         d="m 3539.75,333.832 c -2.1,-1.5 -4.16,-2.922 -5.97,-4.23 -11.98,-8.641 -26.73,-14.661 -41.72,-16.032 0.57,-44.961 -1.94,-85.05 -5.14,-98.281 -6.62,-27.449 -29.34,-24.609 -29.34,-24.609 -14.31,-1.66 -20.97,-4.278 -25.67,-8.75 -11.14,-10.61 -8.03,-20.348 -2.14,-27.45 6.33,-7.621 16.1,-11.531 26.02,-11.531 h 28.74 c 8.12,0 15.68,4.41 19.34,11.653 12.55,24.777 28.91,81.097 37.52,106.418 2.48,7.289 3.57,14.98 3.25,22.679 -0.82,19.891 -1.39,35.762 -1.44,50.731 -1.13,-0.309 -2.3,-0.348 -3.45,-0.598"
         style="fill:#7a4a2f;fill-opacity:1;fill-rule:nonzero;stroke:none"
         id="path640" /><path
         d="m 3386.09,763.691 c -4.54,20.45 5.46,103.789 -18.49,108.329 -25.02,4.742 -46.89,2.269 -71.48,11.839 -30.1,11.711 -55.34,9.723 -87.12,11.211 -1.69,0.082 -3.25,0.34 -4.74,0.692 -13.03,-6.16 -22.33,-12.332 -20.6,-17 3.79,-10.231 23.11,-33.34 29.93,-32.973 0,0 4.17,-1.641 7.2,-1.129 0,0 11.37,-14.91 37.38,-14.148 26.02,0.758 47.74,18.437 79.06,-0.762 24.34,-14.91 39.51,-49.609 50.76,-73.129 -0.64,2.348 -1.37,4.688 -1.9,7.07"
         style="fill:#7a4a2f;fill-opacity:1;fill-rule:nonzero;stroke:none"
         id="path642" /><path
         d="m 3302.63,924.98 c 0,0 -12.63,14.149 -17.68,11.872 -5.05,-2.27 -11.12,-12.633 -4.8,-14.903 6.31,-2.269 22.48,3.031 22.48,3.031"
         style="fill:#130c11;fill-opacity:1;fill-rule:nonzero;stroke:none"
         id="path644" /><path
         d="m 3222.03,903.379 c -21.15,-8.348 -40.83,-17.988 -38.37,-24.617 1.59,-4.301 5.93,-10.864 10.93,-17.012 4.75,5.102 10.1,9.992 16.8,12.309 14.62,5.07 13.53,19.3 10.64,29.32"
         style="fill:#101726;fill-opacity:1;fill-rule:nonzero;stroke:none"
         id="path646" /><path
         d="m 3369.06,937.102 c 0,0 -22.23,8.847 -19.2,30.058 3.03,21.219 13.64,51.03 23.75,64.16 10.1,13.13 17.68,64.66 31.32,50.52 13.64,-14.15 0.5,-56.08 7.07,-75.27 6.57,-19.199 20.71,-76.3 -42.94,-69.468"
         style="fill:#333548;fill-opacity:1;fill-rule:nonzero;stroke:none"
         id="path648" /><path
         d="m 3364.52,949.199 c 9.87,-4.898 30.33,13.051 34.19,19.602 8.24,13.988 -0.87,37.849 -4.66,52.029 -1.48,5.53 0.9,30.27 -3.34,22.27 -6.01,-9.56 -13.58,-27.01 -21.14,-39.49 -8.37,-13.829 -8.04,-52.93 -5.05,-54.411"
         style="fill:#be8169;fill-opacity:1;fill-rule:nonzero;stroke:none"
         id="path650" /><path
         d="m 3293.51,930.582 c 0,1.09 -0.12,2.129 -0.28,3.137 -3.12,2.351 -6.29,4.031 -8.28,3.133 -5.05,-2.27 -11.12,-12.633 -4.8,-14.903 2.67,-0.957 7.07,-0.547 11.29,0.231 1.27,2.289 2.07,5.191 2.07,8.402"
         style="fill:#3d2220;fill-opacity:1;fill-rule:nonzero;stroke:none"
         id="path652" /><path
         d="m 3286.77,932.031 c 0,-1.191 -0.96,-2.152 -2.14,-2.152 -1.18,0 -2.14,0.961 -2.14,2.152 0,1.18 0.96,2.141 2.14,2.141 1.18,0 2.14,-0.961 2.14,-2.141"
         style="fill:#6b5555;fill-opacity:1;fill-rule:nonzero;stroke:none"
         id="path654" /><path
         d="m 3300.14,858.34 c -26.94,6.492 -82.63,-13.188 -83.33,-13.442 1.28,-0.257 2.71,-0.449 3.98,-0.238 0,0 1.56,-2.008 4.76,-4.5 12.71,4.969 46.56,17.379 63.05,15.531 20.54,-2.3 11.54,2.649 11.54,2.649"
         style="fill:#101726;fill-opacity:1;fill-rule:nonzero;stroke:none"
         id="path656" /></g></g></svg>
