<?xml version="1.0" encoding="UTF-8" standalone="no"?>
<svg
   version="1.1"
   id="svg2"
   xml:space="preserve"
   width="149.29115"
   height="108.39314"
   viewBox="0 0 149.29115 108.39314"
   sodipodi:docname="golden retriever.svg"
   inkscape:version="1.1 (c68e22c387, 2021-05-23)"
   xmlns:inkscape="http://www.inkscape.org/namespaces/inkscape"
   xmlns:sodipodi="http://sodipodi.sourceforge.net/DTD/sodipodi-0.dtd"
   xmlns="http://www.w3.org/2000/svg"
   xmlns:svg="http://www.w3.org/2000/svg"
   xmlns:rdf="http://www.w3.org/1999/02/22-rdf-syntax-ns#"
   xmlns:cc="http://creativecommons.org/ns#"
   xmlns:dc="http://purl.org/dc/elements/1.1/"><metadata
     id="metadata8"><rdf:RDF><cc:Work
         rdf:about=""><dc:format>image/svg+xml</dc:format><dc:type
           rdf:resource="http://purl.org/dc/dcmitype/StillImage" /></cc:Work></rdf:RDF></metadata><defs
     id="defs6" /><sodipodi:namedview
     pagecolor="#ffffff"
     bordercolor="#666666"
     borderopacity="1"
     objecttolerance="10"
     gridtolerance="10"
     guidetolerance="10"
     inkscape:pageopacity="0"
     inkscape:pageshadow="2"
     inkscape:window-width="1920"
     inkscape:window-height="1001"
     id="namedview4"
     inkscape:pagecheckerboard="0"
     showgrid="false"
     inkscape:zoom="0.71376665"
     inkscape:cx="377.57438"
     inkscape:cy="436.41714"
     inkscape:window-x="-9"
     inkscape:window-y="-9"
     inkscape:window-maximized="1"
     inkscape:current-layer="g12" /><g
     id="g10"
     inkscape:groupmode="layer"
     inkscape:label="ink_ext_XXXXXX"
     transform="matrix(1.3333333,0,0,-1.3333333,-1.550028,568.81606)"><g
       id="g12"
       transform="scale(0.1)"><path
         d="m 1037.55,3598.28 c -2.29,12.78 -9.45,24.24 -20,32.53 -22.866,17.98 -62.066,55.1 -62.066,98.44 0,116.25 -56.992,173.99 -108.566,205.69 -21.598,13.28 -75.09,18.2 -132.676,19.43 v -218.15 c 9.555,6.25 23.137,3.44 28.387,-6.44 75.66,-142.26 185.609,-90.31 219.777,-123.73 30.535,-29.86 30.856,-73.21 30.453,-88.96 -0.078,-3.05 -3.316,-4.61 -5.8,-4.47 -11.457,0.64 -38.582,0.41 -40.215,-22.21 -1.989,-27.52 81.466,-22.52 97.356,-12.51 11.89,7.49 0.07,82.86 -6.65,120.38"
         style="fill:#ce701b;fill-opacity:1;fill-rule:nonzero;stroke:none"
         id="path868" /><path
         d="m 291.055,3532.46 c 10.527,0.21 17.222,4.29 20.343,14.34 9.219,29.72 9.559,103.64 -13.339,225.77 -32.016,170.75 29.343,168.08 86.703,154.74 57.359,-13.34 78.703,-144.02 28.011,-238.75 -34.453,-64.39 -38.82,-138.85 -51.66,-179.95 -6.05,-19.36 -27.375,-31.36 -35.047,-31.36 -41.3,0 -74.359,-3.08 -69.316,32.21 3.113,21.79 22.496,22.78 34.305,23"
         style="fill:#ce701b;fill-opacity:1;fill-rule:nonzero;stroke:none"
         id="path870" /><path
         d="m 823.691,3954.72 c 0,0 157.782,-7.79 188.459,-92.97 30.68,-85.18 24.01,-97.39 50.69,-131.97 26.68,-34.57 78.7,-81.22 66.7,-111.92 0,0 -32.02,5.76 -37.35,11.98 0,0 -32.02,-2.71 -39.13,8.87 0,0 -58.693,3.58 -79.146,86.29 -20.453,82.7 -58.555,177.54 -150.223,229.72"
         style="fill:#d7752c;fill-opacity:1;fill-rule:nonzero;stroke:none"
         id="path872" /><path
         d="m 1060.15,3590.12 c -2.31,13.63 -9.52,25.85 -20.15,34.7 -23.02,19.16 -62.5,58.75 -62.5,104.96 0,123.95 -57.387,185.52 -109.324,219.33 -51.942,33.8 -201.508,16.88 -238.86,16.67 -37.351,-0.21 -152.07,42.9 -189.418,80.72 -4.488,4.55 -9.253,9.21 -13.992,14.07 -0.515,0.54 -1.789,1.87 -3.808,4.01 -4.606,4.88 -9.125,9.98 -13.239,15.52 l -1.515,0.31 c -23.43,25.48 -61.492,68.48 -72.434,90.36 -16.14,32.28 -68.285,93.09 -119.734,95.11 -51.449,2.02 -85.895,-8.88 -95.16,-25.22 -6.68,-11.77 -24.8871,-35.64 -36.3207,-40.35 -11.4297,-4.71 -69.9453,-15.47 -71.9609,-28.25 -2.01956,-12.77 24.2109,-82.05 59.1836,-79.36 34.973,2.69 92.137,4.04 125.766,-82.72 0,0 0.39,-0.77 1.07,-2.13 -1.668,-10.25 -3.176,-20.18 -4.402,-29.41 -8.895,-66.69 22.89,-105.82 22.89,-105.82 9.781,-68.48 39.574,-80.2 39.574,-80.2 36.016,-81.53 186.305,-112.78 186.305,-112.78 210.223,-26.19 248.199,33.22 292,65.3 9.641,7.06 23.391,3.93 29.031,-6.6 55.34,-103.32 179.942,-96.21 214.348,-131.84 30.75,-31.84 38.04,-86.15 37.64,-102.95 -0.08,-3.25 -3.34,-4.91 -5.84,-4.76 -11.538,0.68 -38.855,0.43 -40.499,-23.68 -2,-29.35 82.039,-24.01 98.039,-13.34 11.98,7.98 0.07,88.35 -6.69,128.35"
         style="fill:#de873f;fill-opacity:1;fill-rule:nonzero;stroke:none"
         id="path874" /><path
         d="m 721.063,3737.96 c -54.52,-23.25 -100.422,-23.33 -156.536,-4.13 -56.183,19.22 -88.242,52.77 -109.621,105.58 -27.695,3.22 -54.648,15.22 -81.769,37.27 -12.391,10.07 -26.813,15.34 -41.367,19.89 -6.622,-2.37 -13.114,-4.2 -19.125,-4.7 -60.715,-5.03 -104.407,36.77 -109.364,71.51 -9.875,-68.84 12.961,-90.76 12.961,-90.76 9.781,-68.48 39.574,-80.2 39.574,-80.2 36.016,-81.53 186.305,-112.78 186.305,-112.78 205.703,-25.62 245.109,30.69 289.121,63.18 -3.519,-1.8 -6.933,-3.47 -10.179,-4.86"
         style="fill:#e29654;fill-opacity:1;fill-rule:nonzero;stroke:none"
         id="path876" /><path
         d="m 1040,3624.82 c -2.36,1.96 -4.92,4.2 -7.57,6.57 -8.74,-3.8 -17.43,-7.5 -25.88,-11.16 -11.277,-4.9 -23.023,-7.68 -34.859,-8.77 2.125,-1.57 4.106,-3.2 5.809,-4.96 30.75,-31.84 38.04,-86.15 37.64,-102.95 -0.08,-3.25 -3.34,-4.91 -5.84,-4.76 -11.538,0.68 -38.855,0.43 -40.499,-23.68 -2,-29.35 82.039,-24.01 98.039,-13.34 11.98,7.98 0.07,88.35 -6.69,128.35 -2.31,13.63 -9.52,25.85 -20.15,34.7"
         style="fill:#e29654;fill-opacity:1;fill-rule:nonzero;stroke:none"
         id="path878" /><path
         d="m 314.176,3508.46 c 10.527,0.2 17.222,4.28 20.344,14.34 9.218,29.71 9.558,103.63 -13.34,225.76 -32.016,170.74 29.343,168.08 86.703,154.74 57.359,-13.34 78.703,-144.02 28.012,-238.75 -34.454,-64.39 -38.821,-138.85 -51.661,-179.95 -6.05,-19.37 -27.375,-31.36 -35.046,-31.36 -41.301,0 -74.36,-3.08 -69.317,32.21 3.113,21.78 22.496,22.78 34.305,23.01"
         style="fill:#de873f;fill-opacity:1;fill-rule:nonzero;stroke:none"
         id="path880" /><path
         d="m 332.461,3679.21 c 11.051,-81.28 9.375,-132.83 2.059,-156.41 -3.122,-10.06 -9.817,-14.14 -20.344,-14.34 -11.809,-0.23 -31.192,-1.23 -34.305,-23.01 -5.043,-35.29 28.016,-32.21 69.317,-32.21 7.671,0 28.996,11.99 35.046,31.36 9.809,31.4 14.719,82.27 31.829,133.24 -32.258,6.74 -59.969,32.33 -83.602,61.37"
         style="fill:#e29654;fill-opacity:1;fill-rule:nonzero;stroke:none"
         id="path882" /><path
         d="m 187.918,4068.23 c -6.637,0 -13.082,2.06 -18.996,6.9 -16.367,13.39 -7.789,61.91 -9.199,80.35 -1.121,14.63 -2.801,29.2 -3.895,43.84 -0.898,12.06 3.559,20.15 10.449,26.34 -3.312,-7.34 -5.953,-16.68 -4.172,-25.87 3.192,-16.5 11.704,-25.09 12.981,-47.75 0.004,0 0.004,0 0.004,-0.01 0,-0.04 0.004,-0.08 0.004,-0.12 0.004,-0.04 0.004,-0.08 0.008,-0.12 0,0 0,-0.01 0,-0.02 0.226,-4.25 0.203,-9 -0.161,-14.38 -1.562,-23.24 -5.843,-44.35 -0.378,-51.52 1.281,-1.68 3.089,-2.59 5.593,-2.59 2.598,0 5.942,0.98 10.207,3.12 18.844,9.43 58.18,42.65 74.676,73.31 0.613,-13.3 -2.309,-26.72 -9.992,-39.79 -11.297,-19.21 -40.742,-51.7 -67.129,-51.69"
         style="fill:#d67837;fill-opacity:1;fill-rule:nonzero;stroke:none"
         id="path884" /><path
         d="m 11.7344,4172.06 c -0.9102,-5.77 3.9804,-23.06 12.7929,-40.04 9.0118,4.13 16.2344,9.31 20.4532,22.8 1.789,5.73 -1.0586,23.25 -8.7227,31.87 -12.9805,-4.33 -23.6836,-9.3 -24.5234,-14.63"
         style="fill:#532a22;fill-opacity:1;fill-rule:nonzero;stroke:none"
         id="path886" /><path
         d="m 139.852,4193.92 c 0,0 -22.192,11.43 -25.219,12.44 -3.028,1.01 -12.778,-9.08 -5.715,-14.46 7.059,-5.38 25.555,-2.02 30.934,2.02"
         style="fill:#3b3536;fill-opacity:1;fill-rule:nonzero;stroke:none"
         id="path888" /><path
         d="m 174.672,4239.74 c 0,0 -16.371,-20.31 -12.567,-39.95 3.801,-19.65 15.145,-28.08 12.836,-62.4 -2.304,-34.31 -10.546,-63.99 15.422,-50.99 25.973,12.99 90.887,71.2 81.242,105.6 -9.64,34.39 -51.902,33.63 -63.558,45.41 -12.992,13.13 -30.031,7.04 -33.375,2.33"
         style="fill:#de873f;fill-opacity:1;fill-rule:nonzero;stroke:none"
         id="path890" /><path
         d="m 174.563,4085.87 c -5.465,7.17 -1.184,28.28 0.378,51.52 0.364,5.38 0.387,10.13 0.161,14.38 0.226,-4.25 0.203,-9 -0.161,-14.38 -1.562,-23.24 -5.843,-44.35 -0.378,-51.52 m 0.539,65.92 c -0.004,0.04 -0.004,0.08 -0.008,0.12 0.004,-0.04 0.004,-0.08 0.008,-0.12 m -0.012,0.24 c 0,0.01 0,0.01 -0.004,0.01 0.004,0 0.004,0 0.004,-0.01"
         style="fill:#d47334;fill-opacity:1;fill-rule:nonzero;stroke:none"
         id="path892" /><path
         d="m 180.156,4083.28 c -2.504,0 -4.312,0.91 -5.593,2.59 -5.465,7.17 -1.184,28.28 0.378,51.52 0.364,5.38 0.387,10.13 0.161,14.38 0,0.01 0,0.02 0,0.02 -0.004,0.04 -0.004,0.08 -0.008,0.12 0,0.04 -0.004,0.08 -0.004,0.12 0,0.01 0,0.01 -0.004,0.01 -1.262,22.43 -9.606,31.09 -12.871,47.26 3.699,-6.6 6.848,-13.59 10.086,-20.19 12.57,-25.61 32.726,-39.77 57.457,-39.77 7.648,0 15.738,1.36 24.172,4.14 l 0.683,0.29 c -19.105,-25.46 -48.656,-49.57 -64.25,-57.37 -4.265,-2.14 -7.609,-3.12 -10.207,-3.12"
         style="fill:#dc813c;fill-opacity:1;fill-rule:nonzero;stroke:none"
         id="path894" /><path
         d="m 127.141,4117.41 c -8.743,12.14 -4.012,-13.56 -42.7347,-17.69 -20.8594,-2.22 -35.9336,3.08 -40.4883,5.1 8.0234,-7.82 17.1406,-12.87 27,-12.12 8.7109,0.67 18.7968,1.26 29.555,0.42 17.136,4.15 35.082,12.6 26.668,24.29"
         style="fill:#1b2225;fill-opacity:1;fill-rule:nonzero;stroke:none"
         id="path896" /></g></g></svg>
