<?xml version="1.0" encoding="UTF-8" standalone="no"?>
<svg
   version="1.1"
   id="svg2"
   xml:space="preserve"
   width="105.07921"
   height="85.604813"
   viewBox="0 0 105.07921 85.604812"
   sodipodi:docname="jack russell terrier.svg"
   inkscape:version="1.1 (c68e22c387, 2021-05-23)"
   xmlns:inkscape="http://www.inkscape.org/namespaces/inkscape"
   xmlns:sodipodi="http://sodipodi.sourceforge.net/DTD/sodipodi-0.dtd"
   xmlns="http://www.w3.org/2000/svg"
   xmlns:svg="http://www.w3.org/2000/svg"
   xmlns:rdf="http://www.w3.org/1999/02/22-rdf-syntax-ns#"
   xmlns:cc="http://creativecommons.org/ns#"
   xmlns:dc="http://purl.org/dc/elements/1.1/"><metadata
     id="metadata8"><rdf:RDF><cc:Work
         rdf:about=""><dc:format>image/svg+xml</dc:format><dc:type
           rdf:resource="http://purl.org/dc/dcmitype/StillImage" /></cc:Work></rdf:RDF></metadata><defs
     id="defs6" /><sodipodi:namedview
     pagecolor="#ffffff"
     bordercolor="#666666"
     borderopacity="1"
     objecttolerance="10"
     gridtolerance="10"
     guidetolerance="10"
     inkscape:pageopacity="0"
     inkscape:pageshadow="2"
     inkscape:window-width="1920"
     inkscape:window-height="1001"
     id="namedview4"
     inkscape:pagecheckerboard="0"
     showgrid="false"
     inkscape:zoom="1.4275333"
     inkscape:cx="187.38617"
     inkscape:cy="122.93934"
     inkscape:window-x="-9"
     inkscape:window-y="-9"
     inkscape:window-maximized="1"
     inkscape:current-layer="g12" /><g
     id="g10"
     inkscape:groupmode="layer"
     inkscape:label="ink_ext_XXXXXX"
     transform="matrix(1.3333333,0,0,-1.3333333,-18.31601,397.53244)"><g
       id="g12"
       transform="scale(0.1)"><path
         d="m 409.793,2629.58 c -9.535,22.07 -28.023,33.43 -51.801,29.91 -15.551,-2.3 -31.762,-9.44 -25.804,-29.91 10.703,-36.79 32.781,-77.37 37.464,-122.98 4.684,-45.61 -0.668,-96.46 -8.027,-100.47 -7.359,-4.02 -36.437,-9.62 -35.293,-29.02 1.145,-19.4 15.055,-19.82 50.672,-19.82 28.766,0 37.699,117.08 40.375,143.84 1.93,19.3 10.324,87 -7.586,128.45"
         style="fill:#c1ab94;fill-opacity:1;fill-rule:nonzero;stroke:none"
         id="path522" /><path
         d="m 788.738,2653.75 c 0,0 -74.605,-48.18 -68.347,-78.29 6.257,-30.1 57.703,-84.79 105.113,-103.86 12.055,-4.85 -11.008,-88.51 -16.024,-89.51 -5.019,-1 -32.617,-3.51 -27.597,-22.08 3.211,-11.88 31.082,-8.86 49.359,-8.86 13.696,0 17.438,8.91 20.164,19.39 6.071,23.32 16.84,65.94 21.555,92.35 1.711,9.59 -1.723,19.28 -9.016,25.74 -12.172,10.78 -29.453,29 -26.367,43.32 4.684,21.75 30.168,96.64 29.336,117.95 0,0 -52.559,14.82 -78.176,3.85"
         style="fill:#c1ab94;fill-opacity:1;fill-rule:nonzero;stroke:none"
         id="path524" /><path
         d="m 842.32,2718.97 c 0,0 -62.722,37.63 -182.14,14.05 0,0 -146.875,-0.65 -193.707,20.85 -11.657,5.35 -61.77,98.33 -60.832,93.45 0,0 -35.618,90.6 -48.86,102.37 -13.242,11.78 -59.07,30.85 -107.644,14.3 -48.571,-16.54 -32.235,-21.63 -35.992,-30.68 -3.754,-9.05 -34.223,-30.19 -54.754,-37.69 -20.536,-7.5 -26.719,-19.42 -15.465,-38.63 11.254,-19.21 28.687,-44.16 71.519,-33.79 21.922,5.3 40.293,-6.59 54.426,-20.24 5.637,-5.44 11.317,-11.62 16.375,-18.31 11.18,-14.79 10.817,-94.77 13.742,-124.53 3.887,-39.49 20.309,-82.29 70.664,-107.93 88.313,-44.96 147.52,-41.95 286.008,9.22 0,0 85.301,22.08 100.356,-1 15.05,-23.08 115.406,-7.97 133.472,45.69 18.063,53.66 3.012,62.69 -47.168,112.87"
         style="fill:#e5d8c7;fill-opacity:1;fill-rule:nonzero;stroke:none"
         id="path526" /><path
         d="m 828.27,2715.96 c 0,0 43.152,28.1 52.183,74.26 9.035,46.17 -1.004,87.31 13.047,82.29 14.051,-5.01 53.188,-43.35 17.063,-105.47 -36.129,-62.12 -39.141,-52.94 -46.165,-83.12 l -36.128,32.04"
         style="fill:#e5d8c7;fill-opacity:1;fill-rule:nonzero;stroke:none"
         id="path528" /><path
         d="m 913.496,2772.68 c -2.367,16.62 -9.723,31.96 -30.449,34.67 -0.621,-5.57 -1.453,-11.31 -2.594,-17.13 -9.031,-46.16 -52.183,-74.26 -52.183,-74.26 l 36.128,-32.04 c 7.024,30.18 10.036,21 46.165,83.12 1.117,1.93 1.957,3.76 2.933,5.64"
         style="fill:#cd774d;fill-opacity:1;fill-rule:nonzero;stroke:none"
         id="path530" /><path
         d="m 485.68,2520.6 c -17.461,0 -34.02,2.04 -50.59,6.12 16.57,-4.08 33.129,-6.12 50.59,-6.12 45.109,0 96.324,13.59 169.98,40.81 0,0 36.488,9.45 65.945,9.53 v 0 c -29.457,-0.08 -65.945,-9.53 -65.945,-9.53 -73.656,-27.22 -124.871,-40.81 -169.98,-40.81"
         style="fill:#e5d8c7;fill-opacity:1;fill-rule:nonzero;stroke:none"
         id="path532" /><path
         d="m 756.383,2559.88 c -0.004,0.01 -0.008,0.01 -0.012,0.02 0.004,-0.01 0.008,-0.01 0.012,-0.02 m -0.051,0.07 c -0.004,0.01 -0.008,0.01 -0.012,0.02 0.004,-0.01 0.008,-0.01 0.012,-0.02 m -0.117,0.17 c -0.008,0.01 -0.02,0.02 -0.027,0.04 0.007,-0.02 0.019,-0.03 0.027,-0.04 m -0.051,0.07 c -0.008,0.01 -0.019,0.03 -0.027,0.04 0.008,-0.01 0.019,-0.03 0.027,-0.04 m -0.051,0.07 c -0.008,0.02 -0.019,0.04 -0.031,0.05 0.012,-0.01 0.023,-0.03 0.031,-0.05 m -0.047,0.08 c -0.015,0.02 -0.035,0.05 -0.05,0.07 v 0 0 c 0.015,-0.02 0.031,-0.05 0.05,-0.07 m -34.461,10.6 v 0 c 0.122,0 0.247,0 0.368,0 v 0 c -0.121,0 -0.246,0 -0.368,0"
         style="fill:#ae9377;fill-opacity:1;fill-rule:nonzero;stroke:none"
         id="path534" /><path
         d="m 485.68,2520.6 c -17.461,0 -34.02,2.04 -50.59,6.12 -21.113,5.19 -42.277,13.68 -65.438,25.47 -37.672,19.19 -56.261,47.96 -64.886,77.76 14.808,-6.28 31.55,-9.81 48.379,-11.08 1.777,-0.13 3.558,-0.19 5.347,-0.19 10.18,0 20.485,1.92 30.52,2.91 0.672,0.06 1.363,0.08 2.062,0.08 0.352,0 0.711,0 1.067,-0.01 10.281,-9.1 19.961,-19.12 30.902,-27.3 17.402,-13.02 37.055,-22.7 57.559,-29.6 10.582,-3.56 21.406,-5.05 32.328,-5.05 39.129,0 79.539,19.11 114.742,30.47 23.078,7.45 44.676,18.06 68.062,18.06 6.493,0 13.129,-0.82 19.969,-2.75 27.707,-7.83 36.301,-24.96 53.68,-44.88 3.414,-3.91 6.941,-7.3 10.562,-10.26 -11.078,1.03 -19.687,4.21 -23.562,9.53 -0.004,0.01 -0.008,0.01 -0.012,0.02 -0.012,0.01 -0.023,0.03 -0.039,0.05 -0.004,0.01 -0.008,0.01 -0.012,0.02 -0.035,0.05 -0.07,0.1 -0.105,0.15 -0.008,0.01 -0.02,0.02 -0.027,0.04 -0.008,0.01 -0.016,0.02 -0.024,0.03 -0.008,0.01 -0.019,0.03 -0.027,0.04 -0.008,0.01 -0.016,0.02 -0.024,0.03 -0.008,0.02 -0.019,0.04 -0.031,0.05 -0.008,0.01 -0.012,0.02 -0.016,0.03 -0.019,0.02 -0.035,0.05 -0.05,0.07 v 0 c -5.168,7.93 -18.61,10.53 -34.043,10.53 v 0 0 c -0.121,0 -0.246,0 -0.368,0 -29.457,-0.08 -65.945,-9.53 -65.945,-9.53 -73.656,-27.22 -124.871,-40.81 -169.98,-40.81"
         style="fill:#d0b99f;fill-opacity:1;fill-rule:nonzero;stroke:none"
         id="path536" /><path
         d="m 895.379,2627.97 c 6.594,35.47 -10.621,48.56 -53.059,91 0,0 -30.043,17.98 -88.054,21.28 11.101,-7.72 19.945,-19.34 27.363,-30.94 10.711,-16.76 20.766,-35.05 37.609,-45.62 18.5,-11.62 42.52,-12.09 60.508,-24.48 5.293,-3.64 9.957,-8.23 15.633,-11.24"
         style="fill:#cd774d;fill-opacity:1;fill-rule:nonzero;stroke:none"
         id="path538" /><path
         d="m 708.754,2662.87 c 3.535,-1.86 7.125,-3.74 11.027,-4.58 11.266,-2.44 22.961,4.5 29.301,14.12 6.34,9.63 8.344,21.43 9.496,32.9 0.184,1.83 0.348,3.7 0.039,5.52 -1.363,8.03 -11.043,11.75 -19.179,11.44 -13.04,-0.5 -24.926,-7.19 -36.227,-13.7 -6.996,-4.03 -14.633,-8.89 -16.527,-16.74 -1.539,-6.38 1.347,-13.18 5.843,-17.97 4.496,-4.79 10.418,-7.94 16.227,-10.99"
         style="fill:#cd774d;fill-opacity:1;fill-rule:nonzero;stroke:none"
         id="path540" /><path
         d="m 662.574,2693.23 c -12.066,15.46 -27.14,29.17 -44.371,38.25 -5.129,-0.11 -10.605,1.04 -16.305,2.84 -23.5,1 -50.847,2.78 -75.722,5.92 -5.563,-11.98 -10.156,-26.96 -13.5,-33.92 -6.102,-12.71 -7.223,-28.25 -0.828,-40.81 7.535,-14.8 23.636,-23.02 39.246,-28.69 15.609,-5.66 32.273,-10.04 44.965,-20.75 9.054,-7.64 17.152,-18.88 29,-19 8.671,-0.1 16.089,6.1 21.789,12.64 12.484,14.32 20.98,32.08 24.304,50.79 1.028,5.77 1.563,11.78 0.047,17.44 -1.519,5.69 -5,10.65 -8.625,15.29"
         style="fill:#cd774d;fill-opacity:1;fill-rule:nonzero;stroke:none"
         id="path542" /><path
         d="m 432.863,2722.88 c -7.386,-3.48 -11.3,-11.65 -13.449,-19.53 -1.758,-6.44 -2.711,-13.35 -0.836,-19.77 1.875,-6.41 7.129,-12.17 13.758,-12.99 3.887,-0.48 7.769,0.72 11.68,0.92 4.554,0.23 9.175,-0.94 13.07,-3.32 4.824,-2.96 8.402,-7.6 13.105,-10.75 4.704,-3.14 11.618,-4.4 15.657,-0.44 1.394,4.11 -0.672,8.48 -1.418,12.74 -1.348,7.69 1.66,15.46 1.765,23.27 0.192,13.71 -9.683,26.93 -22.882,30.64 -5.454,1.54 -11.2,1.57 -16.864,1.47 -4.625,-0.08 -9.402,-0.27 -13.586,-2.24"
         style="fill:#cd774d;fill-opacity:1;fill-rule:nonzero;stroke:none"
         id="path544" /><path
         d="m 521.297,2611.56 c -0.41,6.68 -2.547,13.9 -8.195,17.48 -4.188,2.65 -9.442,2.75 -14.399,2.78 -5.754,0.02 -11.508,0.05 -17.262,0.07 -2.789,0.02 -6.128,-0.28 -7.441,-2.74 -1.129,-2.1 -0.113,-4.69 1.066,-6.76 6.747,-11.87 19.204,-20.31 32.727,-22.17 4.312,-0.6 9.426,-0.22 11.949,3.33 1.613,2.26 1.723,5.24 1.555,8.01"
         style="fill:#cd774d;fill-opacity:1;fill-rule:nonzero;stroke:none"
         id="path546" /><path
         d="m 368.484,2802.45 c -6.668,-4.38 -11.957,-10.95 -15.468,-18.11 -3.508,-7.16 -2.332,-17.6 4.968,-20.81 6.543,-2.87 15.184,1.15 20.832,-3.23 2.516,-1.96 3.711,-5.12 4.739,-8.14 1.957,-5.76 3.789,-11.75 7.64,-16.46 3.852,-4.71 10.344,-7.86 16.102,-5.88 8.246,2.83 10.129,13.39 15.098,20.56 3.543,5.1 9.14,8.73 15.242,9.88 0.035,0.01 10.121,2.21 19.191,4.13 -13.125,17.99 -33.648,53.97 -44.285,72.11 -4.051,5.42 -6.613,9.32 -6.902,10.82 0,0 -0.758,1.72 -1.996,4.51 -3.829,-6.52 -11.582,-33.93 -35.161,-49.38"
         style="fill:#cd774d;fill-opacity:1;fill-rule:nonzero;stroke:none"
         id="path548" /><path
         d="m 788.105,2671.65 c -10.031,0.82 -21.273,0.45 -28.523,-6.54 -2.293,-2.21 -4.105,-5.29 -3.633,-8.44 0.742,-4.94 6.535,-7.44 11.524,-7.46 4.988,-0.02 10.007,1.5 14.91,0.57 6.586,-1.26 11.922,-6.76 18.601,-7.33 1.36,-0.12 2.77,-0.01 4.008,0.55 3.035,1.4 4.246,5.33 3.461,8.58 -0.781,3.25 -3.101,5.9 -5.562,8.16 -7.407,6.8 -4.762,11.09 -14.786,11.91"
         style="fill:#cd774d;fill-opacity:1;fill-rule:nonzero;stroke:none"
         id="path550" /><path
         d="m 818.57,2642.41 c 0,0 -74.789,-53.79 -62.554,-82 12.043,-27.76 86.304,-89.6 98.347,-94.47 12.043,-4.88 -10.035,-94.19 -15.054,-95.2 -5.016,-1 -32.614,-3.51 -27.598,-22.07 3.215,-11.89 31.086,-8.87 49.363,-8.87 13.696,0 17.434,8.92 20.164,19.4 6.071,23.32 16.84,65.93 21.555,92.34 1.711,9.59 -1.723,19.28 -9.016,25.74 -12.172,10.78 -29.453,29.01 -26.371,43.32 4.688,21.75 30.172,96.65 29.336,117.95 0,0 -52.554,14.83 -78.172,3.86"
         style="fill:#e5d8c7;fill-opacity:1;fill-rule:nonzero;stroke:none"
         id="path552" /><path
         d="m 432.543,2612.43 c -9.535,22.06 -28.027,33.43 -51.805,29.91 -15.55,-2.3 -31.761,-9.44 -25.804,-29.91 10.707,-36.8 32.781,-77.38 37.464,-122.99 4.684,-45.61 -0.668,-96.45 -8.027,-100.47 -7.359,-4.01 -36.433,-9.61 -35.293,-29.02 1.145,-19.4 15.055,-19.82 50.672,-19.82 28.77,0 37.699,117.08 40.375,143.85 1.934,19.3 10.324,87 -7.582,128.45"
         style="fill:#e5d8c7;fill-opacity:1;fill-rule:nonzero;stroke:none"
         id="path554" /><path
         d="m 382.207,2906.81 c -9.519,19.19 -19.621,37.72 -25.426,42.88 -13.242,11.78 -59.07,30.85 -107.644,14.3 -48.571,-16.54 -32.235,-21.63 -35.992,-30.68 l -0.856,-1.46 c 0.488,-4.92 0.301,-9.66 -1.406,-13.75 -0.406,-0.97 -1.168,-1.77 -2.129,-2.5 -4.625,-3.52 -17.465,-14.88 -10.688,-21.94 12.375,-12.91 22.5,-37.88 36.77,-48.65 41.746,-31.53 97.066,-33.07 109.926,-33.07 14.441,0 28.531,27.11 34.402,36.55 8.254,13.26 9.977,40.48 3.043,58.32"
         style="fill:#cd774d;fill-opacity:1;fill-rule:nonzero;stroke:none"
         id="path556" /><path
         d="m 317.793,2825.25 c -12.168,0 -23.012,8.23 -26.059,20.26 -2.507,9.91 -4.414,18.57 -4.656,22.57 -1.105,18.26 -0.187,44.74 -3.105,62.95 -0.586,3.69 -5.008,32.76 -2.5,35.34 1.113,1.14 2.015,2.32 2.832,3.52 3.293,0.35 6.519,0.4 9.726,0.42 26.418,-1.14 48.305,-10.22 59.164,-17.85 1.293,-0.94 2.598,-1.89 3.586,-2.77 l 2.098,-2.24 0.684,-0.85 1.828,-2.45 0.664,-0.93 c 0.758,-1.11 1.558,-2.34 2.371,-3.63 l 1.402,-2.28 1.176,-1.97 c 2.07,-3.5 4.25,-7.4 6.488,-11.58 l 0.008,-0.02 c -3.055,-9.34 -3.949,-19.22 -4.387,-30.31 -0.566,-14.35 -8.5,-36.13 -19.097,-45.5 -0.164,0.03 -0.332,0.05 -0.5,0.05 -2.543,0 -5.407,-4.01 -8.278,-9.23 -4.101,-7.46 -11.683,-12.38 -20.144,-13.3 l -0.383,-0.04 c -0.981,-0.11 -1.949,-0.16 -2.918,-0.16"
         style="fill:#c0633f;fill-opacity:1;fill-rule:nonzero;stroke:none"
         id="path558" /><path
         d="m 153.828,2893.65 c -13.601,-6.16 -19.008,-14.95 -14.969,-27.53 7.055,2.94 13.926,6.93 18.2,10.07 6.296,4.63 2.039,11.81 -3.231,17.46"
         style="fill:#101726;fill-opacity:1;fill-rule:nonzero;stroke:none"
         id="path560" /><path
         d="m 243.387,2915.87 c 0,0 -15.895,11.92 -18.395,11.04 -2.504,-0.88 -11.629,-10.6 -6.183,-15.6 5.441,-5.01 17.511,-1.18 24.578,4.56"
         style="fill:#331d2f;fill-opacity:1;fill-rule:nonzero;stroke:none"
         id="path562" /><path
         d="m 165.996,2829.62 c 1.231,-0.85 2.524,-1.64 3.856,-2.39 14.769,0.3 35.285,4.81 65.011,5.96 15.297,0.59 -11.211,9.58 -23.015,6.59 -8.735,-2.21 -33.496,-7.53 -45.852,-10.16"
         style="fill:#101726;fill-opacity:1;fill-rule:nonzero;stroke:none"
         id="path564" /><path
         d="m 235.207,2917.16 c 0.223,1.68 0.031,3.25 -0.352,4.73 -4.207,2.81 -8.636,5.45 -9.863,5.02 -1.179,-0.42 -3.801,-2.81 -5.703,-5.73 l -0.551,-1.83 c -0.539,-4.05 0.91,-7.72 3.383,-9.77 2.621,-0.8 5.793,-0.66 9.074,0.19 2.035,1.66 3.59,4.23 4.012,7.39"
         style="fill:#402217;fill-opacity:1;fill-rule:nonzero;stroke:none"
         id="path566" /><path
         d="m 226.066,2920.32 c -0.199,-1.49 -1.562,-2.53 -3.046,-2.33 -1.485,0.19 -2.532,1.56 -2.332,3.04 0.199,1.49 1.558,2.53 3.046,2.33 1.485,-0.19 2.528,-1.56 2.332,-3.04"
         style="fill:#fbfbfa;fill-opacity:1;fill-rule:nonzero;stroke:none"
         id="path568" /><path
         d="m 286.172,2971.08 c 1.516,5.98 4.223,12.88 9.414,9.54 6,-3.86 19.484,-13 28.086,-14.1 14.898,-1.91 23.98,-4.14 26.695,-6.07 2.715,-1.93 38.117,-14.28 28.426,-32.82 -9.691,-18.54 -33.453,-95.9 -58.734,-87.65 -6.289,2.06 -32.36,83.62 -33.321,101.88 -0.508,9.63 -2.75,20.58 -0.566,29.22"
         style="fill:#cd774d;fill-opacity:1;fill-rule:nonzero;stroke:none"
         id="path570" /></g></g></svg>
