<?xml version="1.0" encoding="UTF-8" standalone="no"?>
<svg
   version="1.1"
   id="svg2"
   xml:space="preserve"
   width="99.238457"
   height="75.919655"
   viewBox="0 0 99.238457 75.919654"
   sodipodi:docname="mops.svg"
   inkscape:version="1.1 (c68e22c387, 2021-05-23)"
   xmlns:inkscape="http://www.inkscape.org/namespaces/inkscape"
   xmlns:sodipodi="http://sodipodi.sourceforge.net/DTD/sodipodi-0.dtd"
   xmlns="http://www.w3.org/2000/svg"
   xmlns:svg="http://www.w3.org/2000/svg"
   xmlns:rdf="http://www.w3.org/1999/02/22-rdf-syntax-ns#"
   xmlns:cc="http://creativecommons.org/ns#"
   xmlns:dc="http://purl.org/dc/elements/1.1/"><metadata
     id="metadata8"><rdf:RDF><cc:Work
         rdf:about=""><dc:format>image/svg+xml</dc:format><dc:type
           rdf:resource="http://purl.org/dc/dcmitype/StillImage" /></cc:Work></rdf:RDF></metadata><defs
     id="defs6" /><sodipodi:namedview
     pagecolor="#ffffff"
     bordercolor="#666666"
     borderopacity="1"
     objecttolerance="10"
     gridtolerance="10"
     guidetolerance="10"
     inkscape:pageopacity="0"
     inkscape:pageshadow="2"
     inkscape:window-width="1920"
     inkscape:window-height="1001"
     id="namedview4"
     inkscape:pagecheckerboard="0"
     showgrid="false"
     inkscape:zoom="1.4275333"
     inkscape:cx="-309.97526"
     inkscape:cy="271.44726"
     inkscape:window-x="-9"
     inkscape:window-y="-9"
     inkscape:window-maximized="1"
     inkscape:current-layer="g12" /><g
     id="g10"
     inkscape:groupmode="layer"
     inkscape:label="ink_ext_XXXXXX"
     transform="matrix(1.3333333,0,0,-1.3333333,-454.90655,536.34216)"><g
       id="g12"
       transform="scale(0.1)"><path
         d="m 4123.85,3576.41 c 0,0 -72.77,21.05 -45.05,95.27 9.65,25.84 14.34,47.68 16.43,65.32 h -148.18 v -66.16 c 73.77,-116.92 133.42,-117.08 138.03,-133.31 4.62,-16.24 -3.97,-37.19 -10.51,-37.56 -1.57,-0.09 -3.85,0.26 -6.49,0.62 -8.41,1.13 -20.41,2.26 -23.93,-10.96 -4.62,-17.36 16.22,-20.68 16.22,-20.68 90.52,0 63.48,107.46 63.48,107.46"
         style="fill:#c4b8a0;fill-opacity:1;fill-rule:nonzero;stroke:none"
         id="path366" /><path
         d="m 3612.68,3537.8 c 0,0 -2.94,93.89 -22.12,152.47 -19.17,58.58 4.72,123.25 75.69,111.71 70.96,-11.53 7.48,-122.28 0,-175.35 -7.49,-53.07 -10.37,-64.61 -14.41,-76.72 -3.57,-10.71 -17.52,-64.3 -41.05,-76.53 -3.08,-1.6 -32.7,-1.31 -38.95,1.65 -7.55,3.57 -10.14,9.72 -8.25,19.51 3.46,17.88 21.92,11.53 28.84,13.84 6.92,2.3 19.25,18.5 20.25,29.42"
         style="fill:#c4b8a0;fill-opacity:1;fill-rule:nonzero;stroke:none"
         id="path368" /><path
         d="m 4155.4,3545.71 c -1.04,10.86 -7.42,20.31 -16.95,25.64 -19.59,10.97 -50.76,37.93 -31.05,92.96 27.69,77.3 15,121.14 15,121.14 -28.84,133.82 -169.59,109.6 -231.88,100.37 -62.3,-9.23 -155.75,-10.39 -181.13,0 -5.59,2.29 -56.16,75.35 -94.61,102.08 -38.44,26.73 -104.85,62.39 -152.62,0 0,0 -18.64,-13.03 -24.75,-34.87 0,0 -17.04,-10.92 -19.66,-26.22 0,0 -16.17,-9.61 4.8,-34.51 20.97,-24.9 42.38,-27.96 53.3,-32.33 7.12,-2.85 8.3,-14.94 7.84,-21.21 -1.57,-21.76 2.59,-26.31 7.83,-39.78 3.84,-65.15 18.64,-100.33 86.35,-146.2 71.53,-48.46 133.83,-44.99 238.81,-41.53 104.99,3.46 158.82,52.68 158.82,52.68 73.84,-122.29 132.29,-114.21 136.9,-131.13 4.62,-16.92 -2.69,-46.92 -9.23,-47.3 -1.56,-0.09 -3.84,0.27 -6.47,0.64 -8.41,1.18 -20.39,2.35 -23.91,-11.41 -1.64,-6.43 0.02,-12.83 5.45,-16.86 5.67,-4.22 12.71,-4.73 19.53,-4.7 7.43,0.04 14.98,-0.13 22.32,1.18 34.61,6.15 37.9,64.31 35.31,91.36"
         style="fill:#ddd2c1;fill-opacity:1;fill-rule:nonzero;stroke:none"
         id="path370" /><path
         d="m 3958.07,3789.77 c -2.82,10.53 -20.97,28.41 -23.27,39.15 -4.47,20.9 -3.8,42.29 0.83,62.82 5.61,0.54 11.5,0.91 17.4,1.24 -12.91,-46.68 7.98,-56.93 8.43,-82.43 0.14,-7.5 -1.28,-14.3 -3.39,-20.78"
         style="fill:#d1c1ae;fill-opacity:1;fill-rule:nonzero;stroke:none"
         id="path372" /><path
         d="m 3800.5,3878.66 c 0,0 0,0.01 0,0.01 8.45,0.19 17.05,0.52 25.67,0.97 v 0 c -8.61,-0.46 -17.22,-0.78 -25.67,-0.98"
         style="fill:#f0ebe3;fill-opacity:1;fill-rule:nonzero;stroke:none"
         id="path374" /><path
         d="m 3761.69,3720.68 c 8.49,26.71 38.35,65.7 41.6,94.2 2.75,24.07 0.66,45.17 -2.79,63.78 8.45,0.2 17.06,0.52 25.67,0.98 0.38,-11.68 1.05,-23.36 1.19,-34.84 0.58,-46.83 -26.77,-95 -65.67,-124.12"
         style="fill:#d1c1ae;fill-opacity:1;fill-rule:nonzero;stroke:none"
         id="path376" /><path
         d="m 3574.93,3844.17 c -0.11,0 1.57,0.13 5.04,0.4 3.62,8.07 16.08,12.76 21.55,19.55 8.36,10.39 11.37,22.97 19.81,33.3 13.31,16.28 23.71,34.42 33.56,52.9 1.49,-1.64 2.97,-3.3 4.44,-4.96 -15.33,-43.47 -30.02,-87.97 -78.25,-100.76 -3.99,-0.29 -6.04,-0.43 -6.15,-0.43"
         style="fill:#d1c1ae;fill-opacity:1;fill-rule:nonzero;stroke:none"
         id="path378" /><path
         d="m 3761.69,3878.81 c -6.7,0.24 -13.06,0.59 -18.94,1.06 0.01,0.01 0.02,0.02 0.03,0.03 5.89,-0.47 12.18,-0.85 18.91,-1.09 v 0"
         style="fill:#f0ebe3;fill-opacity:1;fill-rule:nonzero;stroke:none"
         id="path380" /><path
         d="m 3698.01,3780.91 c -0.91,29.84 25.07,71.09 44.74,98.96 5.88,-0.47 12.24,-0.82 18.94,-1.06 -6.25,-7.06 -12.6,-14.01 -17.86,-21.3 -11.94,-16.55 -24.94,-39.69 -45.82,-76.6"
         style="fill:#d1c1ae;fill-opacity:1;fill-rule:nonzero;stroke:none"
         id="path382" /><path
         d="m 3706.6,3888.32 c -2.96,3.18 -7.76,9.16 -13.83,16.73 v 0 c 6.11,-7.61 10.88,-13.54 13.83,-16.72 0,-0.01 0,-0.01 0,-0.01"
         style="fill:#f0ebe3;fill-opacity:1;fill-rule:nonzero;stroke:none"
         id="path384" /><path
         d="m 3633.11,3807.65 c -4.58,0 -9.06,0.88 -13.5,2.25 15.37,2.31 30.57,12.72 39.72,21.59 20.22,19.61 24.29,47.95 33.44,73.56 6.07,-7.57 10.87,-13.55 13.83,-16.73 -10.68,-32.67 -28.27,-64.93 -60.45,-78.09 -4.46,-1.83 -8.79,-2.59 -13.04,-2.58"
         style="fill:#d1c1ae;fill-opacity:1;fill-rule:nonzero;stroke:none"
         id="path386" /><path
         d="m 3488.15,3807.13 c -3.11,7.42 -5.14,13.64 -4.67,26.88 1.73,-0.17 3.46,-0.26 5.18,-0.26 4.8,0 9.52,0.7 14.01,2.35 12.86,4.75 23.57,10.48 34.36,19.07 5.58,4.44 24.63,17.44 30.39,17.44 2.98,0 2.41,-3.47 -5.38,-13.37 -20.59,-26.16 -50.15,-32.91 -73.89,-52.11"
         style="fill:#d1c1ae;fill-opacity:1;fill-rule:nonzero;stroke:none"
         id="path388" /><path
         d="m 3561.56,3890.74 c -33.1,0 -19.18,32.72 -13.11,61.21 2.65,12.44 -5.8,23.08 3.13,28.48 0.53,-1.74 1.34,-3.59 2.48,-5.56 1.53,-2.65 2.44,-7.21 3.01,-12.69 h -0.01 c 1.55,-15.1 0.44,-37.27 2.4,-46.16 0,-0.01 0,-0.01 0,-0.01 0.01,-0.02 0.01,-0.04 0.02,-0.06 0,-0.01 0,-0.02 0,-0.02 0.01,-0.02 0.01,-0.03 0.01,-0.05 0,0 0.01,-0.02 0.01,-0.02 0,-0.01 0,-0.02 0,-0.03 0.01,-0.03 0.02,-0.05 0.02,-0.08 0,0 0,-0.01 0.01,-0.02 0,-0.01 0,-0.03 0.01,-0.05 v 0 c 0.18,-0.77 0.39,-1.43 0.63,-1.97 2.66,-5.96 7.49,-8.7 13.41,-8.7 3.26,0 6.85,0.83 10.6,2.41 9.5,4.01 19.99,12.84 28.56,25.21 0.27,0.37 0.53,0.76 0.79,1.14 0.1,0.16 0.21,0.32 0.31,0.47 0.03,0.05 0.06,0.09 0.09,0.13 0,0.01 0.01,0.02 0.01,0.03 0.03,0.03 0.05,0.07 0.08,0.11 0.01,0.01 0.02,0.03 0.03,0.04 0.02,0.04 0.04,0.07 0.05,0.09 1.11,1.72 2.03,3.43 2.79,5.15 5.24,-26.67 -18.38,-45.07 -47.67,-48.56 -2.8,-0.33 -5.34,-0.49 -7.66,-0.49"
         style="fill:#d1c1ae;fill-opacity:1;fill-rule:nonzero;stroke:none"
         id="path390" /><path
         d="m 3881.03,3619.75 c 3.08,0.75 6.1,1.52 9.03,2.32 -1.41,-0.38 -2.83,-0.76 -4.27,-1.13 -1.57,-0.4 -3.16,-0.8 -4.76,-1.19 m -278.24,18.02 c -8.23,4.34 -16.51,9.32 -24.92,15.01 -0.07,0.05 -0.16,0.11 -0.24,0.16 0.08,-0.05 0.17,-0.11 0.24,-0.16 8.41,-5.69 16.69,-10.67 24.92,-15.01 v 0 m 330.65,0.16 c 10.67,5 19.33,9.97 25.95,14.21 v 0 c -6.2,-3.97 -14.18,-8.58 -23.93,-13.25 -0.66,-0.32 -1.34,-0.64 -2.02,-0.96"
         style="fill:#f0ebe3;fill-opacity:1;fill-rule:nonzero;stroke:none"
         id="path392" /><path
         d="m 3959.39,3652.14 v 0 c 10.71,6.86 16.11,11.79 16.11,11.79 v 0 0 c 0,0 -5.4,-4.93 -16.11,-11.79"
         style="fill:#baab92;fill-opacity:1;fill-rule:nonzero;stroke:none"
         id="path394" /><path
         d="m 3743.01,3609.46 c -28.7,0 -54.17,1.48 -78.31,6.34 -21.23,4.27 -41.44,11.16 -61.91,21.97 -8.23,4.34 -16.51,9.32 -24.92,15.01 -0.07,0.05 -0.16,0.11 -0.24,0.16 -67.88,46.05 -82.43,81.37 -86.17,147.13 14.31,0 38.77,-9.78 45.89,-14.45 11.91,-7.81 20.69,-19.35 26.85,-32.19 19.08,-39.78 55.97,-75.41 95,-88.69 24.1,-8.2 47.12,-11.34 69.87,-11.34 39.5,0 78.15,9.46 120.08,18.28 30.89,6.5 60.63,17 91.26,24.36 5.29,1.26 9.92,1.85 13.96,1.85 9.21,0 15.37,-3.06 19.25,-8.1 5.58,-7.26 1.88,-25.86 1.88,-25.86 v 0 c 0,0 -5.4,-4.93 -16.11,-11.79 -6.62,-4.24 -15.28,-9.21 -25.95,-14.21 -11.95,-5.59 -26.41,-11.21 -43.38,-15.86 -2.93,-0.8 -5.95,-1.57 -9.03,-2.32 -8.56,-2.05 -17.68,-3.83 -27.38,-5.25 -11.52,-1.67 -23.85,-2.82 -36.97,-3.25 v 0 c -27.11,-0.9 -51.36,-1.79 -73.67,-1.79"
         style="fill:#d1c1ae;fill-opacity:1;fill-rule:nonzero;stroke:none"
         id="path396" /><path
         d="m 3628.7,3520.11 c 0,0 1.23,92.55 -17.95,151.12 -19.17,58.59 0.55,124.6 71.51,113.07 70.97,-11.54 7.49,-122.29 0,-175.36 -7.48,-53.07 -10.36,-64.61 -14.4,-76.72 -3.57,-10.71 -17.52,-64.3 -41.06,-76.54 -3.07,-1.59 -32.69,-1.3 -38.95,1.66 -7.55,3.57 -10.14,9.73 -8.25,19.5 3.47,17.89 21.92,11.54 28.85,13.85 6.92,2.31 19.25,18.5 20.25,29.42"
         style="fill:#ddd2c1;fill-opacity:1;fill-rule:nonzero;stroke:none"
         id="path398" /><path
         d="m 4105.66,3830.42 c 0,0 32.61,14.01 26.26,48.62 -6.35,34.61 -47.3,75.84 -104.41,46.15 -57.1,-29.7 -38.07,-102.68 7.5,-107.87 45.57,-5.19 65.76,54.22 27.4,61.72 0,0 3.94,-10.96 -6.82,-15.96 -10.77,-5 -23.85,12.69 -6.54,20.38 17.3,7.69 40.16,-0.55 34.77,-25.54 0,0 17.82,-19.12 21.84,-27.5"
         style="fill:#cebeae;fill-opacity:1;fill-rule:nonzero;stroke:none"
         id="path400" /><path
         d="m 4090.31,3850.69 c -3.64,4.17 -6.49,7.23 -6.49,7.23 v 0 c 0,0 2.83,-3.04 6.49,-7.22 v -0.01"
         style="fill:#d0c1ae;fill-opacity:1;fill-rule:nonzero;stroke:none"
         id="path402" /><path
         d="m 4063.06,3873.14 v 0 c 0.04,0.45 0.06,0.9 0.06,1.32 0,-0.42 -0.02,-0.87 -0.06,-1.32"
         style="fill:#efeae3;fill-opacity:1;fill-rule:nonzero;stroke:none"
         id="path404" /><path
         d="m 4051.65,3862.2 c -4.53,0 -8.77,3.27 -10.36,7.43 1.59,-4.16 5.83,-7.43 10.35,-7.42 1.31,0 2.65,0.27 3.95,0.87 5.49,2.55 7.16,6.65 7.47,10.06 v 0 c -0.31,-3.41 -1.98,-7.51 -7.47,-10.06 -1.3,-0.6 -2.64,-0.88 -3.94,-0.88"
         style="fill:#d0c1ae;fill-opacity:1;fill-rule:nonzero;stroke:none"
         id="path406" /><path
         d="m 4051.21,3846.3 c -7.17,0 -14.77,2.94 -21.68,10.97 -12.22,14.21 -13.75,51.86 27.28,52.48 0.24,0 0.48,0.01 0.73,0.01 32.19,0 58.89,-32.22 32.77,-59.06 -3.66,4.18 -6.49,7.22 -6.49,7.22 0.55,2.52 0.8,4.87 0.81,7.06 0.01,14.25 -10.76,21.25 -22.64,21.25 -4.32,0 -8.79,-0.92 -12.94,-2.77 -0.03,-0.01 -0.06,-0.03 -0.09,-0.04 -7.92,-3.55 -9.41,-9.22 -7.67,-13.79 1.59,-4.16 5.83,-7.43 10.36,-7.43 1.3,0 2.64,0.28 3.94,0.88 5.49,2.55 7.16,6.65 7.47,10.06 0.04,0.45 0.06,0.9 0.06,1.32 0,1.73 -0.31,3.17 -0.52,3.94 -0.1,0.41 -0.19,0.64 -0.19,0.64 4.73,-0.92 8.56,-2.63 11.57,-4.91 2.57,-1.95 1.22,-19.09 -8.55,-24.15 -4.25,-2.2 -9.13,-3.68 -14.22,-3.68"
         style="fill:#c1af9e;fill-opacity:1;fill-rule:nonzero;stroke:none"
         id="path408" /><path
         d="m 3483.85,3924.76 c -4.98,4.98 2.35,12.22 1.83,19.24 l -0.1,2.03 c -0.34,10.33 -3.2,20.54 -12.98,29.04 -3.81,3.31 -2.98,19.03 -13.37,10.51 -5.5,-4.64 -17.21,-16.08 -21.82,-32.55 0,0 -17.04,-10.92 -19.66,-26.22 0,0 -16.17,-9.61 4.8,-34.51 20.97,-24.9 42.38,-27.96 53.3,-32.33 3.25,-1.3 5.21,-5.22 6.38,-10.05 21.71,6.35 20.92,55.5 1.62,74.84"
         style="fill:#302c2a;fill-opacity:1;fill-rule:nonzero;stroke:none"
         id="path410" /><path
         d="m 3564.54,3998.3 c 0,0 8.58,-3.26 19.09,-5.45 10.51,-2.19 15.78,0.24 19.6,-3.07 3.82,-3.31 27.34,-30.35 10.61,-55.54 -18.11,-27.28 -45.67,-38.44 -53.67,-20.53 -3.89,8.72 0.08,50.47 -6.11,61.16 -10.39,17.93 6.88,26.43 10.48,23.43"
         style="fill:#302c2a;fill-opacity:1;fill-rule:nonzero;stroke:none"
         id="path412" /><path
         d="m 3584.18,3907.42 c 9.5,4.01 19.99,12.84 28.56,25.21 -8.57,-12.37 -19.06,-21.2 -28.56,-25.21 m -24.64,8.26 v 0 0 m -0.01,0.05 c -0.01,0.01 -0.01,0.02 -0.01,0.02 0,0 0,-0.01 0.01,-0.02 m -0.03,0.1 c 0,0.01 0,0.02 0,0.03 0,-0.01 0,-0.02 0,-0.03 m -0.01,0.05 c 0,0.02 0,0.03 -0.01,0.05 0.01,-0.02 0.01,-0.03 0.01,-0.05 m -0.01,0.07 c -0.01,0.02 -0.01,0.04 -0.02,0.06 0.01,-0.02 0.01,-0.04 0.02,-0.06 m -0.02,0.07 c -1.96,8.89 -0.85,31.06 -2.4,46.16 h 0.01 c 1.54,-15.11 0.43,-37.27 2.39,-46.16 m 54.07,17.75 c 0.1,0.16 0.21,0.32 0.31,0.47 0.03,0.05 0.06,0.09 0.09,0.13 -0.03,-0.04 -0.06,-0.08 -0.09,-0.13 -0.1,-0.15 -0.21,-0.31 -0.31,-0.47 m 0.41,0.63 c 0.03,0.03 0.05,0.07 0.08,0.11 -0.03,-0.04 -0.05,-0.08 -0.08,-0.11 m 0.11,0.15 c 0.02,0.04 0.04,0.06 0.05,0.09 -0.01,-0.02 -0.03,-0.05 -0.05,-0.09"
         style="fill:#6e675e;fill-opacity:1;fill-rule:nonzero;stroke:none"
         id="path414" /><path
         d="m 3573.58,3905.01 c -5.92,0 -10.75,2.74 -13.41,8.7 -0.24,0.54 -0.45,1.2 -0.63,1.97 v 0 c -0.01,0.02 -0.01,0.04 -0.01,0.05 -0.01,0.01 -0.01,0.02 -0.01,0.02 0,0.02 -0.01,0.05 -0.02,0.08 0,0.01 0,0.02 0,0.03 0,0 -0.01,0.02 -0.01,0.02 0,0.02 0,0.03 -0.01,0.05 0,0 0,0.01 0,0.02 -0.01,0.02 -0.01,0.04 -0.02,0.06 v 0.01 c -1.96,8.89 -0.85,31.05 -2.39,46.16 l 0.43,-0.88 c 6.72,-14.49 19.39,-23.51 34.76,-23.51 1.84,0 3.72,0.12 5.63,0.39 10.17,1.41 17.39,7.96 21.82,16.29 0.16,-6.42 -1.31,-13.17 -5.61,-19.83 -0.01,-0.03 -0.03,-0.05 -0.05,-0.09 -0.01,-0.01 -0.02,-0.03 -0.03,-0.04 -0.03,-0.04 -0.05,-0.08 -0.08,-0.11 0,-0.01 -0.01,-0.02 -0.01,-0.03 -0.03,-0.04 -0.06,-0.08 -0.09,-0.13 -0.1,-0.15 -0.21,-0.31 -0.31,-0.47 -0.26,-0.38 -0.52,-0.77 -0.79,-1.14 -8.57,-12.37 -19.06,-21.2 -28.56,-25.21 -3.75,-1.58 -7.34,-2.41 -10.6,-2.41"
         style="fill:#1b1917;fill-opacity:1;fill-rule:nonzero;stroke:none"
         id="path416" /><path
         d="m 3470.73,3958.83 c 0,0 -12.88,9.87 -17.69,8.26 -4.81,-1.61 -6.12,-23.85 7.43,-19.95 13.54,3.9 12.86,9.83 10.26,11.69"
         style="fill:#45413b;fill-opacity:1;fill-rule:nonzero;stroke:none"
         id="path418" /><path
         d="m 3429.66,3929.32 c 0,-5.05 -1.82,-9.15 -4.06,-9.15 -2.25,0 -4.06,4.1 -4.06,9.15 0,5.05 1.81,9.14 4.06,9.14 2.24,0 4.06,-4.09 4.06,-9.14"
         style="fill:#0b0c0b;fill-opacity:1;fill-rule:nonzero;stroke:none"
         id="path420" /><path
         d="m 3453.04,3967.09 c -4.81,-1.61 -6.12,-23.85 7.43,-19.95 l 1.29,0.45 c 1.32,2.64 2.15,6.1 2.15,9.93 0,2.29 -0.31,4.44 -0.83,6.38 -3.67,2.12 -7.76,3.95 -10.04,3.19"
         style="fill:#090a0a;fill-opacity:1;fill-rule:nonzero;stroke:none"
         id="path422" /><path
         d="m 3456.79,3962.18 c 0,-1.2 -0.92,-2.17 -2.06,-2.17 -1.14,0 -2.07,0.97 -2.07,2.17 0,1.2 0.93,2.17 2.07,2.17 1.14,0 2.06,-0.97 2.06,-2.17"
         style="fill:#575d5b;fill-opacity:1;fill-rule:nonzero;stroke:none"
         id="path424" /><path
         d="m 3432.02,3892.92 c 3.61,-1.29 8.18,-1.63 14.06,-0.15 0,0 -10.87,5.11 -18.25,10.37 -1.83,5.87 -2.82,11.99 -2.82,18.09 0,8.36 2.09,16.73 4.14,24.98 -4.76,-4.67 -10.04,-11.41 -11.4,-19.4 0,0 -16.17,-9.61 4.8,-34.51 7.9,-9.37 15.85,-15.65 23.28,-20.07 0.04,1.02 0.1,1.95 0.25,2.63 -1.01,0.95 -2.02,1.89 -3.25,3.12 -4.34,4.34 -7.97,9.43 -10.81,14.94"
         style="fill:#0b0c0b;fill-opacity:1;fill-rule:nonzero;stroke:none"
         id="path426" /></g></g></svg>
