<?xml version="1.0" encoding="UTF-8" standalone="no"?>
<svg
   version="1.1"
   id="svg2"
   xml:space="preserve"
   width="118.62595"
   height="101.02406"
   viewBox="0 0 118.62595 101.02406"
   sodipodi:docname="akita inu.svg"
   inkscape:version="1.1 (c68e22c387, 2021-05-23)"
   xmlns:inkscape="http://www.inkscape.org/namespaces/inkscape"
   xmlns:sodipodi="http://sodipodi.sourceforge.net/DTD/sodipodi-0.dtd"
   xmlns="http://www.w3.org/2000/svg"
   xmlns:svg="http://www.w3.org/2000/svg"
   xmlns:rdf="http://www.w3.org/1999/02/22-rdf-syntax-ns#"
   xmlns:cc="http://creativecommons.org/ns#"
   xmlns:dc="http://purl.org/dc/elements/1.1/"><metadata
     id="metadata8"><rdf:RDF><cc:Work
         rdf:about=""><dc:format>image/svg+xml</dc:format><dc:type
           rdf:resource="http://purl.org/dc/dcmitype/StillImage" /></cc:Work></rdf:RDF></metadata><defs
     id="defs6" /><sodipodi:namedview
     pagecolor="#ffffff"
     bordercolor="#666666"
     borderopacity="1"
     objecttolerance="10"
     gridtolerance="10"
     guidetolerance="10"
     inkscape:pageopacity="0"
     inkscape:pageshadow="2"
     inkscape:window-width="1920"
     inkscape:window-height="1001"
     id="namedview4"
     inkscape:pagecheckerboard="0"
     showgrid="false"
     inkscape:zoom="0.50470924"
     inkscape:cx="716.25398"
     inkscape:cy="-70.337528"
     inkscape:window-x="-9"
     inkscape:window-y="-9"
     inkscape:window-maximized="1"
     inkscape:current-layer="g12" /><g
     id="g10"
     inkscape:groupmode="layer"
     inkscape:label="ink_ext_XXXXXX"
     transform="matrix(1.3333333,0,0,-1.3333333,-163.25466,120.08341)"><g
       id="g12"
       transform="scale(0.1)"><path
         d="m 2053.65,317.762 c -75.21,47.98 -54.47,136.16 -54.47,136.16 2.16,24.949 2.16,46.777 0.54,66.039 h -185.31 v -31.43 c 29.68,-83.66 95.99,-116.73 120.41,-126.332 7.21,-2.84 13.65,-7.25 19.1,-12.769 56.18,-56.891 58.08,-107.098 59.44,-130.348 0.35,-5.941 -3.8,-10.934 -9.59,-12.293 -18.36,-4.32 -34.22,-16.367 -33.11,-32.887 1.29,-19.371 60.94,-14.343 97.25,-10.07 36.31,4.27 -14.26,153.93 -14.26,153.93"
         style="fill:#c1ab94;fill-opacity:1;fill-rule:nonzero;stroke:none"
         id="path444" /><path
         d="m 1560.71,537.969 c 0,0 -46.68,35.011 -72.61,20.75 -25.94,-14.258 -46.91,-39.047 -30.06,-130.821 16.86,-91.777 28.76,-202.66 14.5,-215.519 -14.27,-12.859 -50.58,-3.277 -49.71,-26.867 0.86,-23.602 12.96,-29.742 48.41,-29.742 35.44,0 47.11,32.82 51.44,50.23 4.32,17.422 22.78,48.082 33.58,131.07 10.81,82.989 36.87,173.239 4.45,200.899"
         style="fill:#c1ab94;fill-opacity:1;fill-rule:nonzero;stroke:none"
         id="path446" /><path
         d="m 2096.94,285.031 c -2.9,9.469 -8.43,17.86 -15.8,24.469 -56.27,50.449 -43.69,127.469 -43.69,127.469 14.26,164.691 -64.84,195.812 -90.77,221.75 -15.05,15.051 -77.25,7.832 -135.42,0.613 -42.1,-5.223 -82.09,-10.441 -100.59,-7.23 -44.09,7.648 -153.02,62.378 -178.95,93.5 -7.02,8.418 -16.34,20.046 -26.17,32.48 -41.68,-41.793 -117.41,-80.594 -164.67,-70.332 3.11,-26.512 10.29,-50.629 18,-65.891 26.87,-53.168 -2.23,-84.289 63.93,-155.379 66.16,-71.082 258.03,-118.23 331.95,-73.519 49.47,29.93 47.65,46.82 75.34,54.711 12.11,3.449 24.64,-2.84 29.82,-14.313 39.46,-87.461 113.99,-103.269 113.99,-103.269 65.83,-60.758 76.29,-123.43 77.71,-147.961 0.34,-5.848 -3.61,-10.91 -9.32,-12.231 -18.47,-4.257 -34.49,-16.347 -33.38,-32.949 1.3,-19.367 53.6,-14.34 89.91,-10.07 29,3.41 9.92,99.582 -1.89,138.152"
         style="fill:#e5d8c7;fill-opacity:1;fill-rule:nonzero;stroke:none"
         id="path448" /><path
         d="m 1584.88,525.152 c 0,0 -46.68,35.008 -72.62,20.746 -25.93,-14.257 -32.41,-56.347 -15.56,-148.117 16.86,-91.781 14.27,-185.359 0,-198.222 -14.26,-12.86 -50.57,-3.278 -49.71,-26.868 0.87,-23.601 12.97,-29.742 48.42,-29.742 35.44,0 47.11,32.821 51.43,50.231 4.33,17.422 22.79,48.082 33.59,131.07 10.81,82.992 36.87,173.238 4.45,200.902"
         style="fill:#e5d8c7;fill-opacity:1;fill-rule:nonzero;stroke:none"
         id="path450" /><path
         d="m 1366.06,624.609 c -0.02,0 -0.05,0.012 -0.07,0.02 -1.69,5.121 -3.74,10.383 -6.44,15.891 2.71,-5.52 4.82,-10.801 6.51,-15.911"
         style="fill:#ebe0d2;fill-opacity:1;fill-rule:nonzero;stroke:none"
         id="path452" /><path
         d="m 1393.93,620.219 c -7.51,0 -15.09,0.922 -22.54,2.84 l -1.21,0.312 c -1.47,0.399 -2.85,0.809 -4.12,1.238 -1.69,5.11 -3.8,10.391 -6.51,15.911 -0.22,0.449 -0.44,0.89 -0.67,1.339 -5.73,11.34 -11.14,27.621 -14.82,46.102 11.44,-8.77 22.83,-17.609 34.01,-26.871 10.92,-9.031 22.51,-12.418 34.32,-12.418 17.22,0 34.92,7.199 51.73,14.598 1.71,-0.149 3.43,-0.219 5.14,-0.219 0.96,0 1.92,0.019 2.88,0.07 l -0.28,-0.449 c -17.03,-26.774 -46.98,-42.453 -77.93,-42.453"
         style="fill:#d3bea7;fill-opacity:1;fill-rule:nonzero;stroke:none"
         id="path454" /><path
         d="m 2081.14,309.5 c -56.27,50.449 -43.69,127.469 -43.69,127.469 14.26,164.691 -64.84,195.812 -90.77,221.75 -15.05,15.051 -77.25,7.832 -135.42,0.613 -42.1,-5.223 -82.09,-10.441 -100.59,-7.23 -39.03,6.769 -128.75,50.398 -166.85,81.918 l -0.9,2.691 c 0,0 -42.98,59.84 -54.15,72.789 -14.36,16.641 -24.45,46.398 -98.2,53.191 -27.42,2.528 -90.54,-29.043 -94.7,-36.519 -4.15,-7.481 -5.82,-24.934 -16.62,-29.91 -10.8,-4.992 -54.84,-5.821 -54.84,-17.453 0,-11.637 12.46,-46.539 24.93,-46.539 12.46,0 76.44,-20.77 79.77,-24.918 0.91,-1.141 5.65,-8.012 12.21,-17.293 12.37,-9.469 24.68,-18.969 36.75,-28.969 31,-25.649 67.4,-5.781 99.05,7.91 8.11,3.512 22.44,47.27 28.18,52.219 2.83,-4.758 17.31,-49.957 17.31,-57.617 0,-43.954 -49.34,-57.27 -77.65,-78.11 -26.3,-19.371 39.56,-36.16 47.56,-45.34 2.14,-2.453 4.02,-5 5.83,-7.593 -13.67,-21.368 -14.89,-62.707 -1.65,-134.778 2.91,-15.832 5.2,-31.691 6.99,-47.199 12.88,8.02 24.44,20.098 34.14,36.477 9.8,16.55 15.79,33.851 29.4,47.773 10.02,10.238 19.27,17.699 31.93,14.387 23.61,-13.727 69.51,-24.137 99.4,-23.477 70.69,1.539 142,72.399 153.45,69.149 33.22,-9.391 56.38,-65.942 120.78,-81.93 30.12,-7.481 70.51,-116.422 97.93,-114.66 7.7,0.5 14.91,-0.602 21.63,-2.903 -2.96,5.243 -6.68,10.043 -11.21,14.102"
         style="fill:#cd7942;fill-opacity:1;fill-rule:nonzero;stroke:none"
         id="path456" /><path
         d="m 1486.61,682.711 c -14.47,-23.609 -51.93,-22.789 -65.54,-21.609 -31.62,2.75 -55.17,35.546 -68.31,61.558 -7.25,14.34 -14.96,30.192 -14.59,46.711 0.26,11.789 6.23,32.68 -4.16,41.629 -1.39,1.199 -2.56,2.441 -3.54,3.719 -13.37,-1.387 -26.61,-0.989 -37.28,4.761 -2.77,-8.359 -5.69,-19.41 -13.94,-23.218 -10.8,-4.992 -54.84,-5.821 -54.84,-17.453 0,-11.637 12.46,-46.539 24.93,-46.539 12.46,0 76.44,-20.77 79.77,-24.918 3.32,-4.161 29.63,-68.661 65.06,-68.661 92.87,0 92.44,44.02 92.44,44.02"
         style="fill:#e5d8c7;fill-opacity:1;fill-rule:nonzero;stroke:none"
         id="path458" /><path
         d="m 1295.87,794.18 c 0,0 7.89,8.718 11.22,10.8 3.32,2.079 15.79,-8.308 15.79,-8.308 0,0 -13.71,-10.801 -27.01,-2.492"
         style="fill:#242823;fill-opacity:1;fill-rule:nonzero;stroke:none"
         id="path460" /><path
         d="m 1224.41,778.809 c 0,-4.829 2.17,-13.68 5.58,-22.368 5.59,3.469 10.94,8.731 14.39,13.661 3.05,4.359 4.23,16.64 1.2,19.488 -11.43,-2.25 -21.17,-5.32 -21.17,-10.781"
         style="fill:#101726;fill-opacity:1;fill-rule:nonzero;stroke:none"
         id="path462" /><path
         d="m 1314.15,742.242 c -1.38,1.477 -4.06,0.598 -4.78,-1.742 -0.9,-3.859 -5.74,-6.762 -11.47,-7.809 -1.67,-0.312 -25.82,0.231 -33.48,1.02 -8.29,0.848 -16.56,2.75 -24.63,4.84 3.04,-3.762 6.28,-6.281 9.55,-6.281 2.76,0 8.13,-1.051 14.72,-2.68 11.47,-0.442 22.59,-0.91 27.66,-2.719 11.63,-4.152 28.66,8.731 22.43,15.371"
         style="fill:#101726;fill-opacity:1;fill-rule:nonzero;stroke:none"
         id="path464" /><path
         d="m 1401.63,810.641 c 2.65,-0.27 5.13,-0.25 7.36,0.109 0.81,15.371 -0.86,41.539 -9.44,60.398 -9.51,20.911 -38.51,33.211 -42.3,28.461 -12.1,-15.14 -3,-51.687 4.4,-60.449 0,0 5.81,-6.621 13.29,-14.558 7.07,-7.512 16.43,-12.903 26.69,-13.961"
         style="fill:#cd7942;fill-opacity:1;fill-rule:nonzero;stroke:none"
         id="path466" /><path
         d="m 1389.05,828.43 c -2.84,12.281 -1.33,23.711 -8.52,34.961 -6.39,9.988 -13.81,18.75 -22.05,27.257 -1.35,1.391 -2.67,2.801 -4.01,4.192 -7.59,-16.949 0.46,-47.731 7.18,-55.68 0,0 5.81,-6.621 13.29,-14.558 5.63,-5.973 12.73,-10.493 20.55,-12.672 -2.93,5.261 -5.13,10.832 -6.44,16.5"
         style="fill:#e5d8c7;fill-opacity:1;fill-rule:nonzero;stroke:none"
         id="path468" /><path
         d="m 1315.48,798.492 c 0,1.598 -0.48,3.008 -1.15,4.289 -1.81,1.09 -3.55,1.918 -4.99,2.258 l -2.46,-0.207 c -1.84,-1.23 -4.85,-4.184 -7.28,-6.691 0.1,-2.7 1.3,-5 3.08,-6.559 3.65,-0.73 7.1,-0.453 10.12,0.348 1.62,1.629 2.68,3.929 2.68,6.562"
         style="fill:#1a1013;fill-opacity:1;fill-rule:nonzero;stroke:none"
         id="path470" /><path
         d="m 1309.37,800.012 c 0,-1.422 -1.15,-2.582 -2.57,-2.582 -1.42,0 -2.58,1.16 -2.58,2.582 0,1.418 1.16,2.57 2.58,2.57 1.42,0 2.57,-1.152 2.57,-2.57"
         style="fill:#d5d4d2;fill-opacity:1;fill-rule:nonzero;stroke:none"
         id="path472" /><path
         d="m 2000.82,608.559 c 0,0 16.74,63.562 -39.45,69.613 -26.57,2.859 -32.06,-13.531 -25.41,-29.93 7.4,-18.273 29.89,-36.551 55.05,-28.152 0,0 -4.57,-82.828 -117.82,-44.801 -125.19,42.051 -74.34,195.5 24.21,202.793 98.55,7.289 180.42,-58.523 168.58,-135.793 -9.08,-59.219 -45.11,-67.449 -45.11,-67.449 0,0 -15.74,28.39 -20.05,33.719"
         style="fill:#ddcbb4;fill-opacity:1;fill-rule:nonzero;stroke:none"
         id="path474" /><path
         d="m 1917.95,778.461 c -12.16,-7.91 -22.94,-19.582 -31.87,-36.27 -15.82,-29.519 -6.32,-63.699 22.19,-82.66 8.16,-5.429 19.57,-13.582 31.11,-17.769 -11.02,18.199 -8.12,39.648 21.99,36.41 56.19,-6.051 39.45,-69.613 39.45,-69.613 4.31,-5.329 20.05,-33.719 20.05,-33.719 0,0 36.03,8.23 45.11,67.449 11.01,71.82 -58.98,133.652 -148.03,136.172"
         style="fill:#cd7942;fill-opacity:1;fill-rule:nonzero;stroke:none"
         id="path476" /><path
         d="m 2006.38,600.031 c -1.9,3.149 -3.62,5.867 -4.83,7.559 1.21,-1.692 2.92,-4.399 4.84,-7.559 -0.01,0 -0.01,0 -0.01,0 m -5.56,8.528 v 0 0 0 0 m -22.51,9.433 c -0.02,0 -0.03,0 -0.04,0 0.01,0 0.02,0 0.04,0 v 0 m 0.01,0 c 4.04,0 8.21,0.629 12.45,2.02 -4.24,-1.391 -8.41,-2.02 -12.45,-2.02"
         style="fill:#ba6839;fill-opacity:1;fill-rule:nonzero;stroke:none"
         id="path478" /><path
         d="m 1947.47,677.629 c 0.26,0.07 0.53,0.121 0.8,0.18 2.17,0.453 4.61,0.691 7.31,0.691 0.17,0 0.34,0 0.51,-0.008 -0.17,0.008 -0.34,0.008 -0.51,0.008 -3.04,0 -5.74,-0.309 -8.11,-0.871"
         style="fill:#e5d8c7;fill-opacity:1;fill-rule:nonzero;stroke:none"
         id="path480" /><path
         d="m 1942.24,597.441 c -16.38,0 -32.93,5.309 -44.81,15.071 l -0.66,0.539 c -20.82,17.32 -29.77,47.449 -20.95,73.219 1.26,3.671 2.9,7.039 4.86,10.14 4.04,-14.41 13.49,-27.508 27.59,-36.879 8.11,-5.402 19.43,-13.48 30.9,-17.691 7.65,-12.711 22.16,-23.828 39.1,-23.848 0.01,0 0.02,0 0.04,0 v 0 0 h 0.01 c 4.04,0 8.21,0.629 12.45,2.02 0.08,0.027 0.16,0.047 0.24,0.078 -11.03,-15.531 -29.79,-22.649 -48.77,-22.649 m 64.15,2.59 c -1.92,3.16 -3.63,5.867 -4.84,7.559 -0.27,0.379 -0.52,0.711 -0.73,0.969 v 0 c 1.18,-1.457 3.22,-4.657 5.57,-8.528 -0.01,0 0,0 -0.01,0 m -58.11,77.778 c 2.17,0.453 4.6,0.691 7.31,0.691 1.81,0 3.73,-0.109 5.79,-0.328 v 0 c -1.86,0.199 -3.62,0.308 -5.28,0.32 -0.17,0.008 -0.34,0.008 -0.51,0.008 -2.7,0 -5.14,-0.238 -7.31,-0.691"
         style="fill:#c7ac91;fill-opacity:1;fill-rule:nonzero;stroke:none"
         id="path482" /><path
         d="m 2006.39,600.031 c -2.35,3.871 -4.39,7.071 -5.57,8.528 v 0 c 0,0 2.33,8.851 2.33,20.25 0.01,19.171 -6.55,45.57 -41.78,49.363 v 0 c -2.06,0.219 -3.98,0.328 -5.79,0.328 -2.71,0 -5.14,-0.238 -7.31,-0.691 -0.27,-0.059 -0.54,-0.11 -0.8,-0.18 -14.42,-3.41 -16.78,-16.399 -11.51,-29.387 0.87,-2.152 1.95,-4.301 3.21,-6.402 -11.47,4.211 -22.79,12.289 -30.9,17.691 -14.1,9.371 -23.55,22.469 -27.59,36.879 9.68,15.281 27.16,24.059 44.38,29.309 5.74,1.75 11.63,2.551 17.54,2.551 30.62,0 61.71,-21.711 73.67,-47.071 13.36,-28.347 6.48,-57.918 -9.88,-81.168"
         style="fill:#ba6839;fill-opacity:1;fill-rule:nonzero;stroke:none"
         id="path484" /></g></g></svg>
