<?xml version="1.0" encoding="UTF-8" standalone="no"?>
<svg
   version="1.1"
   id="svg2"
   xml:space="preserve"
   width="163.02126"
   height="116.13034"
   viewBox="0 0 163.02126 116.13034"
   sodipodi:docname="dalmatynczyk.svg"
   inkscape:version="1.1 (c68e22c387, 2021-05-23)"
   xmlns:inkscape="http://www.inkscape.org/namespaces/inkscape"
   xmlns:sodipodi="http://sodipodi.sourceforge.net/DTD/sodipodi-0.dtd"
   xmlns="http://www.w3.org/2000/svg"
   xmlns:svg="http://www.w3.org/2000/svg"
   xmlns:rdf="http://www.w3.org/1999/02/22-rdf-syntax-ns#"
   xmlns:cc="http://creativecommons.org/ns#"
   xmlns:dc="http://purl.org/dc/elements/1.1/"><metadata
     id="metadata8"><rdf:RDF><cc:Work
         rdf:about=""><dc:format>image/svg+xml</dc:format><dc:type
           rdf:resource="http://purl.org/dc/dcmitype/StillImage" /></cc:Work></rdf:RDF></metadata><defs
     id="defs6" /><sodipodi:namedview
     pagecolor="#ffffff"
     bordercolor="#666666"
     borderopacity="1"
     objecttolerance="10"
     gridtolerance="10"
     guidetolerance="10"
     inkscape:pageopacity="0"
     inkscape:pageshadow="2"
     inkscape:window-width="1920"
     inkscape:window-height="1001"
     id="namedview4"
     inkscape:pagecheckerboard="0"
     showgrid="false"
     inkscape:zoom="2.0188369"
     inkscape:cx="149.34341"
     inkscape:cy="173.61481"
     inkscape:window-x="-9"
     inkscape:window-y="-9"
     inkscape:window-maximized="1"
     inkscape:current-layer="g12" /><g
     id="g10"
     inkscape:groupmode="layer"
     inkscape:label="ink_ext_XXXXXX"
     transform="matrix(1.3333333,0,0,-1.3333333,-149.05733,428.05821)"><g
       id="g12"
       transform="scale(0.1)"><path
         d="m 2170.72,2588.3 c -48.92,29.14 -86.04,93.82 -88.41,195 l -0.41,0.41 h -172.08 v -36.48 c 5.85,-1.22 -7.38,-2.3 -7.38,-2.3 82.66,-177.11 210.01,-195.85 230.25,-214.59 26.57,-24.6 56.09,-90.51 56.09,-108.22 0,-17.72 -12.55,-19.19 -12.55,-19.19 -20.35,-0.67 -27.58,-8.43 -29.39,-16.73 -2.35,-10.74 6.18,-20.86 17.14,-21.73 22.05,-1.75 58.07,-4.71 69.81,8.2 10.24,11.26 -11.13,110.12 -25.18,163.39 -5.68,21.54 -18.74,40.84 -37.89,52.24"
         style="fill:#afa79c;fill-opacity:1;fill-rule:nonzero;stroke:none"
         id="path972" /><path
         d="m 1420.79,2848.55 c 0,0 91.02,22.47 93.97,-44.56 2.95,-67.02 -26.57,-124.09 -33.46,-164.43 -6.88,-40.34 -11.11,-107.25 -13.42,-125.95 -2.32,-18.69 -38.73,-144.96 -63.33,-146.93 -24.6,-1.97 -80.62,-8.12 -80.68,9.84 -0.11,29.52 29.52,30.5 49.2,29.52 19.68,-0.99 42.41,86.91 46.29,122.33 3.89,35.42 -3,170.23 -11.85,222.38 -8.86,52.15 -8.03,94.63 13.28,97.8"
         style="fill:#afa79c;fill-opacity:1;fill-rule:nonzero;stroke:none"
         id="path974" /><path
         d="m 1978.21,2692.69 c 0,0 -76.75,29.52 -107.25,14.76 -30.51,-14.76 -283.39,-136.77 -415.24,-44.27 -131.85,92.49 -88.37,192.09 -98.79,271.68 -10.43,79.59 69.27,7 72.22,0 2.96,-7 359.15,-74.89 440.82,-99.49 81.67,-24.6 107.25,-136.77 108.24,-142.68"
         style="fill:#bfb9ae;fill-opacity:1;fill-rule:nonzero;stroke:none"
         id="path976" /><path
         d="m 1989.81,2918.06 c 0,0 74.25,-3.45 105.98,-18.95 31.74,-15.5 90.17,-53.32 115.58,-110.73 35.71,-80.68 81.46,-107.98 119.1,-122.01 37.64,-14.02 -37.64,-37.63 -95.94,24.36 -58.3,61.99 -47.97,144.64 -165.3,165.3 0,0 -91.23,56.12 -79.42,62.03"
         style="fill:#c8c1b9;fill-opacity:1;fill-rule:nonzero;stroke:none"
         id="path978" /><path
         d="m 2235.71,2536.31 c -3.32,12.16 -12.11,21.7 -23.41,27.28 -52.29,25.78 -93.33,89.94 -97.32,193.56 -4.43,115.12 -101.84,183.01 -174.16,188.92 -54.61,4.46 -155.1,-17.43 -224.22,-25.68 -22.43,-2.68 -101.56,12.22 -129.64,29.2 -30.91,18.69 -62.36,43.02 -84.09,65.84 -1.97,3.27 -4.22,6.62 -7.1,10.13 0,0 -48.41,70.34 -87.38,122.29 -38.96,51.96 -35.77,72.96 -139.27,57.74 0,0 -35.11,-14.41 -38.76,-22.93 -3.66,-8.53 -10.96,-21.92 -30.44,-25.98 -19.49,-4.06 -81.99,-14.63 -81.99,-25.38 0,-10.75 8.52,-70.41 127.04,-69.6 0,0 31.66,9.74 43.84,-3.25 4.96,-5.29 18.89,-26.83 35.14,-53.14 21.39,-34.63 35.33,-73.58 39.21,-114.1 l 0.07,-0.74 c 7.87,-83.63 36.4,-122.99 97.41,-167.27 61.01,-44.28 122.01,-45.26 283.39,-11.81 161.36,33.46 206.63,13.78 206.63,13.78 82.65,-177.12 200.73,-178.1 217.45,-200.03 16.73,-21.94 53.14,-105.08 53.14,-122.79 0,-17.71 -12.55,-19.19 -12.55,-19.19 -18.2,-0.6 -25.91,-6.87 -28.63,-14.12 -4.23,-11.31 4.52,-23.39 16.56,-24.35 22.06,-1.75 57.93,-4.67 69.64,8.21 11.67,12.85 -17.76,136.54 -30.56,183.41"
         style="fill:#dcd0c9;fill-opacity:1;fill-rule:nonzero;stroke:none"
         id="path980" /><path
         d="m 1440.47,2823.95 c 0,0 91.02,22.47 93.97,-44.55 2.95,-67.03 -26.57,-124.1 -33.46,-164.44 -6.89,-40.34 -11.11,-107.25 -13.42,-125.95 -2.32,-18.69 -38.73,-144.96 -63.33,-146.93 -24.6,-1.97 -80.62,-8.12 -80.68,9.84 -0.11,30.01 29.52,30.5 49.2,29.52 19.68,-0.99 42.41,86.91 46.29,122.33 3.89,35.43 -3,170.23 -11.85,222.38 -8.86,52.15 -8.03,94.63 13.28,97.8"
         style="fill:#dcd0c9;fill-opacity:1;fill-rule:nonzero;stroke:none"
         id="path982" /><path
         d="m 1440.47,2823.95 c 0,0 91.02,22.47 93.97,-44.55 2.95,-67.03 -26.57,-124.1 -33.46,-164.44 -6.89,-40.34 -11.11,-107.25 -13.42,-125.95 -2.32,-18.69 -38.73,-144.96 -63.33,-146.93 -24.6,-1.97 -80.62,-8.12 -80.68,9.84 -0.11,30.01 29.52,30.5 49.2,29.52 19.68,-0.99 42.41,86.91 46.29,122.33 3.89,35.43 -3,170.23 -11.85,222.38 -8.86,52.15 -8.03,94.63 13.28,97.8"
         style="fill:#dcd0c9;fill-opacity:1;fill-rule:nonzero;stroke:none"
         id="path984" /><path
         d="m 1587.16,2912.89 c -0.84,-4.07 3.12,-7.8 2.84,-11.94 3.72,-0.26 7.16,2.44 8.84,5.77 1.69,3.33 1.96,7.18 2.06,10.91 l -2.42,1.32 c -4.61,-0.29 -10.38,-1.54 -11.32,-6.06"
         style="fill:#241d20;fill-opacity:1;fill-rule:nonzero;stroke:none"
         id="path986" /><path
         d="m 1844.86,2860.67 c -4.93,-1.78 -2.18,-11.6 -6.32,-14.41 5.51,-6.67 13.23,-10.48 18.8,-10.76 5.58,-0.27 9.44,2.31 12.93,5.11 -0.85,1.75 -1.7,3.5 -2.55,5.24 -7.36,7.76 -17.37,16.79 -22.86,14.82"
         style="fill:#241d20;fill-opacity:1;fill-rule:nonzero;stroke:none"
         id="path988" /><path
         d="m 1427.96,2982.61 c 0.71,-0.71 1.77,-0.93 2.77,-1.07 7.45,-1.07 15.65,0.31 21.15,5.46 5.49,5.15 7.16,14.58 2.32,20.36 -2.09,2.49 -5.09,4.08 -7.29,6.49 -2.19,2.41 -3.38,6.39 -1.23,8.84 -4.06,1.45 -8.28,2.92 -12.58,2.63 -4.31,-0.29 -8.78,-2.83 -9.94,-6.99 -1.38,-4.94 2.16,-9.77 3.51,-14.72 1.56,-5.69 0.17,-11.73 0.28,-17.63 0.02,-1.2 0.16,-2.52 1.01,-3.37"
         style="fill:#241d20;fill-opacity:1;fill-rule:nonzero;stroke:none"
         id="path990" /><path
         d="m 1428.99,2893.87 c -4.66,6.42 -12.52,11.14 -20.36,9.85 -8.33,-1.39 -14.68,-10.17 -13.39,-18.51 0.77,-4.91 3.74,-9.22 7.3,-12.69 6.72,-6.57 17.86,-10.51 25.4,-4.89 7.79,5.8 6.75,18.37 1.05,26.24"
         style="fill:#241d20;fill-opacity:1;fill-rule:nonzero;stroke:none"
         id="path992" /><path
         d="m 1491.19,2802.73 c 1.87,-11.36 10.09,-20.52 18.25,-28.66 13.11,-13.06 28.84,-26.06 47.35,-26 2.56,0 5.27,0.32 7.32,1.88 7.2,5.47 -0.53,18.82 5.59,25.49 7.15,6.25 16.21,10.3 25.65,11.44 1.28,0.16 2.67,0.3 3.62,1.18 0.97,0.88 1.23,2.28 1.34,3.59 1.36,16.1 -11.84,29.7 -25.51,38.31 -15.69,9.88 -34.61,16.6 -52.72,12.62 -18.1,-3.99 -33.9,-21.55 -30.89,-39.85"
         style="fill:#241d20;fill-opacity:1;fill-rule:nonzero;stroke:none"
         id="path994" /><path
         d="m 1682.11,2734.77 c 3.52,5.44 0.08,13.19 -5.46,16.55 -5.54,3.36 -12.38,3.53 -18.86,3.61 -4.12,0.05 -8.41,0.06 -12.14,-1.7 -3.73,-1.77 -6.68,-5.89 -5.72,-9.9 0.95,-3.91 5,-6.13 8.72,-7.66 4.67,-1.91 9.48,-3.49 14.37,-4.72 6.74,-1.68 15.32,-2.01 19.09,3.82"
         style="fill:#241d20;fill-opacity:1;fill-rule:nonzero;stroke:none"
         id="path996" /><path
         d="m 1680.88,2810.45 c 6.92,-2.41 14.21,-4.86 21.44,-3.63 7.23,1.22 14.16,7.5 13.38,14.79 -0.26,2.46 -1.35,4.76 -2.62,6.88 -2.87,4.79 -6.76,8.97 -11.34,12.18 -1.89,7.01 -11.96,10.1 -17.46,5.36 -0.9,-0.77 -1.66,-1.69 -2.42,-2.6 -3.7,-4.44 -7.39,-8.88 -11.08,-13.31 -1.32,-1.59 -2.67,-3.24 -3.22,-5.22 -0.95,-3.5 0.89,-7.28 3.63,-9.65 2.75,-2.36 6.26,-3.6 9.69,-4.8"
         style="fill:#241d20;fill-opacity:1;fill-rule:nonzero;stroke:none"
         id="path998" /><path
         d="m 1719.13,2783.14 c 1.75,-1.91 4.36,-2.83 6.94,-3.04 5.88,-0.46 11.89,2.74 14.79,7.88 1.1,1.96 1.82,4.21 3.46,5.74 2.63,2.45 6.64,2.29 10.22,2.67 3.57,0.37 7.76,2.22 7.99,5.81 0.15,2.24 -1.4,4.23 -3.05,5.75 -6.75,6.2 -16.99,8.32 -25.65,5.31 -8.66,-3.01 -15.37,-11.02 -16.82,-20.07 -0.56,-3.5 -0.26,-7.43 2.12,-10.05"
         style="fill:#241d20;fill-opacity:1;fill-rule:nonzero;stroke:none"
         id="path1000" /><path
         d="m 1807.61,2885.53 c 4.34,0.78 8.78,-0.32 13.19,-0.47 4.41,-0.16 9.39,1.01 11.64,4.8 3.26,5.49 -1.25,12.45 -6.45,16.16 -10.37,7.4 -24.22,9.27 -36.49,5.85 -12.27,-3.42 -22.88,-11.84 -29.91,-22.45 -2.15,-3.24 -4.01,-7.45 -2.13,-10.85 0.98,-1.79 2.82,-2.94 4.66,-3.82 8.66,-4.12 19.29,-3.8 27.68,0.84 6,3.3 11.07,8.72 17.81,9.94"
         style="fill:#241d20;fill-opacity:1;fill-rule:nonzero;stroke:none"
         id="path1002" /><path
         d="m 1900.66,2779.47 c 4.35,-9.63 -0.36,-21.97 -9.41,-27.43 -9.05,-5.46 -21.19,-4.4 -30.05,1.37 -2.01,1.31 -3.88,2.83 -5.97,3.99 -7.06,3.93 -15.68,3.28 -23.72,2.52 -10.6,-0.99 -21.19,-1.99 -31.79,-2.99 -4.59,-0.43 -10.87,0.4 -11.36,4.99 -0.28,2.59 1.68,4.85 3.61,6.6 6.73,6.1 14.67,10.69 22.68,14.97 12.51,6.69 25.6,12.84 39.66,14.77 14.05,1.93 29.33,-0.89 39.89,-10.37 2.65,-2.38 4.99,-5.17 6.46,-8.42"
         style="fill:#241d20;fill-opacity:1;fill-rule:nonzero;stroke:none"
         id="path1004" /><path
         d="m 1965.4,2879.51 c 4.25,1.06 8.72,2.11 12.94,0.96 7.6,-2.07 11.56,-10.27 14.08,-17.73 1.66,-4.95 3.13,-10.13 2.61,-15.32 -1.25,-12.41 -15.77,-21.53 -27.48,-17.26 -2.67,7.53 -10.85,11.52 -18.54,13.7 -7.69,2.17 -16.02,3.5 -22.13,8.66 -2.24,1.9 -4.16,4.43 -4.4,7.35 -0.6,7.12 7.97,10.98 14.9,12.7 9.34,2.31 18.68,4.63 28.02,6.94"
         style="fill:#241d20;fill-opacity:1;fill-rule:nonzero;stroke:none"
         id="path1006" /><path
         d="m 2043.94,2813.45 c -0.72,-1.64 -0.87,-3.46 -1.01,-5.25 -0.78,-9.62 -1.55,-19.25 -2.33,-28.88 5.83,-0.47 11.75,0.26 17.29,2.12 4.73,1.58 9.32,4.11 12.28,8.13 2.95,4.02 3.93,9.73 1.48,14.07 -2.46,4.34 -8.77,6.34 -12.8,3.4 1.65,3.9 -0.38,8.95 -4.27,10.62 -3.89,1.67 -8.95,-0.33 -10.64,-4.21"
         style="fill:#241d20;fill-opacity:1;fill-rule:nonzero;stroke:none"
         id="path1008" /><path
         d="m 2054.07,2731.1 c -2.14,-1.97 -3.19,-4.83 -4.04,-7.61 -2.4,-7.88 -3.77,-16.07 -4.09,-24.29 -0.24,-6.38 0.29,-13.17 4,-18.36 3.71,-5.19 11.54,-7.87 16.72,-4.13 -0.41,8.28 2.37,16.68 7.64,23.08 3.05,3.71 7.01,6.95 8.45,11.53 2.69,8.56 -4.86,17.21 -13.15,20.66 -5.06,2.1 -11.49,2.83 -15.53,-0.88"
         style="fill:#241d20;fill-opacity:1;fill-rule:nonzero;stroke:none"
         id="path1010" /><path
         d="m 2160.03,2588.9 c -0.87,2.28 -0.86,4.9 0.03,7.17 -6.71,5.36 -15.33,8.28 -23.92,8.11 -4.3,-0.09 -8.75,-1 -12.17,-3.6 -3.42,-2.61 -5.57,-7.19 -4.39,-11.33 1.43,-5 6.85,-7.65 11.88,-8.99 10.44,-2.77 23.92,-1.12 28.57,8.64"
         style="fill:#241d20;fill-opacity:1;fill-rule:nonzero;stroke:none"
         id="path1012" /><path
         d="m 2217.44,2515.89 c -5.1,-2.1 -3.25,-9.71 -0.55,-14.51 2.28,-4.07 4.57,-8.13 6.85,-12.2 8.53,2.46 13.66,13.01 10.34,21.24 -0.95,0.43 -2.04,1.01 -2.19,2.05 -0.14,1.03 1.66,1.8 1.9,0.78 -5.01,-2.79 -11.05,4.82 -16.35,2.64"
         style="fill:#241d20;fill-opacity:1;fill-rule:nonzero;stroke:none"
         id="path1014" /><path
         d="m 1489.16,2619.19 c -6.22,-0.68 -11.51,-5.42 -14.06,-11.14 -2.54,-5.72 -2.66,-12.26 -1.66,-18.43 l -0.17,-1.62 c -0.6,-5.88 -1.1,-12.26 2.04,-17.27 1.89,-3.02 5.03,-5.22 8.51,-5.98 3.43,-1.41 7.18,-1.37 10.71,-0.39 1.83,17.98 3.96,36.03 6.45,50.6 l 0.37,1.86 c -3.94,1.51 -8.03,2.84 -12.19,2.37"
         style="fill:#241d20;fill-opacity:1;fill-rule:nonzero;stroke:none"
         id="path1016" /><path
         d="m 1448.54,2474.74 c 4.84,10.79 11.87,22.23 14.35,33.92 -1.3,3.17 -4.73,5.25 -8.21,5.49 -3.83,0.26 -7.57,-1.21 -10.98,-2.97 -1.5,-0.77 -2.86,-1.76 -4.29,-2.65 -0.11,-1.64 -0.22,-3.4 -0.37,-4.76 -1.13,-10.34 -3.91,-24.31 -7.71,-38.85 7.14,-0.33 13.69,1.99 17.21,9.82"
         style="fill:#241d20;fill-opacity:1;fill-rule:nonzero;stroke:none"
         id="path1018" /><path
         d="m 1466.29,2732.32 c -2.22,0.25 -4.49,-0.47 -6.69,-0.05 -4.94,0.92 -7.05,6.63 -8.86,11.32 -1.92,4.97 -4.57,9.83 -8.68,13.21 -4.12,3.39 -9.93,5.07 -14.93,3.23 -1.79,-3.07 -2.75,-6.46 -3.35,-9.96 0.87,-7.67 2,-15.65 3.41,-23.92 2.21,-13.05 4.3,-31.28 6.14,-51.84 l 1.16,-0.84 c 2.21,-1.46 4.53,-2.97 7.17,-3.2 5.08,-0.45 9.19,3.83 12.46,7.73 9.59,11.43 19.61,23.87 20.91,38.73 0.58,6.59 -2.17,14.85 -8.74,15.59"
         style="fill:#241d20;fill-opacity:1;fill-rule:nonzero;stroke:none"
         id="path1020" /><path
         d="m 1496.96,2936.52 c -2.19,-8.97 -3.24,-19.92 3.7,-26.01 8.95,-7.84 25.79,-2.38 32.61,-12.13 3,-4.29 2.74,-10.08 5.02,-14.79 3.1,-6.41 10.57,-9.8 17.69,-9.91 6.59,16.01 -1.69,35.72 6.44,51 1.09,2.05 2.5,4.09 2.55,6.41 0.06,3.3 -2.69,6.04 -5.69,7.42 -2.99,1.38 -6.34,1.83 -9.41,3.04 -11.84,4.67 -18.78,20.2 -31.51,20.17 -5.96,-0.01 -11.42,-3.81 -14.84,-8.68 -3.43,-4.88 -5.14,-10.73 -6.56,-16.52"
         style="fill:#241d20;fill-opacity:1;fill-rule:nonzero;stroke:none"
         id="path1022" /><path
         d="m 1594.04,2872.71 c -0.39,-3.04 0.92,-6.04 2.47,-8.69 4.32,-7.44 11.6,-13.99 20.2,-14.22 8.6,-0.24 17.21,8.46 14.41,16.6 -3.36,2.94 -3.35,8.44 -6.56,11.53 -2.11,2.03 -5.18,2.62 -8.06,3.11 -4.43,0.77 -9,1.53 -13.37,0.49 -4.37,-1.04 -8.53,-4.36 -9.09,-8.82"
         style="fill:#241d20;fill-opacity:1;fill-rule:nonzero;stroke:none"
         id="path1024" /><path
         d="m 1435.16,2809.87 c 0.89,-1.06 2.29,-1.55 3.64,-1.85 3.79,-0.85 8.19,-0.44 10.91,2.34 2.72,2.78 2.47,8.3 -1.09,9.87 -2.01,-0.21 -3.82,1.48 -5.84,1.36 -1.31,-0.08 -2.45,-0.91 -3.5,-1.72 -1.61,-1.23 -3.26,-2.52 -4.26,-4.28 -1,-1.77 -1.17,-4.17 0.14,-5.72"
         style="fill:#241d20;fill-opacity:1;fill-rule:nonzero;stroke:none"
         id="path1026" /><path
         d="m 1907.16,2907.71 c -0.21,-1.69 0.52,-3.36 1.37,-4.83 2.41,-4.14 6.45,-7.78 11.23,-7.91 4.79,-0.13 9.57,4.71 8.01,9.23 -1.86,1.64 -1.85,4.69 -3.64,6.41 -1.18,1.13 -2.88,1.46 -4.48,1.73 -2.46,0.43 -5,0.85 -7.43,0.27 -2.44,-0.57 -4.75,-2.42 -5.06,-4.9"
         style="fill:#241d20;fill-opacity:1;fill-rule:nonzero;stroke:none"
         id="path1028" /><path
         d="m 1991.59,2758.58 c 0.7,-1.56 2.19,-2.6 3.69,-3.42 4.2,-2.28 9.55,-3.27 13.7,-0.89 4.15,2.38 5.72,9 2.03,12.05 -2.45,0.42 -4.03,3.03 -6.45,3.57 -1.59,0.35 -3.21,-0.26 -4.72,-0.86 -2.33,-0.92 -4.72,-1.88 -6.49,-3.64 -1.78,-1.76 -2.79,-4.54 -1.76,-6.81"
         style="fill:#241d20;fill-opacity:1;fill-rule:nonzero;stroke:none"
         id="path1030" /><path
         d="m 1352.9,3016.35 c -1.35,0 -2.63,0.37 -3.81,1.15 -13.4,8.93 -26.12,26.59 -28.88,30.72 -26.42,39.53 -14.31,80.72 -24.37,134.14 v 0 c 8.44,-13.94 16.38,-36.57 19.34,-56.83 -0.01,0.03 -0.03,0.06 -0.04,0.1 1.01,-6.92 1.48,-13.58 1.15,-19.51 -0.97,-17.54 3.61,-35.14 10,-49.37 4.06,-9.05 8.85,-16.73 13.42,-22.17 6.49,-7.72 10.25,-12.2 13.07,-12.2 0.13,0 0.25,0.01 0.38,0.03 2.1,0.31 3.7,3.32 5.6,9.57 1.09,3.6 3.15,8.21 5.79,13.45 0,0 0,0 0.01,-0.01 2.44,4.86 5.38,10.28 8.48,15.94 h -0.01 c 7.24,13.2 15.41,27.77 20.45,39.97 v 0 0 c 0.42,1.03 0.82,2.08 1.2,3.16 0.45,-6.16 0.65,-11.45 0.4,-14.64 -4.66,-30.92 -27.7,-73.51 -42.18,-73.5"
         style="fill:#bcaca2;fill-opacity:1;fill-rule:nonzero;stroke:none"
         id="path1032" /><path
         d="m 1266.08,3154.24 c 0,0 -23.05,24.31 -31.17,18.22 -4.01,-3.01 -7.69,-13.19 -4.87,-17.6 2.89,-4.51 16.53,-5.55 36.04,-0.62"
         style="fill:#130c11;fill-opacity:1;fill-rule:nonzero;stroke:none"
         id="path1034" /><path
         d="m 1133.96,3095.41 c 6.43,1.15 13.07,8.05 16.17,14.5 6.33,13.16 6.68,27.24 1.06,36.48 -17.87,-4.47 -33.26,-9.76 -33.26,-15.09 0,-5.02 1.99,-20.68 16.03,-35.89"
         style="fill:#0a0d0e;fill-opacity:1;fill-rule:nonzero;stroke:none"
         id="path1036" /><path
         d="m 1287.91,3192.57 c 0,0 -2.52,10.7 24.36,0 26.88,-10.7 46.49,-20.22 67.21,-26.38 20.72,-6.17 23.52,-41.8 14,-64.86 -9.52,-23.07 -30.24,-54.59 -34.72,-69.35 -4.48,-14.76 -7.29,-11.4 -19.05,2.6 -11.76,14 -25,42.84 -23.42,71.54 1.58,28.7 -14.66,74.19 -28.38,86.45"
         style="fill:#241d20;fill-opacity:1;fill-rule:nonzero;stroke:none"
         id="path1038" /><path
         d="m 1336.98,3161.62 c -1.77,-0.65 -2.1,-2.48 -2.1,-4.01 0,-2.55 0.28,-5.1 0.82,-7.61 l 0.45,-1.06 1.33,-0.71 c 4.97,-1.5 11.23,1.68 11.5,5.84 0.27,4.06 -4.68,7.58 -9.86,7.79 l -2.14,-0.24"
         style="fill:#dcd0c9;fill-opacity:1;fill-rule:nonzero;stroke:none"
         id="path1040" /><path
         d="m 1327.15,3090.26 2.38,-0.31 c 6.76,1.29 10.36,8.53 12.95,14.9 0.66,1.63 1.12,3.91 -0.4,4.78 l -2.07,0.23 c -8.1,-1.01 -14.62,-9.16 -13.83,-17.3 l 0.97,-2.3"
         style="fill:#dcd0c9;fill-opacity:1;fill-rule:nonzero;stroke:none"
         id="path1042" /><path
         d="m 1389.82,3119.57 c -2.41,-0.19 -5,-0.69 -6.62,-2.49 -2.29,-2.54 -1.7,-6.46 -0.97,-9.8 0.73,-3.33 1.46,-6.66 2.19,-9.99 0.34,-1.56 0.7,-3.16 1.63,-4.45 l 0.1,-0.09 c 1.12,-0.1 2.23,-0.34 3.36,-0.26 1.46,3.04 2.8,6.01 3.97,8.84 2.23,5.42 3.67,11.56 4.47,17.82 -2.7,0.37 -5.41,0.63 -8.13,0.42"
         style="fill:#dcd0c9;fill-opacity:1;fill-rule:nonzero;stroke:none"
         id="path1044" /><path
         d="m 1357.33,3068.45 c -2.9,0.11 -5.95,-0.4 -8.24,-2.18 -2.3,-1.78 -3.58,-5.05 -2.41,-7.71 0.79,-1.81 2.51,-3.02 4.15,-4.13 3.67,-2.49 7.34,-4.99 11.01,-7.48 0.82,-0.56 1.76,-1.08 2.72,-1.53 2.44,4.86 5.38,10.28 8.48,15.94 -4.12,4.2 -9.82,6.89 -15.71,7.09"
         style="fill:#dcd0c9;fill-opacity:1;fill-rule:nonzero;stroke:none"
         id="path1046" /><path
         d="m 1353.16,3022.41 c 2.1,0.32 3.7,3.32 5.6,9.57 1.09,3.6 3.15,8.21 5.79,13.45 v 0 c -2.64,-5.24 -4.7,-9.85 -5.79,-13.45 -1.9,-6.25 -3.5,-9.26 -5.6,-9.57 m -26.87,34.34 c -6.39,14.23 -10.97,31.83 -10,49.37 0.33,5.93 -0.14,12.59 -1.15,19.51 0.01,-0.04 0.03,-0.07 0.04,-0.1 1.01,-6.89 1.44,-13.5 1.11,-19.41 -0.97,-17.54 3.61,-35.14 10,-49.37"
         style="fill:#5e5452;fill-opacity:1;fill-rule:nonzero;stroke:none"
         id="path1048" /><path
         d="m 1352.78,3022.38 c -2.82,0 -6.58,4.48 -13.07,12.2 -4.57,5.44 -9.36,13.12 -13.42,22.17 -6.39,14.23 -10.97,31.83 -10,49.37 0.33,5.91 -0.1,12.52 -1.11,19.41 3.94,-8.32 8.6,-15.77 15.28,-20.83 -2.98,-3.28 -4.71,-7.71 -4.28,-12.14 l 0.97,-2.3 2.38,-0.31 c 4.95,0.95 8.2,5.08 10.61,9.72 0.76,-0.24 1.55,-0.46 2.35,-0.66 3.59,-0.87 7.16,-1.28 10.69,-1.28 10.45,0 20.47,3.62 29.04,9.59 0.01,-0.01 0.01,-0.03 0.01,-0.04 0.73,-3.33 1.46,-6.66 2.19,-9.99 0.34,-1.56 0.7,-3.16 1.63,-4.45 l 0.1,-0.09 c 0.96,-0.08 1.91,-0.28 2.87,-0.28 0.16,0 0.33,0.01 0.49,0.02 1.46,3.04 2.8,6.01 3.97,8.84 v 0 c -5.04,-12.2 -13.21,-26.77 -20.45,-39.97 -4.12,4.2 -9.81,6.89 -15.7,7.09 -0.23,0.01 -0.46,0.02 -0.69,0.02 -2.69,0 -5.44,-0.56 -7.55,-2.2 -2.3,-1.78 -3.58,-5.05 -2.41,-7.71 0.79,-1.81 2.51,-3.02 4.15,-4.13 3.67,-2.49 7.34,-4.99 11.01,-7.48 0.82,-0.56 1.75,-1.07 2.71,-1.52 -2.64,-5.24 -4.7,-9.85 -5.79,-13.45 -1.9,-6.25 -3.5,-9.25 -5.6,-9.57 -0.13,-0.02 -0.25,-0.03 -0.38,-0.03 m 40.76,79.09 c 0,0.02 0.01,0.03 0.02,0.05 -0.01,-0.02 -0.02,-0.03 -0.02,-0.05 m 0.05,0.14 c 0.01,0.03 0.03,0.05 0.04,0.08 -0.01,-0.03 -0.03,-0.05 -0.04,-0.08 m 0.05,0.12 c 2.1,5.2 3.46,11.03 4.25,16.99 -0.76,-5.97 -2.15,-11.78 -4.25,-16.99 m 4.31,17.42 c -0.92,0.12 -1.83,0.24 -2.75,0.32 1.12,1.39 2.18,2.83 3.18,4.31 -0.1,-1.55 -0.25,-3.1 -0.43,-4.63"
         style="fill:#141112;fill-opacity:1;fill-rule:nonzero;stroke:none"
         id="path1050" /><path
         d="m 1329.53,3089.95 -2.38,0.31 -0.97,2.3 c -0.43,4.43 1.3,8.86 4.28,12.14 2.83,-2.14 6.02,-3.86 9.68,-5.03 -2.41,-4.64 -5.66,-8.77 -10.61,-9.72"
         style="fill:#6c6465;fill-opacity:1;fill-rule:nonzero;stroke:none"
         id="path1052" /><path
         d="m 1389.02,3092.47 c -0.96,0 -1.91,0.2 -2.87,0.28 l -0.1,0.09 c -0.93,1.29 -1.29,2.89 -1.63,4.45 -0.73,3.33 -1.46,6.66 -2.19,9.99 0,0.01 0,0.03 -0.01,0.04 4.85,3.38 9.23,7.5 12.98,12.15 0.92,-0.08 1.83,-0.2 2.75,-0.32 -0.02,-0.14 -0.04,-0.29 -0.06,-0.43 -0.79,-5.96 -2.15,-11.79 -4.25,-16.99 0,-0.01 -0.01,-0.03 -0.01,-0.04 -0.01,-0.03 -0.03,-0.05 -0.04,-0.08 -0.01,-0.03 -0.02,-0.06 -0.03,-0.09 -0.01,-0.02 -0.02,-0.03 -0.02,-0.05 -0.02,-0.05 -0.04,-0.09 -0.06,-0.14 v 0 0 c -1.17,-2.83 -2.51,-5.8 -3.97,-8.84 -0.16,-0.01 -0.33,-0.02 -0.49,-0.02"
         style="fill:#6c6465;fill-opacity:1;fill-rule:nonzero;stroke:none"
         id="path1054" /><path
         d="m 1364.55,3045.43 v 0 c -0.96,0.45 -1.89,0.96 -2.71,1.52 -3.67,2.49 -7.34,4.99 -11.01,7.48 -1.64,1.11 -3.36,2.32 -4.15,4.13 -1.17,2.66 0.11,5.93 2.41,7.71 2.11,1.64 4.86,2.2 7.55,2.2 0.23,0 0.46,-0.01 0.69,-0.02 5.89,-0.2 11.58,-2.89 15.7,-7.09 -3.1,-5.66 -6.04,-11.07 -8.48,-15.93"
         style="fill:#6c6465;fill-opacity:1;fill-rule:nonzero;stroke:none"
         id="path1056" /><path
         d="m 1243.68,3151.04 c 2.37,3.2 3.88,7.75 3.88,12.85 0,2.29 -0.32,4.46 -0.86,6.47 -4.65,2.73 -9.07,4.15 -11.79,2.1 -4.01,-3.01 -7.69,-13.19 -4.87,-17.6 1.58,-2.46 6.45,-3.83 13.64,-3.82"
         style="fill:#491f27;fill-opacity:1;fill-rule:nonzero;stroke:none"
         id="path1058" /><path
         d="m 1239.63,3166.13 c 0,-1.83 -1.49,-3.31 -3.32,-3.31 -1.83,0 -3.31,1.48 -3.31,3.31 0,1.83 1.48,3.32 3.31,3.32 1.83,0 3.32,-1.49 3.32,-3.32"
         style="fill:#ccaf9e;fill-opacity:1;fill-rule:nonzero;stroke:none"
         id="path1060" /><path
         d="m 1224.18,3075.03 c -41.82,-9.85 -85.9,16.16 -86.46,16.49 8.42,-7.83 20.35,-15.27 37.29,-20.76 20.69,-2.5 43.23,-2.03 48.33,-4.45 10.03,-4.74 17.46,2.16 12.76,8.38 -5.13,6.79 -11.92,0.34 -11.92,0.34"
         style="fill:#101726;fill-opacity:1;fill-rule:nonzero;stroke:none"
         id="path1062" /><path
         d="m 1380.22,2986.19 c -4.93,-1.77 -2.19,-11.6 -6.32,-14.41 5.51,-6.66 13.22,-10.47 18.8,-10.75 5.58,-0.28 9.44,2.31 12.93,5.1 -0.85,1.75 -1.7,3.5 -2.55,5.25 -7.37,7.76 -17.38,16.78 -22.86,14.81"
         style="fill:#241d20;fill-opacity:1;fill-rule:nonzero;stroke:none"
         id="path1064" /><path
         d="m 1423.57,3021.28 c 6.92,-2.42 14.21,-4.86 21.44,-3.64 7.23,1.23 14.17,7.51 13.38,14.8 -0.26,2.46 -1.35,4.75 -2.62,6.88 -2.87,4.79 -6.76,8.97 -11.33,12.18 -1.9,7.01 -11.97,10.1 -17.47,5.36 -0.9,-0.78 -1.66,-1.7 -2.42,-2.61 -3.69,-4.43 -7.39,-8.87 -11.08,-13.31 -1.32,-1.58 -2.67,-3.23 -3.22,-5.22 -0.95,-3.49 0.89,-7.27 3.64,-9.64 2.74,-2.37 6.25,-3.61 9.68,-4.8"
         style="fill:#241d20;fill-opacity:1;fill-rule:nonzero;stroke:none"
         id="path1066" /><path
         d="m 1441.11,2971.48 c -0.21,-1.69 0.51,-3.36 1.37,-4.83 2.4,-4.14 6.45,-7.78 11.23,-7.91 4.78,-0.13 9.57,4.71 8.01,9.23 -1.87,1.64 -1.86,4.69 -3.65,6.41 -1.17,1.13 -2.87,1.46 -4.47,1.73 -2.47,0.43 -5.01,0.85 -7.44,0.27 -2.43,-0.57 -4.74,-2.42 -5.05,-4.9"
         style="fill:#241d20;fill-opacity:1;fill-rule:nonzero;stroke:none"
         id="path1068" /><path
         d="m 1187.67,3140.3 c -0.21,-1.69 0.51,-3.36 1.37,-4.83 2.4,-4.14 6.45,-7.78 11.23,-7.91 4.79,-0.13 9.57,4.71 8.01,9.23 -1.87,1.64 -1.86,4.69 -3.65,6.41 -1.17,1.13 -2.87,1.45 -4.47,1.73 -2.46,0.42 -5.01,0.85 -7.44,0.27 -2.43,-0.58 -4.74,-2.42 -5.05,-4.9"
         style="fill:#241d20;fill-opacity:1;fill-rule:nonzero;stroke:none"
         id="path1070" /><path
         d="m 1286.44,3107.59 c -0.87,2.29 -0.86,4.9 0.04,7.18 -6.72,5.36 -15.34,8.28 -23.93,8.1 -4.3,-0.08 -8.74,-0.99 -12.17,-3.6 -3.42,-2.61 -5.56,-7.19 -4.38,-11.33 1.43,-5 6.85,-7.65 11.87,-8.98 10.45,-2.78 23.92,-1.13 28.57,8.63"
         style="fill:#241d20;fill-opacity:1;fill-rule:nonzero;stroke:none"
         id="path1072" /><path
         d="m 1262.36,3183.36 c 0.57,-0.76 1.64,-0.95 2.72,-1 3,-0.11 6.71,0.94 9.4,3.74 2.69,2.8 3.37,7.47 0.67,8.24 -1.69,-0.5 -2.93,0.65 -4.61,0.23 -1.1,-0.28 -2.18,-1.17 -3.17,-2.02 -1.53,-1.31 -3.11,-2.67 -4.21,-4.34 -1.11,-1.66 -1.64,-3.73 -0.8,-4.85"
         style="fill:#241d20;fill-opacity:1;fill-rule:nonzero;stroke:none"
         id="path1074" /></g></g></svg>
