<?xml version="1.0" encoding="UTF-8" standalone="no"?>
<svg
   version="1.1"
   id="svg2"
   xml:space="preserve"
   width="118.7432"
   height="125.47468"
   viewBox="0 0 118.7432 125.47468"
   sodipodi:docname="husky syberyjski.svg"
   inkscape:version="1.1 (c68e22c387, 2021-05-23)"
   xmlns:inkscape="http://www.inkscape.org/namespaces/inkscape"
   xmlns:sodipodi="http://sodipodi.sourceforge.net/DTD/sodipodi-0.dtd"
   xmlns="http://www.w3.org/2000/svg"
   xmlns:svg="http://www.w3.org/2000/svg"
   xmlns:rdf="http://www.w3.org/1999/02/22-rdf-syntax-ns#"
   xmlns:cc="http://creativecommons.org/ns#"
   xmlns:dc="http://purl.org/dc/elements/1.1/"><metadata
     id="metadata8"><rdf:RDF><cc:Work
         rdf:about=""><dc:format>image/svg+xml</dc:format><dc:type
           rdf:resource="http://purl.org/dc/dcmitype/StillImage" /></cc:Work></rdf:RDF></metadata><defs
     id="defs6" /><sodipodi:namedview
     pagecolor="#ffffff"
     bordercolor="#666666"
     borderopacity="1"
     objecttolerance="10"
     gridtolerance="10"
     guidetolerance="10"
     inkscape:pageopacity="0"
     inkscape:pageshadow="2"
     inkscape:window-width="1920"
     inkscape:window-height="1001"
     id="namedview4"
     inkscape:pagecheckerboard="0"
     showgrid="false"
     inkscape:zoom="1.4275333"
     inkscape:cx="-159.36581"
     inkscape:cy="176.87854"
     inkscape:window-x="-9"
     inkscape:window-y="-9"
     inkscape:window-maximized="1"
     inkscape:current-layer="g12" /><g
     id="g10"
     inkscape:groupmode="layer"
     inkscape:label="ink_ext_XXXXXX"
     transform="matrix(1.3333333,0,0,-1.3333333,-303.68479,125.47468)"><g
       id="g12"
       transform="scale(0.1)"><path
         d="m 2503.61,59.75 c 0,-3.7109 3.72,-4.9609 11.24,-7.5898 l 5.18,-1.7891 c 10.06,-3.5313 14.06,-8.4297 14.06,-14.6992 0,-1.0703 -0.12,-2.1797 -0.34,-3.3399 -2.42,-12.4218 -15.27,-18.7617 -31.6,-18.7617 -4.15,0 -12.65,0.1602 -19.01,4.2188 l 2.07,10.6523 c 6.49,-4.2305 14.11,-6.832 21.67,-6.832 11.59,0 14.33,5.789 14.33,9.6601 0,4.1407 -3.77,6.5118 -10.71,8.9493 l -5.1,1.7929 c -11.06,3.8789 -14.78,7.4492 -14.78,12.8789 0,0.9492 0.11,1.961 0.33,3.0391 2.49,12.8398 15.34,18.7695 28.18,18.7695 5.45,0 11.26,-1.0469 16.52,-3.25 l -1.8,-9.2578 c -5.35,2.1992 -10.76,4.4688 -17.17,4.4688 -10.4,0 -13.07,-5.3516 -13.07,-8.9102"
         style="fill:#2f3032;fill-opacity:1;fill-rule:nonzero;stroke:none"
         id="path96" /><path
         d="m 2549.66,65.5703 1.75,9.0195 h 11.54 l -1.75,-9.0195 z m -9.7,-49.8906 8.37,43.0703 h 11.54 l -8.37,-43.0703 h -11.54"
         style="fill:#2f3032;fill-opacity:1;fill-rule:nonzero;stroke:none"
         id="path98" /><path
         d="m 2595.5,39.2422 c 0.57,2.9375 0.85,5.2969 0.85,7.1797 0,4.457 -1.59,6.1484 -4.68,6.1484 -3.86,0 -8.18,-2.7695 -10.59,-6.8398 l -4.56,-23.4102 c 1.33,-0.3008 2.69,-0.4687 4.06,-0.4687 9.54,0 13.08,7.9179 14.92,17.3906 z m 4.66,-16.5703 c -4.75,-5.2031 -11.07,-8.461 -21.72,-8.461 -3.33,0 -9.52,0.3282 -14.44,3.0079 l 11.86,61.0312 h 11.54 l -5.08,-26.1289 c 3.92,4.7305 9.24,8.0898 15.38,8.0898 5.13,0 11.51,-2.3593 11.51,-12.9101 0,-6.8789 -2.52,-17.4219 -9.05,-24.6289"
         style="fill:#2f3032;fill-opacity:1;fill-rule:nonzero;stroke:none"
         id="path100" /><path
         d="m 2646.3,48.8086 c 0,1.9023 -1.29,4.1602 -5.62,4.1602 -3.18,0 -10.63,-1.2891 -14.07,-11.7891 l 1.06,0.0195 c 5.97,0 18.63,0.3711 18.63,7.6094 z m 11.63,1.0117 c 0,-5.7617 -5.09,-11.6094 -14.32,-14.3906 -5.69,-1.7109 -12.15,-1.8711 -17.43,-1.8711 l -1.1,0.0117 -0.07,-1.6992 c 0,-8.8516 5.88,-10.0195 10.27,-10.0195 5.21,0 10.96,1.6289 16.61,3.5 l -1.69,-8.6993 c -5.56,-1.8632 -11.28,-2.4414 -15.83,-2.4414 -16.23,0 -20.93,8.0586 -20.93,17.0079 0,1.9804 0.23,4 0.61,5.9921 3.02,15.5313 14.7,23.3985 28.12,23.3985 10.31,0 15.76,-4.9571 15.76,-10.7891"
         style="fill:#2f3032;fill-opacity:1;fill-rule:nonzero;stroke:none"
         id="path102" /><path
         d="m 2691.76,51.0313 c -6.19,0 -12.3,-4 -15.2,-9.629 l -4.99,-25.7226 h -11.54 l 8.37,43.0703 h 11.53 l -1.63,-8.3906 c 3.87,5.7695 9.42,9.8515 16.14,9.8515 0.73,0 2.52,0 3.69,-0.25 l -1.85,-9.5 c -1.4,0.3204 -2.89,0.5704 -4.52,0.5704"
         style="fill:#2f3032;fill-opacity:1;fill-rule:nonzero;stroke:none"
         id="path104" /><path
         d="m 2706.71,65.5703 1.76,9.0195 H 2720 l -1.75,-9.0195 z m -9.7,-49.8906 8.37,43.0703 h 11.54 l -8.37,-43.0703 h -11.54"
         style="fill:#2f3032;fill-opacity:1;fill-rule:nonzero;stroke:none"
         id="path106" /><path
         d="m 2748.72,35.4219 c -4.35,-0.043 -8.61,-0.3008 -12.22,-2.2696 -3.99,-2.3906 -4.77,-5.3125 -4.77,-7.1132 0,-2.5469 1.74,-4.1875 5.25,-4.1875 3.21,0 6.56,1.4375 9.8,3.5976 z m 14.01,14.6601 c 0,-2.3515 -0.49,-4.9023 -0.98,-7.4218 l -5.25,-26.9805 h -11.62 l 0.83,4.2695 c -4.55,-3.3398 -9.49,-5.7383 -14.77,-5.7383 -6.74,0 -10.98,3.9805 -10.98,9.918 0,3.4922 1.32,9.5 8.79,13.4922 6.12,3.2109 13.54,3.8281 21.16,3.9492 l 0.55,2.7891 c 0.24,1.2695 0.47,2.5 0.47,3.6211 0,2.6406 -1.28,4.5898 -6.6,4.5898 -5.04,0 -10.42,-1.789 -15.56,-3.9805 l 1.64,8.4493 c 5.51,2.4414 11.26,3.1718 16.71,3.1718 12.73,0 15.61,-4.4687 15.61,-10.1289"
         style="fill:#2f3032;fill-opacity:1;fill-rule:nonzero;stroke:none"
         id="path108" /><path
         d="m 2800.96,48.3008 c 0,2.3984 -0.96,4.2695 -4.69,4.2695 -3.8,0 -7.46,-1.8398 -10.57,-4.668 l -6.27,-32.2226 h -11.54 l 8.38,43.0703 h 11.53 l -0.95,-4.9102 c 4.47,3.8321 9.7,6.3711 15.46,6.3711 8.38,0 10.37,-4.539 10.37,-9.6211 0,-2.8085 -0.61,-5.789 -1.09,-8.2578 l -5.18,-26.6523 h -11.54 l 5.55,28.5195 c 0.27,1.3906 0.54,2.8203 0.54,4.1016"
         style="fill:#2f3032;fill-opacity:1;fill-rule:nonzero;stroke:none"
         id="path110" /><path
         d="m 2877.46,15.6797 4.94,25.4297 h -26 l -4.94,-25.4297 h -12.19 l 11.45,58.9101 h 12.19 l -4.95,-25.4296 h 26.01 l 4.94,25.4296 h 12.19 l -11.45,-58.9101 h -12.19"
         style="fill:#2f3032;fill-opacity:1;fill-rule:nonzero;stroke:none"
         id="path112" /><path
         d="m 2904.4,24.0586 c 0,2.5703 0.54,5.3711 1.09,8.1914 l 5.15,26.5 h 11.54 l -5.53,-28.4414 c -0.27,-1.3867 -0.53,-2.8086 -0.53,-4.0898 0,-2.4571 0.97,-4.3672 4.74,-4.3672 3.75,0 7.39,1.8476 10.49,4.6679 l 6.27,32.2305 h 11.54 l -8.38,-43.0703 h -11.53 l 0.94,4.8789 c -4.43,-3.8164 -9.58,-6.3477 -15.21,-6.3477 -4.97,0 -10.58,1.9688 -10.58,9.8477"
         style="fill:#2f3032;fill-opacity:1;fill-rule:nonzero;stroke:none"
         id="path114" /><path
         d="m 2966.69,14.2109 c -3.09,0 -10.73,0 -14.95,2.1211 l 1.7,8.7774 c 5.27,-2.5977 11.56,-3.2578 16.44,-3.2578 6.06,0 8.13,3.5507 8.13,5.9179 0,2.5 -2.4,3.4297 -4.39,4.1602 l -8.84,3.0117 c -4.35,1.5508 -7.34,5.0508 -7.34,9.6602 0,9.3672 10.76,15.6093 22.25,15.6093 3.41,0 7.61,-0.5703 11.63,-1.6289 l -1.6,-8.2109 c -4.02,1.0586 -8.02,2.1992 -12.01,2.1992 -6.56,0 -8.2,-2.6797 -8.2,-4.4609 0,-2.0196 2.35,-2.8203 4.3,-3.5 l 8.83,-3.0899 c 4.12,-1.4375 7.55,-4.3906 7.55,-9.6093 0,-10.5782 -10.53,-17.6993 -23.5,-17.6993"
         style="fill:#2f3032;fill-opacity:1;fill-rule:nonzero;stroke:none"
         id="path116" /><path
         d="m 3034.96,14.2109 c -7.33,0.7383 -13.46,4.5782 -16.51,10.8204 l -3.75,7.6796 -3.92,-4.082 -2.51,-12.9492 h -11.54 l 12.16,62.5703 h 11.54 l -6.77,-34.8398 14.76,15.3398 h 11.21 l -17.67,-18.4492 5.64,-11.6992 c 1.8,-3.7422 5.19,-6.3399 9.58,-6.75 l -2.22,-7.6407"
         style="fill:#2f3032;fill-opacity:1;fill-rule:nonzero;stroke:none"
         id="path118" /><path
         d="M 3073.69,16.4922 C 3071.29,9.51953 3068.08,0 3046.6,0 c -2.44,0 -5.42,0.160156 -8.23,0.730469 l 1.55,7.960941 c 2.81,-0.57032 5.73,-1.0625 8.81,-1.0625 10.38,0 11.81,4.69139 12.98,7.81249 l 0.5,1.4609 c -1.64,-1.2226 -3.52,-1.9531 -5.64,-1.9531 -2.76,0 -5.35,1.3008 -7.22,3.4102 -3.09,3.332 -3.32,7.9609 -3.64,12.6015 l -1.67,27.7891 h 11.54 l 1.93,-28.1211 c 0.33,-8.207 1.07,-9.5078 1.81,-9.5078 2.14,0 4.19,1.5703 5.58,3.6797 l 11.56,33.9492 h 11.62 l -14.39,-42.2578"
         style="fill:#2f3032;fill-opacity:1;fill-rule:nonzero;stroke:none"
         id="path120" /><path
         d="m 2567.25,392.879 c -18.45,15.223 -31.2,38.512 -40.08,61.672 -17.79,46.41 -33.25,98.187 -37.93,148.898 -6.05,-10 -59.65,-50.738 -28.39,-144.168 34.18,-102.133 59.75,-138.609 59.75,-160.269 0,-21.653 -17.57,-101.043 -25.26,-100.403 -6.17,0.512 -40.92,-2 -50.21,-19.41 -3.8,-7.129 1.81,-15.75 9.89,-15.75 h 73.31 c 3.25,0 55.32,119.801 52.88,135.563 -1.77,11.449 -11.03,70.07 -13.96,93.867"
         style="fill:#d5a67b;fill-opacity:1;fill-rule:nonzero;stroke:none"
         id="path122" /><path
         d="m 3034.69,469.762 c 0.52,5.738 0.71,11.269 0.86,16.758 H 2886.3 l 8.55,-56.5 c 3.65,-16.559 22.14,-121.77 133.63,-154.661 0,0 9.34,-14.789 8.12,-30.66 -1.22,-15.859 -6.8,-46.258 -19,-46.258 -10.4,0 -43.41,-3.55 -49.53,-22.73 -1.81,-5.68 2.4,-11.52 8.36,-11.652 19.13,-0.43 63.48,-1.219 75.34,0.211 0,0 36.61,137.371 38.44,158.109 1.83,20.75 -66.1,32.16 -55.52,147.383"
         style="fill:#d5a67b;fill-opacity:1;fill-rule:nonzero;stroke:none"
         id="path124" /><path
         d="m 3065.7,449.25 c 10.58,115.211 -56.95,181.109 -124.48,193.32 -26.1,4.711 -64.65,0.739 -106.58,-3.23 -66.55,-6.309 -141.58,-12.61 -188.75,15.84 -76.88,46.371 -93.97,124.48 -93.97,124.48 l -8.92,-1.191 c -6.96,17.871 -14.38,35.613 -20.87,53.492 -24.4,25.57 -56.13,45.34 -94.96,42.23 0,0 -31.57,-7.011 -50.18,-23.199 -18.61,-16.183 -26.34,-25.551 -31.33,-35.281 -4.99,-9.742 7.5,-19.34 -1.95,-25.762 -9.45,-6.429 -63.83,-32.769 -62.27,-35.687 1.56,-2.922 8.75,-44.41 55.49,-47.953 18.23,-1.379 29.89,-1.598 37.39,-1.36 -0.17,-10.488 0.67,-22.738 2.72,-36.988 -2.01,-19.531 -0.68,-45.742 10.53,-77.09 0,0 5.1,-11.359 21.57,-42.801 21.06,-59.648 59.18,-120.89 122.03,-150.238 167.6,-78.262 330.73,-6.07 389.77,35.777 0,0 15.4,-126.121 137.44,-162.121 0,0 8.54,-13.617 7.32,-29.488 -1.22,-15.859 -4.88,-64.07 -17.08,-64.07 -10.41,0 -43.41,-3.539 -49.54,-22.731 -1.81,-5.679 2.41,-11.519 8.37,-11.648 19.12,-0.422 63.47,-1.211 75.34,0.211 0,0 36.61,108.609 38.44,129.359 1.83,20.75 -66.11,60.918 -55.53,176.129"
         style="fill:#f9dfc9;fill-opacity:1;fill-rule:nonzero;stroke:none"
         id="path126" /><path
         d="m 3019.33,588.059 c 0,0 126.1,-60.207 135.87,-157.84 9.76,-97.629 5.69,-107.387 13.01,-126.11 0,0 -86.24,8.141 -97.63,127.743 -11.39,119.597 -45.56,127.73 -45.56,127.73 l -5.69,28.477"
         style="fill:#f9dfc9;fill-opacity:1;fill-rule:nonzero;stroke:none"
         id="path128" /><path
         d="m 2586.37,381.93 c -18.45,15.218 -31.2,38.511 -40.08,61.679 -17.79,46.403 -33.25,98.192 -37.93,148.891 -6.05,-10 -40.18,-72.48 -8.92,-165.91 34.17,-102.141 40.28,-116.871 40.28,-138.52 0,-21.66 -17.57,-101.05 -25.26,-100.41 -6.18,0.52 -40.92,-2 -50.21,-19.41 -3.8,-7.129 1.81,-15.738 9.89,-15.738 h 73.31 c 3.25,0 55.32,119.789 52.88,135.558 -1.77,11.442 -11.03,70.071 -13.96,93.86"
         style="fill:#f9dfc9;fill-opacity:1;fill-rule:nonzero;stroke:none"
         id="path130" /><path
         d="m 3055.9,511.531 c 18.32,-17.871 35.79,-39.633 46.38,-60.211 11.48,-22.32 14.03,-51.73 28.05,-72.109 6.97,-10.141 18.65,-15.191 30.84,-19.332 -1.11,16.473 -2.82,38.762 -5.97,70.34 -9.77,97.633 -135.87,157.84 -135.87,157.84 l 5.69,-28.477 c 0,0 16.89,-4.082 30.88,-48.051"
         style="fill:#2d2125;fill-opacity:1;fill-rule:nonzero;stroke:none"
         id="path132" /><path
         d="m 3065.7,449.25 c 10.58,115.211 -56.95,181.109 -124.48,193.32 -26.1,4.711 -64.65,0.739 -106.58,-3.23 -66.55,-6.309 -141.58,-12.61 -188.75,15.84 -15.99,9.64 -29.32,20.66 -40.49,32.07 -6.08,6.199 -10.71,13.602 -13.83,21.711 -4.08,10.598 -8.38,21.668 -12.05,30.828 -10.7,26.723 -62.64,141.582 -152.35,134.402 0,0 -31.57,-7.011 -50.18,-23.199 -5.84,-5.07 -10.5,-9.422 -14.45,-13.371 l 1.28,0.059 c 33.64,0 49.73,-31.032 48.77,-57.801 -0.22,-5.977 2.98,-13.82 7.81,-17.34 56.04,-40.828 82.7,-119.437 78.36,-190.207 l 0.88,0.137 c -3.31,-15.168 3.78,-31.059 17.89,-38.559 7.05,-3.738 13,-7.269 14.2,-8.531 8.25,-8.731 11,-25.488 7.68,-36.809 -7.77,-26.511 -18.32,-48.648 -19,-77.32 l -0.02,-0.57 c 5.71,-23.098 13.91,-47.918 28.19,-68.168 12.09,-17.141 33.42,-28.473 48.68,-34.742 -4.38,28.531 -14.19,83.351 -10.76,97.23 1.05,4.281 4.46,10.949 8.75,19.43 2.75,-1.7 5.63,-3.321 8.79,-4.731 46.04,-20.508 105.17,-27.308 155.34,-22.668 59,5.469 107,21.758 148.51,63.27 11.14,11.14 27.56,4.738 32.64,-8.621 4.29,-11.301 7.76,-22.879 11.21,-34.5 5.25,-6.68 10.56,-11.899 21.11,-16.481 10.14,-4.39 19.94,-10.219 25.71,-20.078 6.42,-10.961 7.81,-22.641 9.18,-34.019 2.21,-18.543 13.75,-34.661 30.51,-42.883 27.6,-13.539 53.74,-27.449 59.88,-66.938 1.16,-7.48 4.24,-16.152 7.27,-23.043 6.69,20.371 15.14,51.621 15.83,59.383 1.83,20.75 -66.11,60.918 -55.53,176.129"
         style="fill:#2d2125;fill-opacity:1;fill-rule:nonzero;stroke:none"
         id="path134" /><path
         d="m 2645.67,655.309 c -0.02,0.023 -0.05,0.031 -0.08,0.05 0.03,-0.019 0.05,-0.027 0.08,-0.05 m -0.19,0.113 c -0.89,0.547 -1.78,1.09 -2.65,1.637 -7.33,4.601 -14.08,9.48 -20.31,14.55 -0.01,0.039 -0.02,0.082 -0.03,0.121 7.02,-5.699 14.6,-11.21 22.99,-16.308"
         style="fill:#b2afb0;fill-opacity:1;fill-rule:nonzero;stroke:none"
         id="path136" /><path
         d="m 2663.73,646.488 c -6.3,2.453 -12.26,5.321 -17.84,8.692 -1.03,0.621 -2.05,1.25 -3.06,1.879 0.87,-0.547 1.76,-1.09 2.65,-1.637 0.04,-0.024 0.08,-0.043 0.11,-0.063 0.03,-0.019 0.06,-0.027 0.08,-0.05 0.07,-0.039 0.15,-0.09 0.22,-0.129 5.58,-3.371 11.54,-6.239 17.84,-8.692"
         style="fill:#f9e0cb;fill-opacity:1;fill-rule:nonzero;stroke:none"
         id="path138" /><path
         d="m 2762.91,527.422 c -25.42,0 -47.11,7.976 -66.75,20.359 -36.99,31.559 -58.9,69.211 -72.47,119.758 -0.37,1.383 -0.79,2.699 -1.17,4.07 6.23,-5.07 12.98,-9.949 20.31,-14.55 1.01,-0.629 2.03,-1.258 3.06,-1.879 5.58,-3.371 11.54,-6.239 17.84,-8.692 24.27,-9.449 53.44,-12.519 84.06,-12.519 28.62,0 58.51,2.679 86.85,5.371 28.35,2.691 55.15,5.371 77.61,5.371 10.76,0 20.52,-0.621 28.97,-2.141 34,-6.148 67.98,-25.941 92.01,-58.75 -1.22,-1.8 -2.31,-3.64 -3.68,-5.39 -16.16,-20.629 -40.45,-23.211 -64.47,-23.211 -4.01,0 -8.01,0.07 -11.97,0.14 -3.95,0.071 -7.85,0.153 -11.66,0.153 -0.05,0 -0.11,0 -0.17,0 -58.94,-0.032 -114.91,-25.84 -173.84,-28.012 -1.52,-0.059 -3.03,-0.078 -4.53,-0.078"
         style="fill:#38292f;fill-opacity:1;fill-rule:nonzero;stroke:none"
         id="path140" /><path
         d="m 2371.28,835.75 c 0.92,0.48 1.56,0.832 2.24,1.18 0.99,3.742 2.77,9.218 2.78,9.289 0.2,1.363 0.3,2.961 0.41,4.523 -18.4,-16.023 -26.09,-25.351 -31.05,-35.031 -3.02,-5.891 0.32,-11.711 1.37,-16.82 2,15.148 10.17,29.429 24.25,36.859"
         style="fill:#2d2125;fill-opacity:1;fill-rule:nonzero;stroke:none"
         id="path142" /><path
         d="m 2366.09,786.238 c 0,0 3.84,14.922 11.85,13.914 8.01,-1.011 17.36,-6.933 17.36,-6.933 0,0 -9.36,-17.348 -29.21,-6.981"
         style="fill:#101726;fill-opacity:1;fill-rule:nonzero;stroke:none"
         id="path144" /><path
         d="m 2412.52,867.07 c 0,0 10.86,80.559 31.6,73.559 20.73,-7 10.67,-30.32 21.4,-51.867 10.74,-21.551 12.08,-54.774 0,-73.051 0,0 -26.83,2.519 -33.54,23.32 -6.71,20.801 -19.46,28.039 -19.46,28.039"
         style="fill:#2d2125;fill-opacity:1;fill-rule:nonzero;stroke:none"
         id="path146" /><path
         d="m 2444.12,833.66 c 0,0 -0.66,74.891 -6.11,88.238 -5.44,13.34 -20.8,-49.5 -20.8,-49.5 0,0 22.28,-30.019 26.91,-38.738"
         style="fill:#f9dfc9;fill-opacity:1;fill-rule:nonzero;stroke:none"
         id="path148" /><path
         d="m 2438.58,842.469 c -0.81,21.5 -2.35,46.269 -5.26,53.422 -3.12,7.629 -9.47,-9.672 -14.34,-25.879 3.84,-5.223 13.21,-18.051 19.6,-27.543"
         style="fill:#af644e;fill-opacity:1;fill-rule:nonzero;stroke:none"
         id="path150" /><path
         d="m 2317.12,710.832 c 17.49,0.297 48.5,4.957 62.36,9.309 17.73,5.55 -8.29,6.238 -20.09,3.25 -9,-2.27 -35.11,-7.871 -47.03,-10.411 1.51,-0.769 3.1,-1.48 4.76,-2.148"
         style="fill:#101726;fill-opacity:1;fill-rule:nonzero;stroke:none"
         id="path152" /><path
         d="m 2302.58,730.66 c -2.39,-2.789 -6.5,-3.418 -9.48,-1.269 -8.26,5.941 -23.42,19.558 -10.36,32.281 15.9,15.476 34.73,-13.672 19.84,-31.012"
         style="fill:#101726;fill-opacity:1;fill-rule:nonzero;stroke:none"
         id="path154" /><path
         d="m 2383.6,791.449 c 0.49,-3.879 -2.25,-7.429 -6.13,-7.918 -3.87,-0.5 -7.42,2.239 -7.92,6.117 -0.5,3.872 2.24,7.422 6.12,7.922 3.88,0.5 7.43,-2.238 7.93,-6.121"
         style="fill:#8b9dc4;fill-opacity:1;fill-rule:nonzero;stroke:none"
         id="path156" /><path
         d="m 2378.15,791.301 c -0.35,2.719 -1.53,4.879 -2.98,6.097 -3.59,-0.75 -6.09,-4.058 -5.62,-7.75 0.43,-3.328 3.13,-5.679 6.32,-6.007 1.72,1.257 2.72,4.25 2.28,7.66"
         style="fill:#101726;fill-opacity:1;fill-rule:nonzero;stroke:none"
         id="path158" /><path
         d="m 2378.77,794.059 c 0.15,-1.207 -0.7,-2.317 -1.91,-2.469 -1.22,-0.16 -2.32,0.699 -2.48,1.91 -0.16,1.211 0.7,2.32 1.91,2.48 1.21,0.149 2.32,-0.699 2.48,-1.921"
         style="fill:#e9eae9;fill-opacity:1;fill-rule:nonzero;stroke:none"
         id="path160" /></g></g></svg>
