<?xml version="1.0" encoding="UTF-8" standalone="no"?>
<svg
   version="1.1"
   id="svg2"
   xml:space="preserve"
   width="115.34652"
   height="70.094475"
   viewBox="0 0 115.34652 70.094474"
   sodipodi:docname="jamnik.svg"
   inkscape:version="1.1 (c68e22c387, 2021-05-23)"
   xmlns:inkscape="http://www.inkscape.org/namespaces/inkscape"
   xmlns:sodipodi="http://sodipodi.sourceforge.net/DTD/sodipodi-0.dtd"
   xmlns="http://www.w3.org/2000/svg"
   xmlns:svg="http://www.w3.org/2000/svg"
   xmlns:rdf="http://www.w3.org/1999/02/22-rdf-syntax-ns#"
   xmlns:cc="http://creativecommons.org/ns#"
   xmlns:dc="http://purl.org/dc/elements/1.1/"><metadata
     id="metadata8"><rdf:RDF><cc:Work
         rdf:about=""><dc:format>image/svg+xml</dc:format><dc:type
           rdf:resource="http://purl.org/dc/dcmitype/StillImage" /></cc:Work></rdf:RDF></metadata><defs
     id="defs6" /><sodipodi:namedview
     pagecolor="#ffffff"
     bordercolor="#666666"
     borderopacity="1"
     objecttolerance="10"
     gridtolerance="10"
     guidetolerance="10"
     inkscape:pageopacity="0"
     inkscape:pageshadow="2"
     inkscape:window-width="1920"
     inkscape:window-height="1001"
     id="namedview4"
     inkscape:pagecheckerboard="0"
     showgrid="false"
     inkscape:zoom="1.4275333"
     inkscape:cx="11.558399"
     inkscape:cy="249.03097"
     inkscape:window-x="-9"
     inkscape:window-y="-9"
     inkscape:window-maximized="1"
     inkscape:current-layer="g12" /><g
     id="g10"
     inkscape:groupmode="layer"
     inkscape:label="ink_ext_XXXXXX"
     transform="matrix(1.3333333,0,0,-1.3333333,-172.89444,530.51713)"><g
       id="g12"
       transform="scale(0.1)"><path
         d="m 2097.73,3527.33 c -2.82,23.96 -25.36,35.94 -50.73,54.96 -11.96,8.98 -18.28,24.73 -24.06,43.34 -15.57,6.05 -31.09,7.43 -46.67,6.75 -21.44,-10.83 -43.77,-19.57 -65.36,-30.05 -4.45,-2.16 -11.74,-0.36 -16.61,-2.51 40.6,-67.91 87.97,-66.45 114.59,-68.96 28.01,-2.65 46.21,3.34 46.1,-18.32 -0.11,-21.67 -14.68,-15.86 -38.47,-24.31 -16.63,-5.92 -10.77,-16.23 -5.74,-21.89 2.31,-2.61 5.66,-4.01 9.14,-4.01 h 67.95 c 16.38,0 12.68,41.05 9.86,65"
         style="fill:#1c1e33;fill-opacity:1;fill-rule:nonzero;stroke:none"
         id="path180" /><path
         d="m 2097.08,3530.15 h -48.31 c -1.05,-0.7 -2.1,-1.41 -3.16,-2.12 6.07,-1.97 9.43,-6.17 9.38,-15.49 -0.11,-21.67 -14.68,-15.86 -38.47,-24.31 -16.63,-5.92 -10.77,-16.23 -5.74,-21.89 2.31,-2.61 5.66,-4.01 9.14,-4.01 h 67.95 c 16.38,0 12.68,41.05 9.86,65 -0.11,1 -0.46,1.87 -0.65,2.82"
         style="fill:#925a3a;fill-opacity:1;fill-rule:nonzero;stroke:none"
         id="path182" /><path
         d="m 2005.53,3477.23 v 0 c 0,4.01 2.71,8.05 10.99,11 23.79,8.45 38.36,2.64 38.47,24.31 0,0.03 0,0.05 0,0.09 0,-0.04 0,-0.06 0,-0.09 -0.11,-21.67 -14.68,-15.86 -38.47,-24.31 -8.28,-2.95 -10.99,-6.99 -10.99,-11"
         style="fill:#7b472e;fill-opacity:1;fill-rule:nonzero;stroke:none"
         id="path184" /><path
         d="m 2054.99,3512.7 c 0,0.01 0,0.01 0,0.01 0,0 0,0 0,-0.01"
         style="fill:#7b472e;fill-opacity:1;fill-rule:nonzero;stroke:none"
         id="path186" /><path
         d="m 2054.99,3512.64 c 0,0.02 0,0.04 0,0.06 0,-0.01 0,-0.01 0,-0.01 0,-0.01 0,-0.02 0,-0.03 0,-0.01 0,-0.02 0,-0.02"
         style="fill:#d1c4ba;fill-opacity:1;fill-rule:nonzero;stroke:none"
         id="path188" /><path
         d="m 2054.99,3512.63 c 0,0 0,0 0,0.01 0,0 0,0.01 0,0.02 0,-0.02 0,-0.02 0,-0.03 m 0,0.06 c 0,0 0,0 0,0.01 0,0 0,0 0,0 0,0 0,-0.01 0,-0.01"
         style="fill:#181826;fill-opacity:1;fill-rule:nonzero;stroke:none"
         id="path190" /><path
         d="m 2054.99,3512.73 c 0,4.79 -0.93,8.2 -2.66,10.65 0.01,0 0.03,0 0.04,-0.01 1.66,-2.37 2.56,-5.63 2.62,-10.15 0,-0.01 0,-0.03 0,-0.04 0,-0.02 0,-0.04 0,-0.06 0,-0.02 0,-0.04 0,-0.06 0,-0.02 0,-0.04 0,-0.05 0,-0.03 0,-0.05 0,-0.07 0,-0.02 0,-0.03 0,-0.05 0,-0.02 0,-0.05 0,-0.07 0,-0.02 0,-0.03 0,-0.05 0,-0.01 0,-0.03 0,-0.04"
         style="fill:#d1c4ba;fill-opacity:1;fill-rule:nonzero;stroke:none"
         id="path192" /><path
         d="m 2054.99,3512.71 c 0,0.01 0,0.01 0,0.02 0,0.01 0,0.03 0,0.04 0,0 0,-0.01 0,-0.02 0,-0.01 0,-0.02 0,-0.04 m 0,0.11 c 0,0.02 0,0.05 0,0.07 0,-0.02 0,-0.05 0,-0.07 m 0,0.12 c 0,0.02 0,0.04 0,0.07 0,-0.03 0,-0.05 0,-0.07 m 0,0.12 c 0,0.02 0,0.04 0,0.06 0,-0.02 0,-0.04 0,-0.06 m 0,0.12 c 0,0.01 0,0.03 0,0.04 0,-0.01 0,-0.03 0,-0.04"
         style="fill:#181826;fill-opacity:1;fill-rule:nonzero;stroke:none"
         id="path194" /><path
         d="m 2040.53,3462.33 h -20.61 c -3.48,0 -6.83,1.4 -9.14,4.01 -2.53,2.84 -5.26,6.85 -5.25,10.89 0,4.01 2.71,8.05 10.99,11 23.79,8.45 38.36,2.64 38.47,24.31 0,0.03 0,0.05 0,0.09 0,0.02 0,0.05 0,0.07 0,0.01 0,0.01 0,0.01 0,0.02 0,0.03 0,0.04 0,4.77 -0.91,8.17 -2.62,10.62 23.18,-1.55 36.13,-0.41 36.03,-19.99 -0.11,-21.67 -14.69,-15.86 -38.47,-24.31 -12.34,-4.39 -12.3,-11.2 -9.4,-16.74"
         style="fill:#663825;fill-opacity:1;fill-rule:nonzero;stroke:none"
         id="path196" /><path
         d="m 1564.75,3508.66 c 0,0 9.51,22.9 -32.41,76.8 -19.62,25.23 -63.42,108.37 8.45,127.64 71.87,19.28 56.37,-93.81 68,-153 11.63,-59.19 2.82,-97.77 -27.48,-97.77 h -60.24 c -4.02,0 -7.78,1.93 -10.11,5.21 -5.15,7.19 -11.95,19.7 -0.12,23.15 16.92,4.94 49.68,0 53.91,17.97"
         style="fill:#925a3a;fill-opacity:1;fill-rule:nonzero;stroke:none"
         id="path198" /><path
         d="m 1581.31,3462.33 h -60.24 c -4.02,0 -7.78,1.93 -10.11,5.21 -3.05,4.26 -6.67,10.37 -6.67,15.38 0,3.45 1.72,6.37 6.55,7.77 16.92,4.94 49.68,0 53.91,17.97 0,0 0.93,2.23 0.93,6.96 -0.01,8.21 -2.83,23.95 -18.28,48.51 19.77,-9.61 40.13,-18.02 61.18,-23.7 1.18,-0.33 2.36,-0.64 3.54,-0.93 1.07,-8.73 1.61,-16.86 1.61,-24.32 -0.03,-33.03 -10.7,-52.85 -32.42,-52.85"
         style="fill:#7b472e;fill-opacity:1;fill-rule:nonzero;stroke:none"
         id="path200" /><path
         d="m 2021.92,3683.05 c 0,0 44.4,-16.38 69.76,-8.45 24.2,7.56 55.6,36.76 51.58,73.37 -0.25,2.19 2.14,3.66 3.85,2.27 9.04,-7.33 27.67,-29.9 0.59,-77.81 -15.5,-27.42 -67.05,-40.72 -100.41,-33.13 -27.31,6.22 -41.78,24.72 -25.37,43.75"
         style="fill:#434359;fill-opacity:1;fill-rule:nonzero;stroke:none"
         id="path202" /><path
         d="m 2131.14,3518.17 c -2.82,23.96 -25.37,35.94 -50.73,54.96 -25.37,19.03 -25.37,68.35 -48.62,111.33 -23.25,42.99 -181.09,30.31 -247.68,27.13 -66.59,-3.17 -169.91,40.42 -197.39,78.46 -7.2,9.98 -10.45,35.21 -11.58,48.09 -16.59,4.65 -38.77,4.99 -44.91,22.47 -3.34,9.5 -6.34,19.09 -9.05,28.77 -26.82,-19 -49.85,-35.52 -49.85,-35.52 23.06,-69.67 -31.96,-230.58 31.59,-266.2 32.21,-18.05 86.14,-45.95 124.41,-51.17 79.75,-10.86 139.4,12.15 172.64,33.12 45.8,28.89 123.13,28.36 123.13,28.36 47.56,-79.8 93.54,-71.34 121.55,-73.99 28.01,-2.64 43.86,1.06 43.75,-20.6 -0.11,-21.67 -14.69,-15.86 -38.47,-24.31 -16.63,-5.92 -10.77,-16.23 -5.74,-21.89 2.31,-2.61 5.66,-4.01 9.14,-4.01 h 67.95 c 16.38,0 12.68,41.04 9.86,65"
         style="fill:#434359;fill-opacity:1;fill-rule:nonzero;stroke:none"
         id="path204" /><path
         d="m 2131.14,3518.17 c -0.4,3.43 -1.31,6.57 -2.47,9.56 -2.7,-5.84 -8.56,-9.93 -19.72,-10.61 -10.47,-0.65 -20.04,1.13 -29.65,2.92 5.99,-2.38 9.15,-6.98 9.1,-16.66 -0.11,-21.67 -14.69,-15.86 -38.47,-24.31 -16.63,-5.92 -10.77,-16.23 -5.74,-21.89 2.3,-2.61 5.66,-4.01 9.14,-4.01 h 67.95 c 16.38,0 12.68,41.04 9.86,65"
         style="fill:#925a3a;fill-opacity:1;fill-rule:nonzero;stroke:none"
         id="path206" /><path
         d="m 2031.91,3684.24 c -0.04,0.07 -0.08,0.15 -0.12,0.22 0.04,-0.07 0.08,-0.15 0.12,-0.22 m -1.98,3.16 c -5.08,6.97 -14.01,12.33 -25.63,16.42 11.62,-4.09 20.55,-9.45 25.63,-16.42 m -249.53,24.06 c 0.02,0 0.04,0 0.06,0.01 -0.02,-0.01 -0.04,-0.01 -0.06,-0.01 m 0.21,0.01 c 0.07,0 0.14,0 0.21,0.01 -0.07,-0.01 -0.14,-0.01 -0.21,-0.01 m 0.21,0.01 c 1.11,0.02 2.21,0.06 3.29,0.11 -1.08,-0.05 -2.18,-0.09 -3.29,-0.11"
         style="fill:#b2b2bb;fill-opacity:1;fill-rule:nonzero;stroke:none"
         id="path208" /><path
         d="m 1997.62,3653.42 c -23.04,0 -48.49,9.5 -68.19,13.54 -10.24,2.11 -20.74,2.97 -31.29,2.97 -14.67,0 -29.42,-1.66 -43.64,-3.93 -29.21,-4.64 -56.59,-9.13 -82.64,-9.13 -38.34,0.01 -73.81,9.72 -107.9,42.9 -14.32,13.94 -29.52,33.8 -41.93,55.81 44.25,-24.34 108.67,-44.15 154.98,-44.15 1.14,0 2.28,0.01 3.39,0.03 0.02,0 0.04,0 0.06,0.01 0.05,0 0.1,0 0.15,0 0.07,0 0.14,0 0.21,0.01 v 0 c 1.11,0.02 2.21,0.06 3.29,0.11 v 0 c 27.33,1.3 70.03,4.21 112.49,4.21 40.71,0 81.2,-2.67 107.7,-11.98 11.62,-4.09 20.55,-9.45 25.63,-16.42 0.69,-0.95 1.31,-1.93 1.86,-2.94 v 0 c 0.04,-0.07 0.08,-0.15 0.12,-0.22 2.53,-4.7 4.75,-9.47 6.79,-14.27 -3.17,-2.86 -6.48,-5.61 -10.11,-8.08 -9.13,-6.22 -19.76,-8.47 -30.97,-8.47"
         style="fill:#4f4f69;fill-opacity:1;fill-rule:nonzero;stroke:none"
         id="path210" /><path
         d="m 1473.92,3737.79 v 0 c 3.07,41.89 6.44,83.32 -1.31,111.72 0.01,0 0.02,0 0.02,0 7.74,-28.39 4.36,-69.84 1.29,-111.72 m 109.26,59.05 c -3.59,8.98 -5.8,21.84 -7.07,32.15 0,-0.01 0.01,-0.01 0.02,-0.01 1.27,-10.34 3.51,-23.08 7.12,-32.09 -0.03,-0.01 -0.05,-0.03 -0.07,-0.05"
         style="fill:#a1a1ac;fill-opacity:1;fill-rule:nonzero;stroke:none"
         id="path212" /><path
         d="m 1484.66,3737.02 c -3.48,0 -7.06,0.25 -10.74,0.77 3.07,41.88 6.45,83.33 -1.29,111.72 6.3,0.93 12.23,2.02 17.63,3.27 0.08,0.02 0.17,0.04 0.26,0.06 0,0 -2.74,-31.18 -4.64,-76.11 1.03,0.56 2,1.17 3.06,1.7 28.34,14.13 50.81,33.24 69.43,56.87 5.74,-2.55 11.83,-4.6 17.74,-6.31 1.27,-10.31 3.48,-23.17 7.07,-32.15 -10.65,-9.59 -22.56,-22.19 -26.47,-25.34 -12.22,-9.85 -37,-34.48 -72.05,-34.48"
         style="fill:#2b2b3d;fill-opacity:1;fill-rule:nonzero;stroke:none"
         id="path214" /><path
         d="m 1665.75,3533.24 c -17.27,0 -34.49,1.74 -50.91,5.6 4.31,-1.01 8.48,-1.8 12.49,-2.35 14.11,-1.92 27.6,-2.78 40.41,-2.78 21.3,0 40.77,2.38 58.24,6.22 -19.31,-4.25 -39.8,-6.69 -60.23,-6.69 m 60.5,6.75 c 0.08,0.02 0.15,0.04 0.23,0.06 -0.05,-0.01 -0.1,-0.03 -0.15,-0.04 -0.03,-0.01 -0.06,-0.01 -0.08,-0.02 m 0.36,0.08 c 0.07,0.02 0.13,0.03 0.19,0.05 -0.06,-0.02 -0.12,-0.03 -0.19,-0.05 m 0.35,0.08 c 0.05,0.01 0.11,0.03 0.17,0.04 -0.06,-0.01 -0.12,-0.03 -0.17,-0.04 m 0.47,0.11 c 0.04,0.01 0.08,0.02 0.12,0.03 -0.04,-0.01 -0.08,-0.02 -0.12,-0.03 m 0.33,0.07 c 0.05,0.01 0.1,0.03 0.16,0.04 -0.06,-0.01 -0.11,-0.03 -0.16,-0.04 m 0.35,0.08 c 0.05,0.01 0.09,0.02 0.14,0.04 -0.05,-0.02 -0.1,-0.03 -0.14,-0.04 m 0.4,0.09 c 0.06,0.02 0.12,0.03 0.18,0.05 -0.06,-0.02 -0.12,-0.03 -0.18,-0.05 m 0.37,0.09 c 0.06,0.01 0.12,0.03 0.18,0.04 -0.06,-0.01 -0.12,-0.02 -0.18,-0.04 m 0.31,0.07 c 0.08,0.02 0.14,0.04 0.21,0.05 -0.07,-0.01 -0.14,-0.03 -0.21,-0.05 m 0.28,0.07 c 0.17,0.04 0.32,0.07 0.49,0.11 -0.16,-0.04 -0.33,-0.07 -0.49,-0.11 m 0.51,0.12 c 0.09,0.02 0.17,0.04 0.25,0.06 -0.08,-0.02 -0.17,-0.04 -0.25,-0.06 m 0.3,0.07 c 12.83,3.05 24.52,6.89 35.03,11.12 -11.37,-4.58 -23.1,-8.28 -35.03,-11.12 m 35.09,11.14 c 0.06,0.03 0.12,0.05 0.18,0.08 -0.06,-0.03 -0.12,-0.05 -0.18,-0.08 m 0.49,0.2 c 0.02,0.01 0.03,0.01 0.04,0.02 -0.01,-0.01 -0.02,-0.01 -0.04,-0.02 m -218.46,11.87 c -13.66,6.64 -27.05,13.85 -40.17,21.13 11.49,-6.37 25.28,-13.69 39.92,-20.73 0.08,-0.14 0.17,-0.27 0.25,-0.4 m 256.19,7.67 c 5.77,3.34 11.98,6.25 18.4,8.79 -3.58,-1.46 -7.11,-3.04 -10.56,-4.71 -2.65,-1.3 -5.26,-2.67 -7.84,-4.08"
         style="fill:#a1a1ac;fill-opacity:1;fill-rule:nonzero;stroke:none"
         id="path216" /><path
         d="m 1920.89,3597.96 c 0.13,0 0.26,0 0.39,0 0,0 0,0 0,0 -0.13,0 -0.26,0 -0.39,0"
         style="fill:#121523;fill-opacity:1;fill-rule:nonzero;stroke:none"
         id="path218" /><path
         d="m 1608.58,3540.43 c -21.05,5.68 -41.41,14.09 -61.18,23.7 -0.08,0.13 -0.17,0.26 -0.25,0.4 20.11,-9.67 41.83,-18.79 61.43,-24.1"
         style="fill:#4e2d1f;fill-opacity:1;fill-rule:nonzero;stroke:none"
         id="path220" /><path
         d="m 1667.74,3533.71 c -12.81,0 -26.3,0.86 -40.41,2.78 -4.01,0.55 -8.18,1.34 -12.49,2.35 -1.82,0.43 -3.63,0.88 -5.43,1.36 -0.28,0.07 -0.56,0.15 -0.83,0.23 -19.6,5.31 -41.32,14.43 -61.43,24.1 v 0 c -14.64,7.04 -28.43,14.36 -39.92,20.73 -0.22,0.12 -0.43,0.24 -0.65,0.36 -31.52,17.49 -35.07,54.8 -35.25,87.58 18.18,-8.14 36.68,-9.14 56.88,-9.14 3.26,0 6.56,0.03 9.91,0.06 3.36,0.02 6.76,0.05 10.22,0.05 6.9,0 14.02,-0.1 21.41,-0.51 7.85,-25.48 22.77,-48.37 45.62,-62.73 20.24,-12.71 44.19,-18.43 68.02,-18.43 7.63,0 15.26,0.59 22.75,1.72 34.18,5.18 65.75,20.33 97.12,34.08 20.38,8.94 40.51,16.17 61.34,16.17 10.23,0 20.64,-1.75 31.33,-5.89 10.23,-9.04 18.03,-19.14 25.35,-30.62 -0.13,0 -0.26,0 -0.39,0 -32.67,-0.04 -68.14,-4.82 -98.9,-17.37 -6.42,-2.54 -12.63,-5.45 -18.4,-8.79 -10.18,-5.57 -19.96,-11.78 -30.64,-16.53 -2.33,-1.04 -4.68,-2.04 -7.05,-2.99 -0.01,-0.01 -0.02,-0.01 -0.04,-0.02 -0.1,-0.04 -0.2,-0.08 -0.31,-0.12 -0.06,-0.03 -0.12,-0.05 -0.18,-0.08 -0.02,-0.01 -0.04,-0.01 -0.06,-0.02 -10.51,-4.23 -22.2,-8.07 -35.03,-11.12 -0.01,0 -0.03,-0.01 -0.05,-0.01 -0.08,-0.02 -0.16,-0.04 -0.25,-0.06 -0.01,0 -0.02,-0.01 -0.02,-0.01 -0.17,-0.04 -0.32,-0.07 -0.49,-0.11 -0.02,-0.01 -0.04,-0.01 -0.07,-0.02 -0.07,-0.01 -0.13,-0.03 -0.21,-0.05 -0.04,-0.01 -0.08,-0.02 -0.13,-0.03 -0.06,-0.01 -0.12,-0.03 -0.18,-0.04 -0.06,-0.02 -0.13,-0.03 -0.19,-0.04 -0.06,-0.02 -0.12,-0.03 -0.18,-0.05 -0.09,-0.02 -0.17,-0.04 -0.26,-0.05 -0.05,-0.02 -0.09,-0.03 -0.14,-0.04 -0.07,-0.01 -0.13,-0.03 -0.19,-0.04 -0.06,-0.01 -0.11,-0.03 -0.16,-0.04 -0.07,-0.01 -0.14,-0.03 -0.21,-0.04 -0.04,-0.01 -0.08,-0.02 -0.12,-0.03 -0.1,-0.03 -0.2,-0.05 -0.3,-0.07 -0.06,-0.01 -0.12,-0.03 -0.17,-0.04 -0.05,-0.01 -0.11,-0.02 -0.16,-0.03 -0.06,-0.02 -0.12,-0.03 -0.19,-0.05 -0.04,-0.01 -0.08,-0.02 -0.13,-0.02 -0.08,-0.02 -0.15,-0.04 -0.23,-0.06 -0.09,-0.02 -0.18,-0.04 -0.27,-0.06 -17.47,-3.84 -36.94,-6.22 -58.24,-6.22"
         style="fill:#2b2b3d;fill-opacity:1;fill-rule:nonzero;stroke:none"
         id="path222" /><path
         d="m 1630.61,3508.67 c 6.82,31.14 8.97,63.12 6.74,94.93 -3.91,55.56 -8.95,114.71 -62.51,100.34 -71.88,-19.27 -28.08,-102.41 -8.46,-127.64 41.93,-53.9 32.41,-76.8 32.41,-76.8 -4.22,-17.97 -36.99,-13.04 -53.9,-17.97 -11.83,-3.45 -5.04,-15.96 0.11,-23.15 2.34,-3.28 6.09,-5.21 10.12,-5.21 h 44.49 c 9.47,0 17.81,6.18 20.51,15.26 3.08,10.33 7.12,24.87 10.49,40.24"
         style="fill:#434359;fill-opacity:1;fill-rule:nonzero;stroke:none"
         id="path224" /><path
         d="m 1623.57,3478.88 c 4.68,18.34 8.98,36.82 11.53,55.58 -15.89,-3.62 -32.51,2.56 -46.91,8.82 1.03,-1.94 2.04,-3.9 2.95,-5.9 4.99,-10.53 10.64,-24.28 8.08,-36.28 v 0 l -0.36,-1.41 v -0.01 l -0.07,-0.18 c -3.77,-16.05 -29.43,-14.59 -41.83,-15.89 -6.69,-0.7 -19.24,-1.16 -18.6,-10.6 0.56,-8.26 7.74,-19.84 16.76,-19.84 h 45.46 c 9.93,0 18.58,6.83 20.85,16.5 0.74,3.17 1.41,6.32 2.14,9.21"
         style="fill:#925a3a;fill-opacity:1;fill-rule:nonzero;stroke:none"
         id="path226" /><path
         d="m 1485.88,3776.73 c 1.03,0.56 2,1.17 3.06,1.7 39.78,19.84 67.98,49.47 90.24,87.64 1.83,3.14 3.84,5.89 5.94,8.45 -13.67,42.5 -37.15,93.34 -72.55,100.42 -62.19,12.44 -91.01,-7.91 -98.36,-15.26 -7.35,-7.35 -8.48,-21.48 -32.79,-27.13 -24.31,-5.66 -70.66,-31.66 -78.58,-34.49 -7.91,-2.83 -11.3,-17.52 9.61,-29.96 0,0 11.31,-5.09 19.79,-14.7 8.48,-9.61 107.4,-12.43 158.28,-0.56 0,0 -2.74,-31.18 -4.64,-76.11"
         style="fill:#434359;fill-opacity:1;fill-rule:nonzero;stroke:none"
         id="path228" /><path
         d="m 1436.14,3877.21 -0.22,0.1 c -2.73,1.17 -5.52,1.96 -8.45,2.45 -17.39,2.92 -35.36,8.35 -50.59,16.26 -7.27,3.78 -14.52,7.59 -21.59,11.75 -4.63,2.72 -8.5,6.17 -12.37,9.66 l -0.18,0.03 c -18.32,-8.62 -35.38,-17.78 -39.9,-19.4 -7.91,-2.83 -11.3,-17.52 9.61,-29.96 0,0 11.31,-5.09 19.79,-14.7 6.07,-6.88 58.54,-10.25 106.53,-7.26 1.35,1.72 2.72,3.46 4.09,5.21 6.78,8.69 3.4,21.5 -6.72,25.86"
         style="fill:#925a3a;fill-opacity:1;fill-rule:nonzero;stroke:none"
         id="path230" /><path
         d="m 1490.26,3852.78 c 0.08,0.02 0.17,0.04 0.26,0.06 v 0 c -0.09,-0.02 -0.18,-0.04 -0.26,-0.06"
         style="fill:#1c1d29;fill-opacity:1;fill-rule:nonzero;stroke:none"
         id="path232" /><path
         d="m 1488.85,3830.71 c 0.95,13.95 1.67,22.13 1.67,22.13 v 0 0 c -0.09,-0.02 -0.18,-0.04 -0.26,-0.06 -11.27,-2.61 -24.91,-4.46 -39.34,-5.71 3.33,4.28 15.17,16.31 18.39,21.35 14.92,23.35 18.28,40.77 33.71,63.91 7.69,11.53 6.43,13.03 18.27,13.93 4.35,-0.85 8.36,-2.72 12.29,-5.48 l 1.27,-1.94 c 1.81,-2.55 3.77,-4.82 5.78,-6.95 -9.99,-21.65 -16.15,-44.14 -27.19,-67.76 -6.03,-12.9 -14.51,-23.98 -24.59,-33.42"
         style="fill:#2b2b3d;fill-opacity:1;fill-rule:nonzero;stroke:none"
         id="path234" /><path
         d="m 1320.05,3906.36 c -8.26,-4.15 -14.71,-7.41 -17.21,-8.3 -7.91,-2.83 -11.3,-17.52 9.61,-29.96 0,0 1.56,0.51 3.75,1.36 4.47,2.12 9.21,5.48 12.23,8.93 6.59,7.52 7.88,27.97 -8.38,27.97"
         style="fill:#101726;fill-opacity:1;fill-rule:nonzero;stroke:none"
         id="path236" /><path
         d="m 1554.67,3934.17 c -5.35,5.23 -12.59,8.36 -20.06,8.02 -6.99,-0.32 -15.26,-3.29 -20.35,-13.89 -8.83,-18.39 -58.54,-111.52 -25.51,-157.42 8.76,-12.17 25.73,-15.07 38.5,-7.24 26.5,16.25 74.25,49.27 74.65,76.32 0.47,32.27 -29.66,77.01 -47.23,94.21"
         style="fill:#434359;fill-opacity:1;fill-rule:nonzero;stroke:none"
         id="path238" /><path
         d="m 1410.25,3939.89 c 0,0 -3.82,-13.1 3.09,-15.83 6.92,-2.73 19.11,4.73 19.11,4.73 0,0 -14.92,11.28 -22.2,11.1"
         style="fill:#0d1421;fill-opacity:1;fill-rule:nonzero;stroke:none"
         id="path240" /><path
         d="m 1370.38,3846.04 c 6.58,-0.43 13.72,-0.73 21.2,-0.88 16.15,3.6 30.45,10.06 33.08,13.05 4.24,4.8 -7.34,7.63 -16.95,2.36 -6.7,-3.67 -26.15,-10.64 -37.33,-14.53"
         style="fill:#101726;fill-opacity:1;fill-rule:nonzero;stroke:none"
         id="path242" /><path
         d="m 1416.15,3925.22 c 3.28,-0.14 6.07,2.89 6.24,6.77 0.06,1.47 -0.35,2.77 -0.95,3.92 -2.21,1.22 -4.44,2.26 -6.55,2.99 -2.41,-0.82 -4.25,-3.3 -4.38,-6.4 -0.16,-3.88 2.36,-7.14 5.64,-7.28"
         style="fill:#2b242b;fill-opacity:1;fill-rule:nonzero;stroke:none"
         id="path244" /><path
         d="m 1416.4,3934.19 c -0.04,-0.9 -0.8,-1.6 -1.7,-1.56 -0.9,0.03 -1.6,0.8 -1.57,1.69 0.04,0.91 0.8,1.61 1.71,1.57 0.9,-0.04 1.6,-0.8 1.56,-1.7"
         style="fill:#ece9ec;fill-opacity:1;fill-rule:nonzero;stroke:none"
         id="path246" /></g></g></svg>
