<?xml version="1.0" encoding="UTF-8" standalone="no"?>
<svg
   version="1.1"
   id="svg2"
   xml:space="preserve"
   width="95.353462"
   height="78.553154"
   viewBox="0 0 95.353463 78.553153"
   sodipodi:docname="pomeranian.svg"
   inkscape:version="1.1 (c68e22c387, 2021-05-23)"
   xmlns:inkscape="http://www.inkscape.org/namespaces/inkscape"
   xmlns:sodipodi="http://sodipodi.sourceforge.net/DTD/sodipodi-0.dtd"
   xmlns="http://www.w3.org/2000/svg"
   xmlns:svg="http://www.w3.org/2000/svg"
   xmlns:rdf="http://www.w3.org/1999/02/22-rdf-syntax-ns#"
   xmlns:cc="http://creativecommons.org/ns#"
   xmlns:dc="http://purl.org/dc/elements/1.1/"><metadata
     id="metadata8"><rdf:RDF><cc:Work
         rdf:about=""><dc:format>image/svg+xml</dc:format><dc:type
           rdf:resource="http://purl.org/dc/dcmitype/StillImage" /></cc:Work></rdf:RDF></metadata><defs
     id="defs6" /><sodipodi:namedview
     pagecolor="#ffffff"
     bordercolor="#666666"
     borderopacity="1"
     objecttolerance="10"
     gridtolerance="10"
     guidetolerance="10"
     inkscape:pageopacity="0"
     inkscape:pageshadow="2"
     inkscape:window-width="1920"
     inkscape:window-height="1001"
     id="namedview4"
     inkscape:pagecheckerboard="0"
     showgrid="false"
     inkscape:zoom="1.4275333"
     inkscape:cx="-33.974689"
     inkscape:cy="166.3709"
     inkscape:window-x="-9"
     inkscape:window-y="-9"
     inkscape:window-maximized="1"
     inkscape:current-layer="g12" /><g
     id="g10"
     inkscape:groupmode="layer"
     inkscape:label="ink_ext_XXXXXX"
     transform="matrix(1.3333333,0,0,-1.3333333,-178.89066,240.60648)"><g
       id="g12"
       transform="scale(0.1)"><path
         d="m 1828.23,1353.87 c 0,0 23.65,-79.81 14.42,-88.25 -9.23,-8.44 -34.61,-1.55 -36.92,-15.48 -2.31,-13.94 13.27,-22.59 52.49,-22.59 39.23,0 27.16,82.73 43.31,136.95 l -73.3,-10.63"
         style="fill:#bb8561;fill-opacity:1;fill-rule:nonzero;stroke:none"
         id="path1096" /><path
         d="m 1862.84,1341.72 c 0,0 23.65,-79.81 14.42,-88.25 -9.23,-8.44 -34.61,-1.55 -36.92,-15.48 -2.31,-13.94 13.27,-22.59 52.49,-22.59 25.29,0 22.58,49.29 26.54,88.25 2.18,21.48 11.03,37.26 16.77,56.53 l -73.3,-18.46"
         style="fill:#d49c7a;fill-opacity:1;fill-rule:nonzero;stroke:none"
         id="path1098" /><path
         d="m 1522.88,1353.87 c 0,0 23.65,-79.81 14.42,-88.25 -9.23,-8.44 -34.61,-1.55 -36.92,-15.48 -2.3,-13.94 13.27,-22.59 52.5,-22.59 39.22,0 27.16,82.73 43.31,136.95 l -73.31,-10.63"
         style="fill:#bb8561;fill-opacity:1;fill-rule:nonzero;stroke:none"
         id="path1100" /><path
         d="m 1557.49,1341.72 c 0,0 23.65,-79.81 14.42,-88.25 -9.23,-8.44 -34.61,-1.55 -36.92,-15.48 -2.3,-13.94 13.27,-22.59 52.5,-22.59 39.22,0 27.15,82.73 43.31,136.95 l -73.31,-10.63"
         style="fill:#d49c7a;fill-opacity:1;fill-rule:nonzero;stroke:none"
         id="path1102" /><path
         d="m 2007.62,1605.88 c -7.69,13.01 -73.83,113.5 -125.75,89.24 -51.91,-24.27 -98.06,-56.49 -136.13,-56.49 -32.04,0 -100.15,36.62 -112,45.06 -11.89,8.46 -19.94,20.57 -30.8,29.93 -9.01,-0.44 -18.58,0.31 -28.06,1.4 -44.82,-12.68 -91.35,-21.09 -129.96,-3.6 -12.19,-32.49 -24.93,-66.56 -27.2,-77.02 -3.85,-17.69 -54.05,-75.38 -27.02,-147.67 0,0 -7.59,-31.53 19.33,-50.76 0,0 -1.54,-29.23 49.22,-46.92 0,0 1.92,11.15 5.38,13.46 0,0 27.14,-61.46 64.43,-59.76 0,0 21.19,-32.33 37.89,-25.41 0,0 29.33,-25.47 43.81,-9.94 0,0 21.73,-6.7 32.3,-5.02 17.79,2.82 31.54,18.04 31.54,18.04 49.75,-15.17 63.83,5.56 63.83,5.56 45.96,-20.31 76.92,3.85 76.92,3.85 35.37,-21.54 58.45,0.65 58.45,0.65 55.37,-22.42 48.62,0.93 48.62,0.93 55.59,-7.44 63.67,32.31 63.67,32.31 46.14,16.97 36.91,63.36 36.91,63.36 32.31,12.64 26.15,51.96 26.15,51.96 29.23,46.14 -33.84,113.83 -41.53,126.84"
         style="fill:#edd0b7;fill-opacity:1;fill-rule:nonzero;stroke:none"
         id="path1104" /><path
         d="m 2026,1580.76 c -2.94,9.88 -26.32,4.15 -31.27,12.88 -11.45,8.24 -25.86,20.27 -43.25,42.61 -13.34,17.13 -2.68,29.54 -18.84,44.03 -5.95,5.34 -12.02,10.71 -18.22,15.98 -11.03,3.51 -22.08,3.75 -32.55,-1.14 -51.91,-24.27 -98.06,-56.49 -136.13,-56.49 -35.58,0 -95.03,44.5 -101.7,48.03 l -0.18,0.13 c 1.92,-22.06 4.63,-44 6.88,-66 -15.1,30.72 -31.22,61.13 -40.01,93.52 -11.15,-1.6 -23.59,-0.7 -35.85,0.71 -44.82,-12.68 -91.35,-21.09 -129.96,-3.6 -12.19,-32.49 -24.93,-66.56 -27.2,-77.02 -3.85,-17.69 -71.53,-74.15 -27.02,-147.67 0,0 -7.59,-31.53 19.33,-50.76 0,0 -1.54,-29.23 49.22,-46.92 0,0 1.92,11.15 5.38,13.46 0,0 27.14,-61.46 64.43,-59.76 0,0 8.07,-12.29 18.18,-20.1 2.31,6.49 4.36,16.08 12.78,19.08 81.51,29.03 58.82,64.41 58.82,64.41 11.96,-2.69 11.96,-23.08 11.96,-23.08 43.92,-5.85 82.39,24.33 82.64,45.38 0,0 21.58,-28.34 56.77,-22.78 20.62,3.25 33.86,17.89 49.61,37.49 -0.39,-0.48 30.89,-20.84 56.53,-10.96 24.72,9.53 57.93,52.99 38.76,76.14 -7.89,9.53 -23.97,24.31 -24.34,42.07 -0.31,14.49 54.72,5.38 81.38,-26 8.42,-9.91 22.94,-12.16 34.5,-6.21 28,14.42 24.43,45.51 19.35,62.57"
         style="fill:#d49c7a;fill-opacity:1;fill-rule:nonzero;stroke:none"
         id="path1106" /><path
         d="m 1832.14,1721.56 c 13.46,8.02 35.06,15.86 69.39,18.69 0,0 40.72,-0.05 63.02,-7.88 0,0 -22.21,-3.98 -28.41,-3.98 0,0 41.49,-12.3 53.02,-28.45 0,0 -37.59,7.69 -53.02,3.84 0,0 76.1,1.54 98.4,-75.37 0,0 -42.3,34.61 -70.76,35.38 0,0 65.38,-32.3 59.22,-90.76 0,0 -13.84,19.23 -28.45,29.23 0,0 40.76,-39.99 6.15,-85.37 0,0 -0.77,41.53 -13.07,54.6 -12.31,13.08 -41.44,26.16 -51.49,44.61 0,0 11.49,-26.92 26.87,-34.61 0,0 -51.53,-20.89 -78.45,13.02 -26.91,33.9 -24.61,49.28 -24.61,49.28 0,0 -10.76,-13.84 7.69,-40.76 0,0 -41.2,0.77 -62.13,34.61 -12.07,19.52 -11.3,37 -6.85,48.44 3.26,8.39 15.61,24.83 33.48,35.48"
         style="fill:#edd0b7;fill-opacity:1;fill-rule:nonzero;stroke:none"
         id="path1108" /><path
         d="m 1637.49,1684.48 c -17.32,11.58 -25.43,18.92 -38.33,35.03 -0.26,0.32 -23.67,24.9 -27.23,35.61 -12.59,37.75 -83.38,56.37 -138.44,27.26 0,0 -16.26,-12.48 -12.06,-27.48 4.19,-14.99 6.55,-31.12 2.23,-31.9 -4.33,-0.79 -29.11,-1.18 -33.43,0.39 -4.33,1.57 -27.01,-49.03 38.54,-54.8 0,0 -8.66,-30.44 -8.14,-39.88 0.48,-8.65 194.48,-55.31 226.04,51.31 -3.16,1.12 -6.26,2.51 -9.18,4.46"
         style="fill:#d49c7a;fill-opacity:1;fill-rule:nonzero;stroke:none"
         id="path1110" /><path
         d="m 1444.17,1738.71 c -0.25,12.32 -12.87,12.92 -23.02,18.41 l 0.28,-2.22 c 3.56,-12.74 5.76,-26.21 3.69,-30.47 11.61,10.13 19.19,7.25 19.05,14.28"
         style="fill:#c38863;fill-opacity:1;fill-rule:nonzero;stroke:none"
         id="path1112" /><path
         d="m 1428.77,1668.59 c 0,0 -4.39,-15.44 -6.73,-27.74 20.43,0.9 40.94,5.74 38.04,31.52 -2.96,26.36 -21.86,35.55 -38.1,50.44 -6.85,-0.65 -27.79,-0.86 -31.75,0.58 -4.33,1.57 -27.01,-49.03 38.54,-54.8"
         style="fill:#dcad91;fill-opacity:1;fill-rule:nonzero;stroke:none"
         id="path1114" /><path
         d="m 1458.92,1716.31 c 0,0 -10.75,14.16 -20.45,10.23 -9.7,-3.94 -4.2,-18.09 1.84,-17.05 6.03,1.05 18.61,6.82 18.61,6.82"
         style="fill:#3d4353;fill-opacity:1;fill-rule:nonzero;stroke:none"
         id="path1116" /><path
         d="m 1397.7,1706.3 c 6.52,2.46 7.97,10.37 8.13,16.02 -6.89,0.03 -13.42,1.06 -15.6,1.07 -5.65,0.04 -10.12,-9.73 -7.27,-19.45 5.22,-0.67 9.95,0.54 14.74,2.36"
         style="fill:#0d1421;fill-opacity:1;fill-rule:nonzero;stroke:none"
         id="path1118" /><path
         d="m 1428.77,1677.77 c -8.33,-0.58 -29.36,4.84 -39.78,7.72 6.25,-8.18 18.15,-14.99 39.78,-16.9 0,0 2.59,-3.48 5.91,-8.34 10.22,4.46 3.3,18.16 -5.91,17.52"
         style="fill:#0d1421;fill-opacity:1;fill-rule:nonzero;stroke:none"
         id="path1120" /><path
         d="m 1552.45,1715.26 c 0,0 -24.84,27.74 -31.67,51.97 0,0 21.15,25.36 43.67,35.77 20.06,9.27 17.39,-25.83 14.56,-32.41 -8.69,-20.16 -18.49,-24.78 -26.56,-55.33"
         style="fill:#dcad91;fill-opacity:1;fill-rule:nonzero;stroke:none"
         id="path1122" /><path
         d="m 1544.81,1724.76 c 0,0 -15.64,15.18 -19.66,29.79 0,0 19.29,23.85 27.9,26.26 7.67,2.15 11.46,-2.24 7.53,-8.01 -3.28,-4.81 -5,-16.58 -6.89,-22.09 -2.96,-8.65 -5.92,-17.3 -8.88,-25.95"
         style="fill:#d67462;fill-opacity:1;fill-rule:nonzero;stroke:none"
         id="path1124" /><path
         d="m 1443.36,1628.25 c -2.02,16.2 2.78,33.13 13,45.86 8.34,-14.67 15.63,-29.95 21.79,-45.67 -2.46,16.53 1.1,33.9 9.87,48.13 14.75,-11.97 29.5,-23.94 44.24,-35.92 -9.02,13.69 -10.71,31.91 -4.35,47.02 16.61,-13.64 37.63,-21.83 59.09,-23.02 -12.86,10.7 -19.88,28.01 -18.11,44.64 14.95,-5.58 29.91,-11.17 44.86,-16.76 -9.33,13.07 -19.08,18.69 -20.23,34.69 11.42,-9.19 23.12,-18.3 35.91,-25.54 13.2,-7.48 24.96,-21.82 27.05,-37.78 4.09,-31.11 -7.58,-51.88 -22.33,-78.88 1.05,12.95 -2.92,26.25 -10.91,36.51 5.82,-30.87 -24.76,-56.53 -30.85,-87.35 -6.3,10.59 -9.83,22.82 -10.14,35.14 -19.41,-34.35 -37.59,-74.41 -25.6,-112.01 -9.55,4.8 -18.18,11.4 -25.31,19.35 7.31,-34.64 3.62,-71.51 -10.4,-104.01 -0.66,15.98 -6,31.75 -15.18,44.86 13.92,-19.87 -17.26,-70.49 -41.3,-56.05 -12.28,7.37 -0.87,26.93 -7.78,33.66 -3.49,3.4 -33.33,-15.06 -40.39,-17.37 1.53,17.94 3.06,35.88 4.59,53.82 2.57,-0.53 5.13,-1.06 7.7,-1.59 -13.91,-1.76 -24.97,-15.99 -23.25,-29.9 -15.9,23.24 -23.27,52.19 -20.4,80.21 -5.33,-3.7 -9.25,-9.39 -10.79,-15.69 -13.16,29.66 -13.58,64.73 -1.12,94.69 -9.96,-4 -18.52,-11.39 -23.93,-20.65 -1.18,14.64 -2.35,29.51 0.61,43.89 2.96,14.38 10.67,28.47 23.43,35.74 -11.04,-1.53 -21.78,-5.19 -31.45,-10.74 4.67,20.73 20.83,38.48 41.04,45.05 14.24,4.64 30.21,4.13 44.12,8.88 0,0 -1.02,-14 16.52,-33.21"
         style="fill:#edd0b7;fill-opacity:1;fill-rule:nonzero;stroke:none"
         id="path1126" /><path
         d="m 1445.97,1711.08 c 1.28,2.93 2.06,6.52 2.06,10.44 0,1.45 -0.13,2.84 -0.33,4.19 -2.94,1.4 -6.12,2.09 -9.23,0.83 -9.7,-3.94 -4.2,-18.09 1.84,-17.05 1.55,0.28 3.55,0.87 5.66,1.59"
         style="fill:#0d1421;fill-opacity:1;fill-rule:nonzero;stroke:none"
         id="path1128" /><path
         d="m 1442.77,1722.43 c 0,-1.69 -1.35,-3.06 -3.02,-3.06 -1.67,0 -3.02,1.37 -3.02,3.06 0,1.69 1.35,3.05 3.02,3.05 1.67,0 3.02,-1.36 3.02,-3.05"
         style="fill:#d6d8d5;fill-opacity:1;fill-rule:nonzero;stroke:none"
         id="path1130" /></g></g></svg>
