<?xml version="1.0" encoding="UTF-8" standalone="no"?>
<svg
   version="1.1"
   id="svg2"
   xml:space="preserve"
   width="144.08"
   height="103.16524"
   viewBox="0 0 144.08 103.16524"
   sodipodi:docname="rottweiler.svg"
   inkscape:version="1.1 (c68e22c387, 2021-05-23)"
   xmlns:inkscape="http://www.inkscape.org/namespaces/inkscape"
   xmlns:sodipodi="http://sodipodi.sourceforge.net/DTD/sodipodi-0.dtd"
   xmlns="http://www.w3.org/2000/svg"
   xmlns:svg="http://www.w3.org/2000/svg"
   xmlns:rdf="http://www.w3.org/1999/02/22-rdf-syntax-ns#"
   xmlns:cc="http://creativecommons.org/ns#"
   xmlns:dc="http://purl.org/dc/elements/1.1/"><metadata
     id="metadata8"><rdf:RDF><cc:Work
         rdf:about=""><dc:format>image/svg+xml</dc:format><dc:type
           rdf:resource="http://purl.org/dc/dcmitype/StillImage" /></cc:Work></rdf:RDF></metadata><defs
     id="defs6" /><sodipodi:namedview
     pagecolor="#ffffff"
     bordercolor="#666666"
     borderopacity="1"
     objecttolerance="10"
     gridtolerance="10"
     guidetolerance="10"
     inkscape:pageopacity="0"
     inkscape:pageshadow="2"
     inkscape:window-width="1920"
     inkscape:window-height="1001"
     id="namedview4"
     inkscape:pagecheckerboard="0"
     showgrid="false"
     inkscape:zoom="1.4275333"
     inkscape:cx="-151.66021"
     inkscape:cy="151.66021"
     inkscape:window-x="-9"
     inkscape:window-y="-9"
     inkscape:window-maximized="1"
     inkscape:current-layer="g12" /><g
     id="g10"
     inkscape:groupmode="layer"
     inkscape:label="ink_ext_XXXXXX"
     transform="matrix(1.3333333,0,0,-1.3333333,-296.35007,563.58817)"><g
       id="g12"
       transform="scale(0.1)"><path
         d="m 2533.99,3778.29 c 30.98,-14.92 66.55,-32.81 103.46,-34.65 v 82.76 l -207.26,52.4 c -7.82,-104.08 24.83,-179.23 43.91,-233.91 27.22,-78.05 5.44,-123.88 5.44,-123.88 -48.37,0 -56.37,-19.17 -55.32,-34.02 0.69,-9.73 8.93,-17.17 18.68,-17.38 21.75,-0.47 62.4,-1.14 69.31,0.33 8.14,1.72 23.24,78.5 27.47,100.85 0.74,3.96 0.61,8.06 -0.34,11.98 -26.75,111.41 -5.35,195.52 -5.35,195.52"
         style="fill:#191616;fill-opacity:1;fill-rule:nonzero;stroke:none"
         id="path314" /><path
         d="m 2543.52,3639 c -15.33,-8.9 -42.46,-37.37 -56.63,-35.76 l -2.06,0.43 c 8.92,-52.69 -5.29,-82.66 -5.29,-82.66 -48.37,0 -56.38,-19.17 -55.32,-34.02 0.69,-9.73 8.93,-17.17 18.68,-17.38 21.75,-0.47 62.4,-1.14 69.31,0.33 8.14,1.72 23.24,78.5 27.46,100.85 0.75,3.96 0.61,8.06 -0.33,11.98 -2.78,11.6 6,45.28 4.18,56.23"
         style="fill:#875426;fill-opacity:1;fill-rule:nonzero;stroke:none"
         id="path316" /><path
         d="m 3179.24,3651.25 c -10.89,10.89 -57.18,53.54 -83.49,87.12 -21.78,27.79 -33.61,24.57 -39.62,84.85 h -155.95 v -7.76 c 1.39,0.58 2.27,0.96 2.27,0.96 24.5,-117.07 206.91,-184.23 206.91,-184.23 22.72,-50.67 24.5,-84.53 22.86,-102.27 -0.77,-8.32 -7.63,-14.62 -15.97,-15.03 -24.49,-1.21 -37.74,-6.71 -44.56,-13.44 -11.37,-11.22 -2.32,-30.84 13.64,-31.31 28.43,-0.85 85.77,-2.2 93.91,0.51 10.89,3.64 10.89,169.71 0,180.6"
         style="fill:#191616;fill-opacity:1;fill-rule:nonzero;stroke:none"
         id="path318" /><path
         d="m 3103.56,3634.46 c 3.67,-1.48 5.8,-2.27 5.8,-2.27 22.72,-50.67 24.5,-84.52 22.86,-102.27 -0.77,-8.32 -7.63,-14.62 -15.97,-15.03 -24.49,-1.21 -37.74,-6.71 -44.56,-13.44 -11.37,-11.22 -2.32,-30.84 13.64,-31.31 28.43,-0.85 85.77,-2.2 93.91,0.51 9.09,3.03 10.58,119.11 4.5,163.81 h -80.18"
         style="fill:#875426;fill-opacity:1;fill-rule:nonzero;stroke:none"
         id="path320" /><path
         d="m 3031.77,3944.83 c 0,0 50.82,-13.61 75.32,-53.54 24.5,-39.93 71.69,-143.39 189.67,-124.33 0,0 9.53,-1.36 5.45,-11.35 -4.09,-9.98 -35.29,-67.61 -134.71,-16.79 -99.43,50.82 -137.37,196.91 -135.73,206.01"
         style="fill:#1d1a1b;fill-opacity:1;fill-rule:nonzero;stroke:none"
         id="path322" /><path
         d="m 2533.99,3739.28 c 0,0 32.68,-56.49 142.26,-38.15 44.46,7.43 88.53,17.07 132.4,27.39 38.04,8.96 129.64,58.4 151.42,30.27 23.59,-30.46 -10.89,75.78 -10.89,75.78 l -254.56,-12.25 c 0,0 -328.34,197.33 -317.82,135.47 48.27,-283.87 157.19,-218.51 157.19,-218.51"
         style="fill:#af8045;fill-opacity:1;fill-rule:nonzero;stroke:none"
         id="path324" /><path
         d="m 3205.1,3636.28 c -10.89,10.89 -57.17,53.54 -83.49,87.11 -26.32,33.59 -38.11,21.79 -42.65,131.59 -4.54,109.82 -91.66,122.52 -120.25,126.61 -28.58,4.08 -105.19,-6.24 -171.52,-12.25 -51.8,-4.71 -191.94,32.66 -206.91,47.64 -3.34,3.34 -9.6,13.98 -15.93,25.59 -16.79,30.8 -37.26,59.37 -61.31,84.9 -17.61,18.69 -37.35,44.85 -58.74,62.28 -14.28,11.64 -25.33,51.39 -109,31.84 0,0 -49.59,-12.3 -54.69,-36.73 0,0 4.67,-20.63 -4.02,-23.89 -8.68,-3.26 -51.57,-9.23 -52.66,-17.37 -1.08,-8.14 -7.6,-46.15 23.35,-58.64 0,0 -1.63,-17.37 12.48,-21.71 14.12,-4.34 84.59,-17.91 96.32,-34.2 2.3,-3.2 5.13,-8.36 8.17,-14.54 11.15,-77.14 52.05,-145.92 54.48,-164.97 10.67,-83.44 62.86,-152.23 86.68,-220.52 27.22,-78.05 5.44,-123.88 5.44,-123.88 -48.44,0 -56.4,-19.23 -55.31,-34.09 0.7,-9.69 8.89,-17.1 18.6,-17.31 21.74,-0.47 62.46,-1.14 69.38,0.33 8.15,1.72 23.27,78.66 27.48,100.91 0.59,3.13 0.57,6.33 0.05,9.47 -10.04,60.94 0.85,105.12 3.53,134.47 2.09,22.87 24.85,37.35 46.63,30.08 161.78,-53.98 277.61,59.68 307.1,72.45 24.5,-117.07 206.91,-184.23 206.91,-184.23 22.91,-51.09 24.53,-85.08 22.82,-102.71 -0.78,-8.1 -7.7,-14.19 -15.83,-14.59 -24.55,-1.2 -37.83,-6.7 -44.66,-13.44 -11.36,-11.22 -2.32,-30.84 13.65,-31.32 22.58,-0.68 63.42,-0.09 83.33,1.55 5.15,0.42 13.75,6.62 14.92,13.97 6.27,39.07 4.82,156.43 -4.35,165.6"
         style="fill:#2d2a2b;fill-opacity:1;fill-rule:nonzero;stroke:none"
         id="path326" /><path
         d="m 2333.05,4055.12 c -10.85,51.82 -35.18,66.99 -82.98,83.08 -7.66,2.58 -13.96,6.35 -19,10.94 -4.11,-1.71 -6.87,-3.56 -7.14,-5.54 -1.08,-8.14 -7.6,-46.15 23.35,-58.64 0,0 -1.63,-17.37 12.48,-21.71 10.19,-3.13 49.65,-11.09 75.28,-21.39 -0.47,4.46 -1.08,8.89 -1.99,13.26"
         style="fill:#af8045;fill-opacity:1;fill-rule:nonzero;stroke:none"
         id="path328" /><path
         d="m 2567.45,3633.08 c -15.57,-17.95 -31.04,-36.08 -51.32,-45.25 8.93,-52.71 -5.28,-82.69 -5.28,-82.69 -48.44,0 -56.4,-19.23 -55.32,-34.09 0.71,-9.69 8.9,-17.1 18.61,-17.31 21.74,-0.47 62.46,-1.14 69.38,0.33 8.14,1.72 23.24,78.52 27.47,100.85 0.58,3.09 0.6,6.31 0.08,9.41 -4.29,25.97 -4.68,48.71 -3.62,68.75"
         style="fill:#af8045;fill-opacity:1;fill-rule:nonzero;stroke:none"
         id="path330" /><path
         d="m 2999.62,3695.84 c 11.6,-9.77 23.71,-18.69 35.77,-26.72 -11.35,10.06 -22.94,19.63 -35.77,26.72"
         style="fill:#af8045;fill-opacity:1;fill-rule:nonzero;stroke:none"
         id="path332" /><path
         d="m 3127.71,3620.18 c 4.78,-1.95 7.51,-2.96 7.51,-2.96 22.79,-50.84 24.51,-84.75 22.85,-102.45 -0.78,-8.21 -7.54,-14.45 -15.78,-14.85 -24.6,-1.19 -37.9,-6.69 -44.74,-13.44 -11.37,-11.22 -2.32,-30.84 13.65,-31.32 22.58,-0.68 63.42,-0.09 83.33,1.54 5.15,0.43 13.75,6.63 14.92,13.98 4.19,26.08 4.92,87.02 2.23,127.4 -16.1,28.42 -49.87,21.02 -83.97,22.1"
         style="fill:#af8045;fill-opacity:1;fill-rule:nonzero;stroke:none"
         id="path334" /><path
         d="m 2782.04,3969.01 c 1.72,0.07 3.36,0.17 4.93,0.3 -1.56,-0.13 -3.21,-0.23 -4.93,-0.3 m -54,4.78 v 0 0 m -0.23,0.04 c 0,0 0,0 -0.01,0 h 0.01 m -0.23,0.04 c -53.59,8.75 -118.67,27.16 -140.8,38.79 -0.01,0.01 -0.01,0.02 -0.01,0.03 22.07,-11.63 87.18,-30.06 140.81,-38.82"
         style="fill:#b3b3b2;fill-opacity:1;fill-rule:nonzero;stroke:none"
         id="path336" /><path
         d="m 2735.55,3907.98 c -68.19,0 -135.35,24.78 -148.77,104.68 22.13,-11.63 87.21,-30.04 140.8,-38.79 0.08,-0.01 0.15,-0.03 0.22,-0.04 0.01,0 0.01,0 0.01,0 0.08,-0.01 0.15,-0.03 0.23,-0.04 v 0 c 18.55,-3.01 35.7,-4.86 49.2,-4.86 1.65,0 3.26,0.03 4.8,0.08 1.72,0.07 3.37,0.17 4.93,0.3 0.07,0.01 0.15,0.02 0.22,0.03 55.85,5.06 118.98,13.18 154.6,13.18 6.69,0 12.41,-0.29 16.92,-0.93 9.91,-1.42 26.89,-3.98 44.99,-11.16 -0.93,0.09 -1.87,0.18 -2.79,0.27 -5.75,0.55 -11.41,0.82 -16.99,0.82 -40.32,0 -76.29,-13.9 -112.41,-33 -29.57,-15.64 -83.07,-30.55 -135.96,-30.54"
         style="fill:#3a3839;fill-opacity:1;fill-rule:nonzero;stroke:none"
         id="path338" /><path
         d="m 2579.68,3714.29 v 0 c 0.65,1.04 1.34,2.04 2.09,3 -0.75,-0.96 -1.44,-1.96 -2.09,-3 m 145.47,0.8 c 106.61,6.91 180.46,76.53 203.16,86.36 v 0 0 c -22.7,-9.83 -96.55,-79.45 -203.16,-86.36 m -143.38,2.2 c 0.05,0.07 0.11,0.14 0.17,0.21 -0.06,-0.07 -0.12,-0.14 -0.17,-0.21 m 0.18,0.22 c 0.02,0.04 0.05,0.07 0.07,0.1 -0.02,-0.03 -0.05,-0.06 -0.07,-0.1 m 0.08,0.11 c 0.03,0.03 0.05,0.06 0.08,0.1 -0.03,-0.04 -0.05,-0.07 -0.08,-0.1 m 0.09,0.11 c 0.03,0.03 0.05,0.06 0.07,0.09 -0.02,-0.03 -0.04,-0.05 -0.07,-0.09 m 0.09,0.11 c 0.02,0.03 0.05,0.07 0.08,0.1 -0.03,-0.03 -0.06,-0.07 -0.08,-0.1 m 0.09,0.11 c 0.02,0.03 0.04,0.06 0.07,0.09 -0.03,-0.03 -0.05,-0.06 -0.07,-0.09 m 0.09,0.12 c 0.02,0.02 0.04,0.04 0.06,0.07 -0.02,-0.03 -0.04,-0.05 -0.06,-0.07 m 0.08,0.09 c 0.03,0.03 0.05,0.06 0.08,0.09 -0.03,-0.03 -0.05,-0.06 -0.08,-0.09 m 0.11,0.13 c 0.02,0.02 0.03,0.04 0.05,0.05 -0.02,-0.01 -0.03,-0.03 -0.05,-0.05 m 0.08,0.1 c 0.02,0.01 0.03,0.03 0.04,0.04 -0.01,-0.01 -0.02,-0.03 -0.04,-0.04 m 0.12,0.14 c 0.01,0.01 0.02,0.02 0.02,0.02 0,0 -0.01,-0.01 -0.02,-0.02 m 0.08,0.09 c 0,0.01 0.01,0.01 0.02,0.02 -0.01,-0.01 -0.02,-0.01 -0.02,-0.02 m 0.19,0.22 c 0.01,0.01 0.01,0.01 0.02,0.02 -0.01,-0.01 -0.01,-0.01 -0.02,-0.02 m 0.08,0.09 c 0,0 0,0 0.01,0.01 -0.01,-0.01 -0.01,-0.01 -0.01,-0.01 m 0.2,0.22 v 0 c 0,0 0,0 0,0 m 0.2,0.23 v 0 0"
         style="fill:#755531;fill-opacity:1;fill-rule:nonzero;stroke:none"
         id="path340" /><path
         d="m 2579.68,3714.29 c 0.2,9.71 0.03,19.48 -0.4,29.24 -0.83,18.81 13.09,35.71 31.88,37.01 l 0.43,0.03 c 1.17,0.07 2.37,0.11 3.59,0.11 20.67,0 47.31,-10.15 67.39,-14.05 11.48,-2.23 23.08,-3.17 34.69,-3.17 22.55,0 45.17,3.56 67.08,8.22 46.97,9.97 84.49,32.41 133.99,34.3 0.36,0.02 0.72,0.02 1.06,0.02 9.41,0 11.81,-5.11 10.87,-12.25 -0.69,2.55 -1.41,5.09 -1.95,7.7 v 0 c -22.7,-9.83 -96.55,-79.45 -203.16,-86.36 -5.59,-0.36 -11.27,-0.55 -17.03,-0.55 -27.12,0 -56.2,4.21 -86.91,14.46 -3.85,1.28 -7.73,1.89 -11.52,1.89 -10.11,0 -19.58,-4.3 -26.16,-11.51 v 0 c -0.07,-0.08 -0.13,-0.15 -0.2,-0.23 v 0 c -0.07,-0.07 -0.13,-0.14 -0.19,-0.21 -0.01,-0.01 -0.01,-0.01 -0.01,-0.01 -0.02,-0.03 -0.04,-0.05 -0.06,-0.07 -0.01,-0.01 -0.01,-0.01 -0.02,-0.02 -0.06,-0.07 -0.11,-0.13 -0.17,-0.2 -0.01,-0.01 -0.02,-0.01 -0.02,-0.02 -0.02,-0.03 -0.04,-0.05 -0.06,-0.07 0,0 -0.01,-0.01 -0.02,-0.02 -0.02,-0.03 -0.05,-0.06 -0.08,-0.1 -0.01,-0.01 -0.02,-0.03 -0.04,-0.04 -0.01,-0.01 -0.02,-0.03 -0.03,-0.05 -0.02,-0.01 -0.03,-0.03 -0.05,-0.05 -0.01,-0.01 -0.02,-0.03 -0.03,-0.04 -0.03,-0.03 -0.05,-0.06 -0.08,-0.09 0,-0.01 -0.01,-0.02 -0.02,-0.02 -0.02,-0.03 -0.04,-0.05 -0.06,-0.07 -0.01,-0.02 -0.01,-0.02 -0.02,-0.03 -0.03,-0.03 -0.05,-0.06 -0.07,-0.09 -0.01,0 -0.01,-0.01 -0.01,-0.01 -0.03,-0.03 -0.06,-0.07 -0.08,-0.1 -0.01,-0.01 -0.01,-0.01 -0.02,-0.02 -0.02,-0.03 -0.04,-0.06 -0.07,-0.09 0,0 -0.01,-0.01 -0.01,-0.01 -0.03,-0.04 -0.05,-0.07 -0.08,-0.1 0,0 0,-0.01 -0.01,-0.01 -0.02,-0.03 -0.05,-0.06 -0.07,-0.1 -0.01,0 -0.01,-0.01 -0.01,-0.01 -0.06,-0.07 -0.12,-0.14 -0.17,-0.21 0,0 0,0 0,0 -0.75,-0.96 -1.44,-1.96 -2.09,-3"
         style="fill:#201e1f;fill-opacity:1;fill-rule:nonzero;stroke:none"
         id="path342" /><path
         d="m 2401.18,4210.52 c -14.86,0.33 -36.27,1.06 -50.73,2.81 -7.27,-13.8 -11.35,-36.73 -9.55,-45.72 42.55,-57.78 61.14,-55.57 59.41,-48.49 -1.77,7.24 -2.26,27.17 3.95,44.01 6.11,16.53 19.68,46.89 -3.08,47.39"
         style="fill:#2d2a2b;fill-opacity:1;fill-rule:nonzero;stroke:none"
         id="path344" /><path
         d="m 2396.88,4115.52 c -7.17,0 -25.38,10.53 -55.98,52.08 v 0 c 30.6,-41.55 48.81,-52.08 55.98,-52.08 0.74,0 1.37,0.12 1.88,0.32 -0.51,-0.2 -1.14,-0.32 -1.88,-0.32 m 1.96,0.36 c 0,0 0,0 0,0 0,0 0,0 0,0 m 1.47,3.24 c -0.68,2.77 -1.17,7.4 -1.17,13.01 0,-5.61 0.49,-10.24 1.17,-13.01"
         style="fill:#201e1f;fill-opacity:1;fill-rule:nonzero;stroke:none"
         id="path346" /><path
         d="m 2396.88,4115.52 c -7.17,0 -25.38,10.53 -55.98,52.09 -0.84,4.21 -0.38,11.52 1.1,19.57 6.14,-12 12.87,-24.14 26.23,-26.69 2.66,-0.51 5.26,-0.75 7.8,-0.75 15.04,0 27.55,8.53 34.51,20.7 -1.99,-6.24 -4.46,-12.4 -6.28,-17.31 v 0 c -0.2,-0.56 -0.4,-1.13 -0.59,-1.69 -3.38,-9.94 -4.53,-20.76 -4.53,-29.31 0,-5.61 0.49,-10.24 1.17,-13.01 v 0 c 0.35,-1.43 -0.13,-2.66 -1.47,-3.24 0,0 0,0 0,0 -0.03,-0.02 -0.06,-0.03 -0.08,-0.04 -0.51,-0.2 -1.14,-0.32 -1.88,-0.32"
         style="fill:#201e1f;fill-opacity:1;fill-rule:nonzero;stroke:none"
         id="path348" /><path
         d="m 2304.46,4155 c 0,0 -17.85,19.56 -20.65,15.56 -2.8,-4 -10.47,-30.4 20.65,-15.56"
         style="fill:#101719;fill-opacity:1;fill-rule:nonzero;stroke:none"
         id="path350" /><path
         d="m 2223.93,4143.6 c -0.47,-3.51 -1.93,-12.58 -0.98,-22.76 4.86,0 15.29,2.89 18.69,5.21 8.25,5.59 6.93,21.81 0.9,26.82 -9.9,-2.66 -18.14,-5.76 -18.61,-9.27"
         style="fill:#101719;fill-opacity:1;fill-rule:nonzero;stroke:none"
         id="path352" /><path
         d="m 2298.17,4077.12 c -12.16,-5.87 -40.14,3.47 -50.94,7.06 -0.05,-1.64 0.08,-5.61 1.48,-9.73 8.63,-0.34 20.31,-1.21 29.33,-3.42 7.74,-1.89 20.96,-2.89 26.42,-0.84 6.04,2.27 8.33,13.99 -6.29,6.93"
         style="fill:#101719;fill-opacity:1;fill-rule:nonzero;stroke:none"
         id="path354" /><path
         d="m 2292.68,4159.88 c 0,3.84 -2.47,6.95 -5.51,6.95 -1.63,0 -3.06,-0.94 -4.07,-2.36 -1.07,-3.82 -1.41,-9.16 2.34,-11.11 l 1.73,-0.45 c 3.04,0 5.51,3.12 5.51,6.97"
         style="fill:#332726;fill-opacity:1;fill-rule:nonzero;stroke:none"
         id="path356" /><path
         d="m 2288.22,4162.72 c 0,-0.93 -0.76,-1.7 -1.7,-1.7 -0.94,0 -1.7,0.77 -1.7,1.7 0,0.94 0.76,1.71 1.7,1.71 0.94,0 1.7,-0.77 1.7,-1.71"
         style="fill:#ada8a7;fill-opacity:1;fill-rule:nonzero;stroke:none"
         id="path358" /></g></g></svg>
