<?xml version="1.0" encoding="UTF-8" standalone="no"?>
<svg
   version="1.1"
   id="svg2"
   xml:space="preserve"
   width="92.427788"
   height="83.867538"
   viewBox="0 0 92.427788 83.867538"
   sodipodi:docname="shih tzu.svg"
   inkscape:version="1.1 (c68e22c387, 2021-05-23)"
   xmlns:inkscape="http://www.inkscape.org/namespaces/inkscape"
   xmlns:sodipodi="http://sodipodi.sourceforge.net/DTD/sodipodi-0.dtd"
   xmlns="http://www.w3.org/2000/svg"
   xmlns:svg="http://www.w3.org/2000/svg"
   xmlns:rdf="http://www.w3.org/1999/02/22-rdf-syntax-ns#"
   xmlns:cc="http://creativecommons.org/ns#"
   xmlns:dc="http://purl.org/dc/elements/1.1/"><metadata
     id="metadata8"><rdf:RDF><cc:Work
         rdf:about=""><dc:format>image/svg+xml</dc:format><dc:type
           rdf:resource="http://purl.org/dc/dcmitype/StillImage" /></cc:Work></rdf:RDF></metadata><defs
     id="defs6" /><sodipodi:namedview
     pagecolor="#ffffff"
     bordercolor="#666666"
     borderopacity="1"
     objecttolerance="10"
     gridtolerance="10"
     guidetolerance="10"
     inkscape:pageopacity="0"
     inkscape:pageshadow="2"
     inkscape:window-width="1920"
     inkscape:window-height="1001"
     id="namedview4"
     inkscape:pagecheckerboard="0"
     showgrid="false"
     inkscape:zoom="1.4275333"
     inkscape:cx="-316.98035"
     inkscape:cy="-159.36581"
     inkscape:window-x="-9"
     inkscape:window-y="-9"
     inkscape:window-maximized="1"
     inkscape:current-layer="g12" /><g
     id="g10"
     inkscape:groupmode="layer"
     inkscape:label="ink_ext_XXXXXX"
     transform="matrix(1.3333333,0,0,-1.3333333,-461.42998,245.92024)"><g
       id="g12"
       transform="scale(0.1)"><path
         d="m 3882.05,1558.16 c 0,0 65.76,47.3 113.06,27.69 47.3,-19.61 90.56,-49.03 99.79,-82.48 9.23,-33.46 1.16,-64.61 -9.23,-78.45 0,0 8.66,-53.38 -10.96,-78.03 0,0 25.38,-51.18 43.27,-65.6 0,0 -75.57,-42.11 -113.06,50.76 -37.5,92.87 -115.95,228.42 -122.87,226.11"
         style="fill:#e5d8c7;fill-opacity:1;fill-rule:nonzero;stroke:none"
         id="path740" /><path
         d="m 4046.48,1511.1 c -10.7,2.39 -21.02,1.62 -30.99,-0.91 2,-1.73 3.88,-3.6 5.65,-5.47 8.72,-9.23 18.65,-16.89 27.44,-25.98 11.38,-11.76 18.42,-24.04 26.58,-38.11 4.65,-8.02 8,-16.78 11.63,-25.33 -0.52,5.88 -1.12,9.62 -1.12,9.62 3.9,5.19 7.47,12.83 9.93,22.11 -7.15,27.35 -23.8,58.42 -49.12,64.07"
         style="fill:#c19982;fill-opacity:1;fill-rule:nonzero;stroke:none"
         id="path742" /><path
         d="m 4080.01,1387.96 c -15.29,23.16 -19.86,52.29 -39.92,73.01 -4.84,5 -19.38,13.86 -24.6,18.46 3.05,-14.14 2.11,-19.34 11.91,-30.74 21.93,-25.5 31,-73.12 50.35,-96.94 5.38,9.13 8.1,20.67 9.16,32.04 -2.57,0.2 -5.1,1.44 -6.9,4.17"
         style="fill:#c19982;fill-opacity:1;fill-rule:nonzero;stroke:none"
         id="path744" /><path
         d="m 4153.93,1287.44 c -103.06,-6.15 -113.06,112.29 -125.36,167.66 -12.31,55.38 -106.14,111.52 -117.68,113.06 -11.53,1.54 -36.14,-4.61 -50.76,-11.53 -14.61,-6.93 -53.83,2.3 -75.37,8.46 -3.79,1.08 -8.59,3.87 -13.88,7.63 -3.51,-0.17 -7.1,0.6 -10.59,2.31 -5.98,-4.69 -14.62,-6.57 -21.44,-4.7 -10.63,2.93 -15.64,11.43 -16.32,21.09 -2.33,2.54 -4.79,4.93 -7.32,7.28 -6.01,5.58 -12.64,11.59 -16.1,19.15 -1.08,2.37 -1.78,4.81 -2.23,7.26 -6.37,7.26 -12.12,14.92 -17.19,23.13 -60.82,17.64 -141.78,-47.72 -175.83,-152.22 -40.17,-123.28 -11.75,-158.21 0,-204.15 11.74,-45.94 -11.75,-56.86 -11.75,-56.86 91.14,-39.34 149.6,4.74 149.6,4.74 84.6,-44.61 116.13,-14.29 116.13,-14.29 105.37,-18.91 89.99,20.45 89.99,20.45 80.75,-36.92 99.21,-3.08 99.21,-3.08 96.14,-37.69 145.36,-2.31 145.36,-2.31 63.07,-10.77 61.53,46.92 61.53,46.92"
         style="fill:#d7c3ab;fill-opacity:1;fill-rule:nonzero;stroke:none"
         id="path746" /><path
         d="m 3769.68,1362.82 c -6.68,46.23 -3.05,92.64 -5.86,139.03 -1.47,24.41 -5.57,48.02 -10.45,71.77 -29.99,13.46 -64,52.57 -82.12,76.53 -59.66,9.69 -134.9,-54.39 -167.39,-154.13 -40.17,-123.28 -11.75,-158.21 0,-204.15 11.74,-45.94 -11.75,-56.86 -11.75,-56.86 91.14,-39.34 149.6,4.74 149.6,4.74 84.6,-44.61 116.13,-14.29 116.13,-14.29 37.23,-6.68 59.34,-6.07 72.42,-2.51 -35.82,35.22 -53.38,90.01 -60.58,139.87"
         style="fill:#e5d8c7;fill-opacity:1;fill-rule:nonzero;stroke:none"
         id="path748" /><path
         d="m 3659.12,1267.01 c -15.27,30.32 -19.96,60.98 -17.33,93.06 -10.37,-21.83 -14.09,-50.28 -13.8,-73.4 0.23,-18.43 5.64,-33.32 13.89,-47 22.38,-11.78 40.93,-18.22 56.27,-21.46 -15.47,10.93 -30.66,32.18 -39.03,48.8"
         style="fill:#c19982;fill-opacity:1;fill-rule:nonzero;stroke:none"
         id="path750" /><path
         d="m 3762.41,1236.25 c -18.43,12.73 -34.99,27.06 -46.64,46.53 -10.12,16.89 -24.16,40.61 -28.55,63.59 -3.59,-18.04 -3.71,-36.68 1.61,-53.17 12.14,-37.61 36.12,-54.01 69.12,-67.76 11.78,-2.11 21.97,-3.46 30.92,-4.25 -8.53,3.87 -17.11,8.61 -26.46,15.06"
         style="fill:#c19982;fill-opacity:1;fill-rule:nonzero;stroke:none"
         id="path752" /><path
         d="m 3833.35,1250.92 c -19.68,21.41 -37.06,47.1 -45.43,75.26 -5.14,-24.81 -2.75,-52.8 12.18,-73.45 7.47,-10.33 18.44,-21.65 31.17,-27.09 1.45,-0.31 2.91,-0.59 4.36,-0.91 8.59,3.57 11.68,8.69 12.62,13 -5.34,3.97 -10.39,8.28 -14.9,13.19"
         style="fill:#b88c71;fill-opacity:1;fill-rule:nonzero;stroke:none"
         id="path754" /><path
         d="m 3947.4,1242.7 c 19.98,-7.8 37.8,-12.32 53.69,-14.78 -15.39,9.52 -29.49,20.72 -42.24,34.16 -25.37,26.73 -65.76,62.61 -81.5,100.92 -0.76,-49.33 30.17,-92.04 70.05,-120.3"
         style="fill:#b88c71;fill-opacity:1;fill-rule:nonzero;stroke:none"
         id="path756" /><path
         d="m 4061.86,1245.27 c -21.84,14.5 -39.09,39.88 -55.49,59.94 -4.52,5.53 -8.63,11.03 -12.07,16.78 1.66,-44.92 32.26,-81.21 74.26,-91.52 5.6,1.55 10.17,3.26 13.81,4.82 -7.34,2.5 -14.28,5.84 -20.51,9.98"
         style="fill:#b88c71;fill-opacity:1;fill-rule:nonzero;stroke:none"
         id="path758" /><path
         d="m 3528.65,1247.4 c -8.09,-6.75 -17.45,-12.14 -27.37,-15.92 12.74,-4.84 24.69,-7.9 35.97,-9.88 16.27,16.37 30.06,34.78 33.64,56.08 3.86,22.93 -0.52,42.88 -5.55,62.94 -2.93,-34.86 -7.25,-68.64 -36.69,-93.22"
         style="fill:#c19982;fill-opacity:1;fill-rule:nonzero;stroke:none"
         id="path760" /><path
         d="m 3540.01,1739.55 c 0,0 -60.42,7.25 -55.59,-34.64 4.84,-41.89 20.95,-29.81 16.92,-44.31 -4.03,-14.5 -39.47,1.35 -40.55,-26.58 -1.07,-27.93 11.01,-41.89 39.61,-49.41 13.97,-16.06 18.78,-43.84 23.17,-63.62 3.28,-14.8 24.48,15.7 26.28,0.64 0.98,-8.22 11.71,-52.64 -3.59,-88.37 0,0 33.75,16.55 46.83,33.24 16.73,21.34 13.95,39.16 22.83,57.01 5.87,-26.79 25.53,-50.16 50.91,-60.53 -10.87,9.65 -16.54,24.1 -18.34,38.52 -1.81,14.43 -0.14,29.04 1.53,43.48 19.96,-35.02 63.56,-54.8 103.06,-46.77 -18.27,5.82 -33.03,19.86 -43.41,35.98 -10.07,15.63 -17.81,34.01 -22.93,51.83 8.67,-6.25 78.15,-64.24 109.69,-20.66 0,0 -52.02,9.54 -69.32,29.84 -21.5,25.21 -34.77,60.97 -47.73,94.67 -16.12,41.89 -106.88,86.47 -139.37,49.68"
         style="fill:#d7c3ab;fill-opacity:1;fill-rule:nonzero;stroke:none"
         id="path762" /><path
         d="m 3570.27,1543.69 c -0.33,0.92 0.58,-0.07 0.23,0.84 -4.31,19.54 -23.17,31.79 -34.93,47.98 -10.17,13.98 -15.1,31.21 -25.15,45.28 -4.76,6.65 -11.49,12.49 -18.89,16.08 -11.87,-2.24 -29.98,0.01 -30.74,-19.85 -1.07,-27.93 11.01,-41.89 39.61,-49.41 l 0.57,-0.75 0.31,-0.94 c 2.62,-14.94 -1.85,-30.22 -7.87,-44.13 -6.02,-13.91 -13.68,-27.2 -17.98,-41.73 -4.3,-14.54 -4.87,-31.07 2.87,-44.1 -0.12,18.11 7.65,36.13 20.89,48.49 -5.69,-4.38 -7.92,-12.06 -7.81,-19.24 0.12,-7.18 2.2,-14.16 3.53,-21.21 2.18,-11.53 2.38,-23.43 0.58,-35.03 20.84,16.78 33.28,43.51 32.7,70.25 l 0.11,-0.21 c 1.98,-11.76 3.86,-24.8 5.5,-39.62 l 0.79,0.33 c -0.83,-3.98 -2.06,-7.88 -3.78,-11.57 4.64,2.63 9.29,5.26 13.58,8.44 9.94,7.34 17.25,17.54 21.99,28.91 l 1.73,0.29 c 8.35,19.05 9.14,41.3 2.16,60.9"
         style="fill:#e3e3e1;fill-opacity:1;fill-rule:nonzero;stroke:none"
         id="path764" /><path
         d="m 3546.26,1660.64 c 0,0 -30.62,24.71 -36.52,13.97 -2.9,-5.27 -3.97,-12.28 1.44,-15.87 5.62,-3.74 18.1,-3.84 35.08,1.9"
         style="fill:#45413b;fill-opacity:1;fill-rule:nonzero;stroke:none"
         id="path766" /><path
         d="m 3475.08,1651.4 c -7.53,-1.82 -13.85,-5.85 -14.29,-17.38 -0.21,-5.42 0.24,-10.17 1.05,-14.6 5.53,3.94 11.53,13 13.72,17.82 1.69,3.72 0.93,9.12 -0.48,14.16"
         style="fill:#07080a;fill-opacity:1;fill-rule:nonzero;stroke:none"
         id="path768" /><path
         d="m 3538.35,1765.24 c -0.21,2.01 -0.24,4.04 -0.51,6.04 -0.9,6.63 -2.31,13.58 -6.73,18.61 -2.91,3.31 -6.87,5.48 -10.74,7.59 -4.3,2.34 -17.65,7.76 -27.95,-2.5 -2.69,-2.68 -5.11,-5.73 -6.47,-9.27 -1.36,-3.54 -1.36,-7.81 0.89,-10.86 8.41,7.48 25,8.71 35.27,4.09 6.39,-2.87 11.55,-8.2 14.53,-14.53 l 1.71,0.83"
         style="fill:#d7c3ab;fill-opacity:1;fill-rule:nonzero;stroke:none"
         id="path770" /><path
         d="m 3531.44,1826.93 c 5.53,6.8 12.5,12.67 20.77,15.6 8.27,2.92 17.93,2.58 25.33,-2.13 -8.96,-0.53 -17.55,-5.46 -22.53,-12.92 -4.13,-6.18 -5.75,-13.67 -6.81,-21.02 -1.16,-8.01 -1.77,-16.1 -1.82,-24.19 -0.01,-1.97 -0.01,-4.03 -0.9,-5.79 -0.63,-1.23 -1.65,-2.22 -2.65,-3.17 -2.51,-2.42 -5.03,-4.83 -7.54,-7.24 -3.41,8.86 -6.82,17.72 -10.22,26.59 -1.07,2.76 -2.14,5.56 -2.62,8.49 -1.52,9.25 3.07,18.49 8.99,25.78"
         style="fill:#c8b5a4;fill-opacity:1;fill-rule:nonzero;stroke:none"
         id="path772" /><path
         d="m 3548.1,1764.84 c 11.14,0.32 20.8,4.19 30.3,9.2 l 1.49,1.75 c 11.86,12.42 30.73,17.64 47.29,13.08 -6.34,10.38 -18.73,16.19 -30.9,16.36 -12.16,0.18 -23.99,-4.69 -33.9,-11.76 -9.9,-7.07 -18.09,-16.24 -25.84,-25.62 -1.34,-1.62 -2.67,-3.51 -3.59,-5.47 4.4,1.44 9.28,2.29 15.15,2.46"
         style="fill:#e5d8c7;fill-opacity:1;fill-rule:nonzero;stroke:none"
         id="path774" /><path
         d="m 3579.26,1743.28 c 0.72,3.68 2.28,7.19 2.6,10.93 0.31,3.74 -1.05,8.02 -4.48,9.54 -2.18,0.96 -4.69,0.61 -7.07,0.43 -7.82,-0.56 -15.78,1.1 -22.71,4.75 8.83,3.54 16.23,10.19 25.26,13.19 8.8,2.92 18.78,2.02 26.92,-2.41 8.13,-4.44 14.29,-12.35 16.6,-21.32 2.03,-7.88 1.16,-16.17 0.87,-24.31 -0.43,-11.86 0.65,-24.52 7.68,-34.09 -11.5,2.19 -23.16,5.48 -32.38,12.69 -9.22,7.21 -15.55,19.12 -13.29,30.6"
         style="fill:#c8b5a4;fill-opacity:1;fill-rule:nonzero;stroke:none"
         id="path776" /><path
         d="m 3527.98,1672.88 c -7.72,4.13 -15.55,6.63 -18.24,1.73 -2.9,-5.27 -3.97,-12.28 1.44,-15.87 3.01,-2 8.04,-2.92 14.62,-2.49 1.95,2.76 3.17,6.42 3.17,10.46 0,2.19 -0.36,4.27 -0.99,6.17"
         style="fill:#1f221f;fill-opacity:1;fill-rule:nonzero;stroke:none"
         id="path778" /><path
         d="m 3516.85,1671.17 c 0,-1.83 -1.48,-3.32 -3.32,-3.32 -1.83,0 -3.31,1.49 -3.31,3.32 0,1.83 1.48,3.31 3.31,3.31 1.84,0 3.32,-1.48 3.32,-3.31"
         style="fill:#e3e3e1;fill-opacity:1;fill-rule:nonzero;stroke:none"
         id="path780" /><path
         d="m 3538.13,1768.74 c -1.12,0.47 -2.23,0.94 -3.35,1.41 l 1.36,1.57 c -0.62,0.77 -2.14,-0.09 -1.81,-1.02 -7.38,3.72 -16.22,4.42 -24.09,1.92 -7.87,-2.49 -14.69,-8.16 -18.58,-15.45 -2.27,-4.25 -3.56,-8.97 -5.98,-13.14 -2.43,-4.16 -6.44,-7.89 -11.25,-8.05 12.29,-0.07 24.78,-0.12 36.6,3.24 2.85,0.82 5.69,1.85 8.08,3.6 8.77,6.43 9.44,20.76 19.02,25.92"
         style="fill:#e5d8c7;fill-opacity:1;fill-rule:nonzero;stroke:none"
         id="path782" /><path
         d="m 3593.09,1829.58 c -4.72,-3.46 -14.93,-23.89 -17.5,-29.47 -4.45,-9.68 -12.87,-12.23 -22.11,-15.99 -5.25,-2.13 -9.27,-11.54 -12.41,-16.64 0.2,10.78 1.6,21.73 5.84,31.45 4.24,9.71 11.61,18.12 20.94,21.35 4.8,1.66 22.03,6.8 25.24,9.3"
         style="fill:#d7c3ab;fill-opacity:1;fill-rule:nonzero;stroke:none"
         id="path784" /><path
         d="m 3558.1,1770.82 c -14.61,3.07 -20.28,2.34 -25.26,0.23 -4.26,-1.81 -7.39,-5.59 -8.04,-10.16 -1.39,-9.75 -0.34,-23.05 7.17,-23.36 11.31,-0.47 38.49,5.83 38.73,12.75 0.1,2.9 -5.74,14.01 -12.6,20.54"
         style="fill:#333548;fill-opacity:1;fill-rule:nonzero;stroke:none"
         id="path786" /><path
         d="m 3569.09,1688.09 c 7.39,-1.21 14.38,-4.72 19.76,-9.94 -1.07,15.85 -13.26,29.31 -27.68,35.95 -14.42,6.65 -30.78,7.58 -46.66,7.32 3.39,4.06 8.45,6.67 13.72,7.07 -4.24,2.47 -9.38,2.88 -14.28,2.55 -10.98,-0.73 -22.2,-5.34 -28.5,-14.35 -8.32,-11.88 -5.41,-23.51 3.89,-33.53 -0.14,0.87 3.57,7.48 8.76,10.41 7.16,4.04 21.29,2.48 27.86,-1.91 7.43,-4.97 18.55,-11.73 20.3,-20.49 1.74,-8.77 1.64,-21.56 3.59,-30.28 4.5,-20.17 18.86,-31.73 38.16,-39.1 -3.48,5.43 -4.99,12.1 -4.16,18.5 0.74,5.8 3.29,11.19 5.05,16.77 4.86,15.5 -3.02,28.56 -10.47,43 -1.98,3.83 -5.03,7.87 -9.34,8.03"
         style="fill:#e5d8c7;fill-opacity:1;fill-rule:nonzero;stroke:none"
         id="path788" /></g></g></svg>
