<?xml version="1.0" encoding="UTF-8" standalone="no"?>
<svg
   version="1.1"
   id="svg2"
   xml:space="preserve"
   width="134.96133"
   height="123.91248"
   viewBox="0 0 134.96133 123.91248"
   sodipodi:docname="sznaucer olbrzym.svg"
   inkscape:version="1.1 (c68e22c387, 2021-05-23)"
   xmlns:inkscape="http://www.inkscape.org/namespaces/inkscape"
   xmlns:sodipodi="http://sodipodi.sourceforge.net/DTD/sodipodi-0.dtd"
   xmlns="http://www.w3.org/2000/svg"
   xmlns:svg="http://www.w3.org/2000/svg"
   xmlns:rdf="http://www.w3.org/1999/02/22-rdf-syntax-ns#"
   xmlns:cc="http://creativecommons.org/ns#"
   xmlns:dc="http://purl.org/dc/elements/1.1/"><metadata
     id="metadata8"><rdf:RDF><cc:Work
         rdf:about=""><dc:format>image/svg+xml</dc:format><dc:type
           rdf:resource="http://purl.org/dc/dcmitype/StillImage" /></cc:Work></rdf:RDF></metadata><defs
     id="defs6" /><sodipodi:namedview
     pagecolor="#ffffff"
     bordercolor="#666666"
     borderopacity="1"
     objecttolerance="10"
     gridtolerance="10"
     guidetolerance="10"
     inkscape:pageopacity="0"
     inkscape:pageshadow="2"
     inkscape:window-width="1920"
     inkscape:window-height="1001"
     id="namedview4"
     inkscape:pagecheckerboard="0"
     showgrid="false"
     inkscape:zoom="0.71376665"
     inkscape:cx="-304.72144"
     inkscape:cy="332.7418"
     inkscape:window-x="-9"
     inkscape:window-y="-9"
     inkscape:window-maximized="1"
     inkscape:current-layer="g12" /><g
     id="g10"
     inkscape:groupmode="layer"
     inkscape:label="ink_ext_XXXXXX"
     transform="matrix(1.3333333,0,0,-1.3333333,-429.70266,435.84047)"><g
       id="g12"
       transform="scale(0.1)"><path
         d="m 4193.95,2432.74 c -6.61,21.84 -38.61,67.7 -40.69,72.28 4.56,-1.6 8.84,-3.98 12.49,-7.14 -8.17,18.75 -39.53,62.73 -41.98,67.64 4.91,-0.59 9.78,-1.43 14.54,-2.76 -9.26,14.17 -26.05,54.41 -25.6,60 3.43,-2.82 6.09,-6.58 7.39,-10.83 1.49,19.09 6.16,74.78 7.8,78.61 l 5.22,-7.68 c 6.9,19.61 7.45,41.03 2.66,61.23 h -256.5 v -42.44 c 21.42,1.09 34.42,-2.25 34.42,-2.25 -0.62,-3.98 -0.95,-7.73 -1.39,-11.57 -16.08,-25.85 -22.05,-57.86 -15.98,-87.7 4.11,7.67 8.21,15.34 12.32,23.02 -5.91,-12.69 -5.11,-27.69 -0.79,-41 4.32,-13.32 11.87,-25.31 19.34,-37.14 -1.56,7.51 -1.87,15.29 -0.92,22.91 16.43,-33.8 42.31,-62.94 73.94,-83.25 -1.36,6.05 -2.71,12.1 -4.06,18.15 1.19,-0.66 2.4,-1.36 3.62,-2.06 14,-18.8 39.28,-29.56 48.42,-51.44 -0.34,6.36 -0.69,12.72 -1.04,19.08 5.69,-4.35 11.2,-8.7 16.34,-12.9 7.13,-8.57 12.39,-18.7 15.05,-29.53 2.98,2.85 5.97,5.71 8.96,8.56 4.9,-4.72 8.16,-8.36 8.94,-10.19 3.89,-9.2 -4.25,-10.97 -4.25,-10.97 -44.44,0.52 -50.75,-31.3 -45.78,-48.49 1.83,-6.34 14.73,-10.69 20.08,-10.69 30.38,0 104.69,0 104.69,0 21.17,15.97 17.78,51.9 5.6,90.88 6.91,-2.06 13.22,-6.27 17.16,-12.33"
         style="fill:#090f18;fill-opacity:1;fill-rule:nonzero;stroke:none"
         id="path820" /><path
         d="m 3643.21,2555.48 c 2.77,35.7 4.99,73.24 -9.07,105.88 -7.06,61.97 -26.09,121.65 -39.52,144.03 0,0 -45.27,53.76 -87.71,23.58 -42.45,-30.18 -53.76,-70.05 -36.79,-139.25 16.98,-69.19 31.6,-256.89 16.04,-267.26 -7.55,-5.03 -59.55,6.01 -59.55,-40.96 0,-13.33 12.84,-23.18 26.17,-23.18 h 55.44 c 14.66,0 28.26,7.48 36.08,19.88 l 1.61,2.6 c 4.14,-1.54 7.62,-4.97 8.18,-9.39 2.51,10.07 4.06,20.36 4.86,30.7 2.28,3.83 4.63,7.81 7.05,11.98 4.02,-5.54 6.72,-12.06 7.4,-18.88 5.49,16.22 8.81,33.14 10.11,50.21 0.67,1.24 1.33,2.49 1.99,3.74 4.34,-7.76 7.5,-16.18 9.17,-24.92 12.79,22.91 18.23,49.79 15.61,75.88 0.87,1.98 1.72,3.96 2.55,5.93 4.07,-5.12 6.52,-11.54 6.68,-18.08 11.99,22.14 16.03,48.31 11.96,73.13 1.1,4.75 2.04,9.4 2.71,13.87 4.9,-5.41 8.26,-12.22 9.03,-19.49"
         style="fill:#090f18;fill-opacity:1;fill-rule:nonzero;stroke:none"
         id="path822" /><path
         d="m 4058.48,2846.89 c 0,0 41.97,91.96 75.93,83.47 33.95,-8.48 4.24,-76.39 -15.09,-109.4 -19.34,-33.02 -66.89,13.69 -60.84,25.93"
         style="fill:#1a202b;fill-opacity:1;fill-rule:nonzero;stroke:none"
         id="path824" /><path
         d="m 3675.83,2536.62 c 2.77,35.69 5,73.23 -9.06,105.88 -7.07,61.97 -26.1,121.65 -39.52,144.03 0,0 -45.28,53.76 -87.72,23.58 -42.44,-30.18 -53.76,-70.05 -36.78,-139.25 16.97,-69.2 31.59,-256.89 16.03,-267.26 -7.55,-5.03 -59.55,6.01 -59.55,-40.96 0,-13.33 12.85,-23.18 26.17,-23.18 h 55.44 c 14.66,0 28.26,7.48 36.08,19.88 l 1.62,2.59 c 4.13,-1.53 7.61,-4.97 8.18,-9.38 2.5,10.07 4.06,20.36 4.85,30.7 2.28,3.83 4.63,7.81 7.05,11.98 4.03,-5.55 6.72,-12.07 7.4,-18.88 5.49,16.22 8.81,33.13 10.12,50.21 0.66,1.23 1.32,2.49 1.99,3.74 4.33,-7.77 7.49,-16.19 9.16,-24.92 12.79,22.9 18.24,49.79 15.62,75.88 0.86,1.98 1.71,3.95 2.55,5.93 4.06,-5.13 6.51,-11.54 6.67,-18.09 12,22.14 16.04,48.32 11.97,73.14 1.09,4.74 2.04,9.39 2.71,13.87 4.89,-5.41 8.26,-12.23 9.02,-19.49"
         style="fill:#1a202b;fill-opacity:1;fill-rule:nonzero;stroke:none"
         id="path826" /><path
         d="m 4234.98,2418.01 c -6.61,21.84 -38.61,67.7 -40.69,72.27 4.56,-1.59 8.84,-3.97 12.49,-7.13 -8.17,18.75 -39.53,62.73 -41.98,67.64 4.91,-0.59 9.78,-1.43 14.53,-2.76 -9.25,14.17 -26.05,54.41 -25.59,60 3.43,-2.82 6.09,-6.58 7.39,-10.83 1.49,19.09 6.16,74.78 7.8,78.61 1.74,-2.56 3.48,-5.12 5.21,-7.68 9.35,26.54 7.12,56.41 -4.33,82.04 -1.94,10.45 -4.81,21.23 -8.95,31.82 6.37,-2.38 12.41,-5.66 17.73,-9.9 -5.17,24.1 -23.47,44.34 -46.05,53.91 -15.33,15.13 -36.14,26.98 -64.39,32.45 -128.85,24.94 -413.54,28.99 -450.51,99.58 l -1.2,1.25 c -12.63,19.23 -55.29,84.72 -77.38,125.37 -26.1,48.02 -91.12,109.44 -130.79,101.09 -39.67,-8.35 -53.94,-37.23 -88.74,-39.32 -34.8,-2.09 -19.49,-53.59 -34.8,-60.55 -15.31,-6.96 -60.55,-18.1 -53.59,-33.41 6.96,-15.31 11.14,-52.2 22.27,-64.03 11.14,-11.83 23.67,-53.59 38.98,-61.24 15.31,-7.66 86.99,52.89 86.3,98.13 0,0 12.53,-12.53 22.96,-26.45 4.64,-6.17 13.44,-21.49 20.99,-41.96 1.23,-14.52 1.98,-28.39 2.32,-41.54 -3.71,-19.98 -11.91,-39.13 -24.3,-55.24 5.32,0.31 10.63,0.61 15.95,0.92 -8.03,-29.99 -17.84,-59.49 -29.36,-88.32 10.33,5.3 19.88,12.1 28.28,20.11 -12.88,-32 -10.83,-69.66 5.45,-100.08 0.56,8.17 3.59,16.07 8.38,22.71 0.78,-1.35 1.48,-2.67 2.32,-4.03 1.44,-31.97 20.05,-62.84 48.15,-78.29 -1.24,6.76 -1.9,13.62 -1.99,20.49 18.17,-19.09 34.68,-33.47 40,-35.7 13.44,-5.66 -14.15,40.32 67.91,16.74 82.05,-23.58 206.75,10.37 266.18,35.84 59.42,25.46 102.8,14.15 102.8,14.15 -0.62,-3.98 -0.95,-7.73 -1.39,-11.57 -16.08,-25.85 -22.05,-57.86 -15.98,-87.7 4.1,7.67 8.21,15.34 12.32,23.02 -5.91,-12.69 -5.11,-27.69 -0.79,-41 4.32,-13.32 11.87,-25.31 19.34,-37.14 -1.56,7.52 -1.88,15.29 -0.92,22.91 16.43,-33.8 42.31,-62.94 73.93,-83.25 -1.35,6.05 -2.7,12.1 -4.05,18.15 1.19,-0.66 2.4,-1.36 3.62,-2.06 14,-18.8 39.28,-29.56 48.42,-51.44 -0.35,6.36 -0.69,12.72 -1.04,19.08 5.69,-4.35 11.2,-8.7 16.34,-12.9 7.13,-8.57 12.39,-18.7 15.04,-29.53 2.99,2.85 5.98,5.71 8.97,8.56 4.9,-4.72 8.16,-8.36 8.93,-10.19 3.9,-9.2 -4.24,-10.97 -4.24,-10.97 -45.03,0.53 -50.92,-32.15 -45.58,-49.17 1.88,-5.97 14.53,-10.01 19.88,-10.01 30.38,0 104.69,0 104.69,0 21.16,15.97 17.78,51.9 5.59,90.88 6.92,-2.05 13.22,-6.27 17.17,-12.33"
         style="fill:#1a202b;fill-opacity:1;fill-rule:nonzero;stroke:none"
         id="path828" /><path
         d="m 3398.18,3261.25 c 0,0 -13.92,-29.92 -9.05,-48.72 4.87,-18.79 -8.35,-32.71 -10.44,-50.11 -2.09,-17.4 20.88,-77.94 38.28,-63.33 17.4,14.62 37.58,47.3 20.88,87.33 -16.71,40.03 -30.49,104.47 -39.67,74.83"
         style="fill:#1a202b;fill-opacity:1;fill-rule:nonzero;stroke:none"
         id="path830" /><path
         d="m 3384.66,3152.99 c -0.92,-1.27 -1.01,-2.89 -0.29,-4.29 4.15,-8.02 7.03,-17.51 10.64,-26.49 2.28,-5.69 7.05,-8.52 13.02,-9.56 2.34,-0.41 4.56,1.17 4.92,3.51 5.36,35.31 17.2,68.24 2.35,104.27 -2.97,7.21 -5.45,27.76 -9.04,20.69 -5.51,-18.11 1.43,-39.32 -5.52,-60.23 -3.16,-9.48 -9.56,-18.91 -16.08,-27.9"
         style="fill:#8b5f5c;fill-opacity:1;fill-rule:nonzero;stroke:none"
         id="path832" /><path
         d="m 3314.4,3159.15 c -10.01,-1.07 -18.78,-7.61 -24.82,-15.66 -6.04,-8.04 -9.76,-17.55 -13.41,-26.93 7.95,3.74 16.14,6.98 24.49,9.7 -5.67,-0.49 -9.53,-5.78 -12.6,-10.58 -4.44,-6.94 -8.89,-13.88 -13.33,-20.82 10.76,-1.23 22.02,3.39 28.81,11.83 -5.46,-11.58 -8.84,-24.15 -9.94,-36.91 -0.91,-0.86 -1.82,-1.72 -2.73,-2.58 14.36,6.63 25.9,19.17 31.3,34.04 -0.53,-11.28 -1.06,-22.56 -1.59,-33.84 14.67,6.45 23.85,23.5 21.15,39.3 5.22,-11.03 7.23,-23.56 5.73,-35.67 15.38,8.17 20.39,31.04 9.82,44.89 8.62,-4.39 15.75,-11.63 20.01,-20.31 1.78,28.47 -21.04,55.03 -48.67,62.13 -4.64,1.19 -9.46,1.93 -14.22,1.41"
         style="fill:#3c3f48;fill-opacity:1;fill-rule:nonzero;stroke:none"
         id="path834" /><path
         d="m 3289.52,2921.97 c 3.5,5.6 6,11.82 7.34,18.28 2.26,-8.58 3.49,-17.44 3.66,-26.31 13.64,6.35 23.67,19.94 25.72,34.85 -0.52,-7.7 -2.56,-15.29 -5.96,-22.22 10.08,1.42 19.4,7.48 24.81,16.1 5.4,8.62 6.78,19.65 3.68,29.34 4.82,-6.01 5.04,-14.37 5.04,-22.07 10.27,9.68 15.28,24.64 12.89,38.55 3.06,-3.27 6.11,-6.54 9.17,-9.81 2.12,11.75 4.22,23.51 6.3,35.27 1.01,5.73 1.94,11.99 -0.9,17.08 -2.92,5.24 -9.07,7.75 -14.92,9.07 -14.49,3.26 -32.03,0.24 -39.82,-12.4 5.64,17.12 -1.36,37.58 -16.3,47.66 -15.87,10.7 -36.95,9.28 -55.51,4.6 -11.23,-2.84 -22.33,-6.78 -31.95,-13.23 8.32,-1.6 16.4,-4.49 23.86,-8.52 -14.03,-10.87 -21.23,-29.89 -17.92,-47.33 1.89,4.72 5.59,8.7 10.17,10.93 -3.56,-5.02 -2.12,-11.88 -0.53,-17.83 3.15,-11.8 6.3,-23.61 9.44,-35.42 6.24,5.89 10.72,13.61 12.75,21.94 0.16,-13.21 0.31,-26.42 0.47,-39.64 4.69,3.76 8.9,8.11 12.51,12.92 5.33,-13.94 10.67,-27.87 16,-41.81"
         style="fill:#3c3f48;fill-opacity:1;fill-rule:nonzero;stroke:none"
         id="path836" /></g></g></svg>
