<?xml version="1.0" encoding="UTF-8" standalone="no"?>
<svg
   version="1.1"
   id="svg2"
   xml:space="preserve"
   width="128.69727"
   height="84.476036"
   viewBox="0 0 128.69727 84.476035"
   sodipodi:docname="welsh corgi.svg"
   inkscape:version="1.1 (c68e22c387, 2021-05-23)"
   xmlns:inkscape="http://www.inkscape.org/namespaces/inkscape"
   xmlns:sodipodi="http://sodipodi.sourceforge.net/DTD/sodipodi-0.dtd"
   xmlns="http://www.w3.org/2000/svg"
   xmlns:svg="http://www.w3.org/2000/svg"
   xmlns:rdf="http://www.w3.org/1999/02/22-rdf-syntax-ns#"
   xmlns:cc="http://creativecommons.org/ns#"
   xmlns:dc="http://purl.org/dc/elements/1.1/"><metadata
     id="metadata8"><rdf:RDF><cc:Work
         rdf:about=""><dc:format>image/svg+xml</dc:format><dc:type
           rdf:resource="http://purl.org/dc/dcmitype/StillImage" /></cc:Work></rdf:RDF></metadata><defs
     id="defs6" /><sodipodi:namedview
     pagecolor="#ffffff"
     bordercolor="#666666"
     borderopacity="1"
     objecttolerance="10"
     gridtolerance="10"
     guidetolerance="10"
     inkscape:pageopacity="0"
     inkscape:pageshadow="2"
     inkscape:window-width="1920"
     inkscape:window-height="1001"
     id="namedview4"
     inkscape:pagecheckerboard="0"
     showgrid="false"
     inkscape:zoom="1.4275333"
     inkscape:cx="-9.4568723"
     inkscape:cy="-109.62967"
     inkscape:window-x="-9"
     inkscape:window-y="-9"
     inkscape:window-maximized="1"
     inkscape:current-layer="g12" /><g
     id="g10"
     inkscape:groupmode="layer"
     inkscape:label="ink_ext_XXXXXX"
     transform="matrix(1.3333333,0,0,-1.3333333,-298.70805,246.52937)"><g
       id="g12"
       transform="scale(0.1)"><path
         d="m 2443.11,1732.7 c -4.28,23.44 -13.42,47.09 -17.3,66.83 -3.39,17.23 -3.4,47.78 -10.55,45.88 0,0 -23.21,-9.91 -38.77,-114.66 0,0 20.61,-69.57 70.45,-56.03 0,0 1.8,27.13 -3.83,57.98"
         style="fill:#bd5a34;fill-opacity:1;fill-rule:nonzero;stroke:none"
         id="path34" /><path
         d="m 2517.74,1351.01 c 0,0 22.25,-85.97 -9.63,-89.55 -10.37,-1.16 -45.49,2.15 -52.66,-13.61 -3.38,-7.44 5.85,-21.15 17.2,-21.45 17.66,-0.47 34.99,-2.43 71.28,2.1 0,0 48.36,61.62 34.21,108.9 -14.15,47.28 -53.24,39.4 -60.4,13.61"
         style="fill:#a33d1e;fill-opacity:1;fill-rule:nonzero;stroke:none"
         id="path36" /><path
         d="m 2494.38,1261 c -14.43,-0.37 -33.81,-1.89 -38.92,-13.15 -3.39,-7.44 5.84,-21.15 17.19,-21.45 17.66,-0.47 34.99,-2.43 71.28,2.1 0,0 3.55,4.57 8.39,12.01 -19.07,2.28 -41.84,8.2 -57.94,20.49"
         style="fill:#d27a53;fill-opacity:1;fill-rule:nonzero;stroke:none"
         id="path38" /><path
         d="m 2988.65,1342.95 c 0,0 102.62,-77.91 70.74,-81.49 -10.36,-1.16 -45.49,2.15 -52.66,-13.61 -3.38,-7.44 5.85,-21.15 17.2,-21.45 17.66,-0.47 34.99,-2.43 71.28,2.1 0,0 22.93,60.72 -0.71,113.38 -20.22,45.02 -98.69,26.86 -105.85,1.07"
         style="fill:#a33d1e;fill-opacity:1;fill-rule:nonzero;stroke:none"
         id="path40" /><path
         d="m 3057.4,1261.31 c -12.26,-0.7 -43.9,1.41 -50.66,-13.46 -3.39,-7.44 5.84,-21.15 17.19,-21.45 17.66,-0.47 34.99,-2.43 71.28,2.1 0,0 2.96,7.93 5.66,20.43 -14.01,-1.03 -29.92,3.92 -43.47,12.38"
         style="fill:#d27a53;fill-opacity:1;fill-rule:nonzero;stroke:none"
         id="path42" /><path
         d="m 2443.63,1618.23 c 0,0 -2.86,-103.16 -14.32,-169.07 -11.47,-65.91 88.83,-224.95 285.13,-177.67 196.3,47.28 87.4,83.1 243.58,32.95 156.18,-50.14 131.82,37.26 116.06,77.38 -13.29,33.83 59.93,145.87 -73.17,165.67 -24.73,3.68 -69.73,1.93 -110.59,-0.54 -260.78,-15.76 -308.17,91.32 -345.42,154.37 -37.26,63.04 -127.06,-30.07 -101.27,-83.09"
         style="fill:#d86d3f;fill-opacity:1;fill-rule:nonzero;stroke:none"
         id="path44" /><path
         d="m 3034.99,1289.34 c -13.21,0 -29.58,2.21 -49.75,7.27 -0.21,0.05 -0.42,0.1 -0.62,0.15 -0.61,0.16 -1.22,0.31 -1.84,0.47 21.29,-5.49 38.44,-7.89 52.17,-7.89 12.5,0 22.16,1.99 29.54,5.43 0,-0.01 0,-0.02 0.01,-0.02 -7.37,-3.44 -17.03,-5.42 -29.51,-5.41 m -52.35,7.93 c -0.06,0.01 -0.13,0.03 -0.19,0.05 0.07,-0.02 0.13,-0.03 0.19,-0.05 m -301.89,36.64 c 19.7,28.21 32.38,56.5 26.87,78.54 47.19,0.75 94.35,10.42 140.52,18.88 2.31,0.42 4.61,0.81 6.91,1.16 1.08,-20.91 7.8,-44.75 23.57,-67.82 -14.43,2.41 -28.04,3.88 -41.49,3.88 -20.28,0 -40.21,-3.33 -62.07,-11.79 -0.89,-0.34 -1.79,-0.68 -2.7,-1.03 -15.17,-5.74 -33.65,-11.74 -53.2,-16.07 -12.56,-2.77 -25.56,-4.86 -38.41,-5.75"
         style="fill:#cb5a34;fill-opacity:1;fill-rule:nonzero;stroke:none"
         id="path46" /><path
         d="m 3007.52,1315.16 c -10.83,5.04 -20.85,11.23 -30.47,18 -6.95,0.92 -13.89,2.28 -20.83,4.72 -21.43,7.51 -39.07,19.29 -61.73,23.84 -43.29,8.7 -77.87,11.11 -119.43,-4.96 -50.04,-19.34 -139.76,-42.96 -181.63,4.35 -29.91,33.78 -5.74,78.48 26.67,87.84 2.83,9.68 6.3,19.12 9.51,28.8 56.14,40.37 38.8,102.57 38.8,102.57 -50.98,27.45 -84.71,63.81 -107.42,96.09 -16.32,32.29 -55.47,92.83 -118.11,88.11 -51.2,-3.85 -107.67,-30.76 -106.91,-49.22 0.77,-18.46 10,-26.15 -5.38,-33.07 -15.38,-6.92 -99.9,-34.61 -84.51,-59.22 15.38,-24.61 57.59,-40 133.73,-39.23 0,0 16.15,-21.53 19.23,-39.22 0.19,-1.08 0.99,-1.8 2.28,-2.21 8.83,-26.37 16.1,-59.52 11.75,-104.29 -8.12,-83.54 105.07,-213.85 301.37,-166.57 196.3,47.28 87.4,83.1 243.58,32.95 68.88,-22.11 102.62,-17.46 117.49,-1.92 -22.46,-1.71 -45.12,2.02 -67.99,12.64"
         style="fill:#f9dfc9;fill-opacity:1;fill-rule:nonzero;stroke:none"
         id="path48" /><path
         d="m 2633.52,1261.44 c -5.28,0 -10.48,0.14 -15.6,0.41 v 0 c 5.11,-0.27 10.32,-0.41 15.61,-0.41 24.2,0 50.18,2.89 77.83,9.32 -27.66,-6.43 -53.63,-9.32 -77.84,-9.32 m 77.99,9.36 c 0.51,0.11 0.98,0.22 1.48,0.34 -0.49,-0.11 -0.98,-0.23 -1.48,-0.34"
         style="fill:#f9dfc9;fill-opacity:1;fill-rule:nonzero;stroke:none"
         id="path50" /><path
         d="m 2714.82,1271.58 c 128.66,31.05 125.84,57.13 153.1,57.13 13.3,0 33.79,-6.21 80.24,-21.1 -46.45,14.89 -66.94,21.1 -80.24,21.1 -27.26,0 -24.44,-26.08 -153.1,-57.13"
         style="fill:#c8512e;fill-opacity:1;fill-rule:nonzero;stroke:none"
         id="path52" /><path
         d="m 2633.53,1261.44 c -5.29,0 -10.5,0.14 -15.61,0.41 21.17,20.79 44.91,46.4 62.83,72.06 12.84,0.89 25.85,2.98 38.41,5.75 19.55,4.33 38.03,10.33 53.2,16.07 0.91,0.35 1.81,0.69 2.7,1.03 21.86,8.46 41.79,11.79 62.07,11.79 13.45,0 27.06,-1.47 41.49,-3.88 5.44,-7.97 11.97,-15.85 19.72,-23.49 0,0 0,-0.01 0.01,-0.01 0.07,-0.07 0.15,-0.15 0.22,-0.22 0,0 0.01,0 0.01,-0.01 0.07,-0.06 0.13,-0.13 0.2,-0.2 0.01,-0.01 0.03,-0.02 0.04,-0.03 0.07,-0.07 0.13,-0.13 0.2,-0.2 0.01,-0.01 0.03,-0.03 0.05,-0.04 0.06,-0.07 0.14,-0.14 0.2,-0.2 v 0 c 0,0 69.62,-43.67 165.2,-45.48 0,0 0.01,-0.01 0.02,-0.02 -7.38,-3.44 -17.04,-5.43 -29.54,-5.43 -18.69,0 -43.73,4.44 -76.93,15.1 -2.19,0.71 -4.34,1.4 -6.43,2.07 -1.16,0.37 -2.3,0.73 -3.43,1.1 v 0 c -46.45,14.89 -66.94,21.1 -80.24,21.1 -27.26,0 -24.44,-26.08 -153.1,-57.13 -0.14,-0.03 -0.25,-0.06 -0.38,-0.09 v 0 c -0.48,-0.12 -0.97,-0.23 -1.45,-0.35 -0.5,-0.12 -0.97,-0.23 -1.48,-0.34 -0.05,-0.01 -0.1,-0.03 -0.15,-0.04 -27.65,-6.43 -53.63,-9.32 -77.83,-9.32 m -76.68,10.63 c -79.75,23.37 -129.14,81.27 -141.26,133.13 17.05,-10.55 36.57,-17.65 54.41,-21.2 6.34,-1.26 12.46,-1.83 18.4,-1.83 22.61,0 42.71,8.24 62.44,18.07 -1.86,-8.89 -2.49,-18.96 -1.59,-30.52 v 0 c 0.68,-8.84 1.36,-17.87 1.74,-26.88 0.7,-16.81 3.9,-33.34 7.21,-49.84 0.64,-3.18 0.94,-6.12 0.94,-8.83 0.01,-4.65 -0.84,-8.66 -2.29,-12.1"
         style="fill:#f3c4a1;fill-opacity:1;fill-rule:nonzero;stroke:none"
         id="path54" /><path
         d="m 3046.92,1533.43 c 0,0 54.56,-18.03 92.35,-107.2 30.42,-71.76 54.72,-80.83 66.27,-91.34 0,0 -43.32,-47.77 -119.84,55.88 -79.32,107.46 -38.78,142.66 -38.78,142.66"
         style="fill:#bd5a34;fill-opacity:1;fill-rule:nonzero;stroke:none"
         id="path56" /><path
         d="m 2702.98,1423.46 c -18.83,30.21 -33.76,54.08 -46.71,69.97 -47.88,-34.73 -113.15,-44.36 -107.02,-123.71 0.68,-8.84 1.36,-17.87 1.74,-26.88 0.7,-16.81 3.9,-33.34 7.21,-49.84 5.95,-29.6 -17.79,-38.21 -30.07,-41.57 -2.92,-0.8 -6.52,-1.59 -10.29,-2.54 -5.96,-3.71 -12.91,-6.79 -21.04,-9.09 -5.17,-5.06 -5.49,-12.5 5.58,-24.19 h 64.48 c 0,0 176.23,143.46 136.12,207.85"
         style="fill:#d86d3f;fill-opacity:1;fill-rule:nonzero;stroke:none"
         id="path58" /><path
         d="m 2521.62,1249.81 c -17.04,-4.07 -41.88,-10.3 -19.24,-34.2 h 64.48 c 0,0 12.31,10.04 29.62,25.91 -26.17,-4.55 -52.14,-3.61 -74.86,8.29"
         style="fill:#f9dfc9;fill-opacity:1;fill-rule:nonzero;stroke:none"
         id="path60" /><path
         d="m 2566.86,1215.61 h -64.48 v 0 0 h 64.48 v 0 0 0 m 0,0 v 0 0 0 0 m 0,0 v 0 0 0 0 m 0.01,0.01 c 0,0 0.01,0 0.01,0.01 0,-0.01 -0.01,-0.01 -0.01,-0.01 m 0.01,0.01 h 0.01 -0.01 m 0.02,0.01 c 0,0.01 0,0.01 0.01,0.01 -0.01,0 -0.01,0 -0.01,-0.01 m 0.01,0.01 c 0.01,0.01 0.01,0.01 0.02,0.02 -0.01,-0.01 -0.01,-0.01 -0.02,-0.02 m 0.02,0.02 0.01,0.01 -0.01,-0.01 m 0.06,0.05 c 0,0 0,0 0.01,0 -0.01,0 -0.01,0 -0.01,0 m 0.01,0.01 c 0.01,0 0.01,0 0.01,0.01 0,-0.01 0,-0.01 -0.01,-0.01 m 0.02,0.01 c 0.01,0.01 0.01,0.01 0.02,0.02 -0.01,-0.01 -0.01,-0.01 -0.02,-0.02 m 0.06,0.05 c 0.01,0.01 0.01,0.01 0.02,0.02 -0.01,-0.01 -0.01,-0.01 -0.02,-0.02 m 0.03,0.02 v 0 0 m 0.01,0.02 c 0.01,0 0.01,0 0.02,0.01 -0.01,-0.01 -0.01,-0.01 -0.02,-0.01 m 0.03,0.02 c 0.02,0.02 0.05,0.04 0.08,0.07 -0.03,-0.03 -0.06,-0.05 -0.08,-0.07 m 0.1,0.08 0.01,0.01 -0.01,-0.01 m 0.03,0.03 c 0.01,0 0.01,0 0.01,0.01 0,-0.01 0,-0.01 -0.01,-0.01 m 0.06,0.04 v 0 0 m 0.1,0.08 c 0,0.01 0,0.01 0,0.01 0,0 0,0 0,-0.01 m 0.05,0.05 v 0 0 m 0,0 c 0.05,0.04 0.09,0.07 0.14,0.11 -0.05,-0.04 -0.09,-0.07 -0.14,-0.11 m 0.16,0.13 c 0.09,0.08 0.2,0.16 0.31,0.26 -0.11,-0.1 -0.22,-0.18 -0.31,-0.26 m 0.35,0.29 0.01,0.01 -0.01,-0.01 m 0.03,0.02 c 0.04,0.04 0.08,0.07 0.13,0.11 -0.05,-0.04 -0.09,-0.07 -0.13,-0.11 m 0.16,0.14 c 0.02,0.01 0.03,0.02 0.05,0.04 -0.02,-0.02 -0.03,-0.03 -0.05,-0.04 m 0.11,0.08 c 0,0.01 0,0.01 0,0.01 v -0.01 m 1.11,0.93 c 0.02,0.02 0.04,0.03 0.05,0.05 -0.01,-0.02 -0.03,-0.03 -0.05,-0.05 m 0.06,0.05 c 0.04,0.04 0.08,0.07 0.12,0.11 -0.04,-0.04 -0.08,-0.07 -0.12,-0.11 m 0.15,0.13 c 0.02,0.01 0.03,0.03 0.05,0.04 -0.02,-0.01 -0.03,-0.03 -0.05,-0.04 m 0.09,0.07 c 0,0.01 0.01,0.01 0.01,0.01 l -0.01,-0.01 m 0.27,0.23 c 0.01,0.01 0.02,0.02 0.03,0.03 -0.01,-0.01 -0.02,-0.02 -0.03,-0.03 m 0.31,0.26 c 0.02,0.02 0.04,0.03 0.06,0.05 -0.02,-0.02 -0.04,-0.03 -0.06,-0.05 m 0.16,0.14 c 0.01,0 0.02,0.01 0.03,0.02 -0.01,-0.01 -0.02,-0.02 -0.03,-0.02 m 0.25,0.2 c 0.01,0.01 0.03,0.03 0.04,0.04 -0.01,-0.01 -0.03,-0.03 -0.04,-0.04"
         style="fill:#f7dccf;fill-opacity:1;fill-rule:nonzero;stroke:none"
         id="path62" /><path
         d="m 2566.86,1215.61 v 0 0 0 0 m 0,0 v 0 0 0 m 0,0 v 0 0 0 m 0,0 c 0.32,0.26 12.53,10.24 29.62,25.91 -9.22,-1.6 -18.42,-2.52 -27.46,-2.52 -16.61,0 -32.68,3.11 -47.4,10.81 2.37,0.57 4.59,1.1 6.51,1.62 10.96,3 31.05,10.18 31.01,32.74 0,2.71 -0.3,5.65 -0.94,8.83 -3.31,16.5 -6.51,33.03 -7.21,49.84 -0.38,9.01 -1.06,18.04 -1.74,26.88 v 0 c -0.3,3.91 -0.37,7.59 -0.34,11.17 14.85,-11.93 32.44,-20.88 53.45,-25.32 9.5,-2.01 18.86,-2.95 28.05,-2.95 25.62,0 49.89,7.34 71.92,19.51 -24.79,-61.17 -112.09,-136.89 -131.59,-153.29 -0.01,-0.01 -0.03,-0.03 -0.04,-0.04 -0.08,-0.06 -0.15,-0.12 -0.22,-0.18 -0.01,-0.01 -0.02,-0.02 -0.03,-0.02 -0.03,-0.03 -0.07,-0.06 -0.1,-0.09 -0.02,-0.02 -0.04,-0.03 -0.06,-0.05 -0.09,-0.08 -0.19,-0.16 -0.28,-0.23 -0.01,-0.01 -0.02,-0.02 -0.03,-0.03 -0.09,-0.07 -0.17,-0.15 -0.26,-0.22 0,0 -0.01,0 -0.01,-0.01 -0.01,-0.01 -0.03,-0.02 -0.04,-0.03 -0.02,-0.01 -0.03,-0.03 -0.05,-0.04 -0.01,-0.01 -0.02,-0.02 -0.03,-0.02 -0.04,-0.04 -0.08,-0.07 -0.12,-0.11 0,0 0,0 -0.01,0 -0.01,-0.02 -0.03,-0.03 -0.05,-0.05 -0.42,-0.35 -0.79,-0.66 -1.11,-0.92 0,0 0,0 0,-0.01 -0.02,-0.01 -0.04,-0.03 -0.06,-0.04 -0.02,-0.02 -0.03,-0.03 -0.05,-0.04 -0.01,-0.01 -0.02,-0.02 -0.03,-0.03 -0.05,-0.04 -0.09,-0.07 -0.13,-0.11 -0.01,0 -0.01,0 -0.02,-0.01 l -0.01,-0.01 c -0.02,-0.01 -0.03,-0.02 -0.04,-0.03 -0.11,-0.1 -0.22,-0.18 -0.31,-0.26 -0.01,-0.01 -0.02,-0.01 -0.02,-0.02 -0.05,-0.04 -0.09,-0.07 -0.14,-0.11 v 0 0 c -0.02,-0.01 -0.03,-0.03 -0.05,-0.04 0,0 0,0 0,-0.01 -0.04,-0.02 -0.07,-0.05 -0.1,-0.08 v 0 c -0.02,-0.01 -0.03,-0.02 -0.05,-0.03 0,-0.01 0,-0.01 -0.01,-0.01 0,-0.01 -0.01,-0.01 -0.02,-0.02 l -0.01,-0.01 c -0.01,-0.01 -0.01,-0.01 -0.02,-0.01 -0.03,-0.03 -0.06,-0.05 -0.08,-0.07 -0.01,-0.01 -0.01,-0.01 -0.01,-0.01 -0.01,-0.01 -0.01,-0.01 -0.02,-0.01 0,-0.01 -0.01,-0.01 -0.01,-0.02 v 0 c -0.01,0 -0.01,0 -0.01,0 -0.01,-0.01 -0.01,-0.01 -0.02,-0.02 -0.01,-0.01 -0.03,-0.02 -0.04,-0.03 -0.01,-0.01 -0.01,-0.01 -0.02,-0.02 0,0 0,0 -0.01,0 0,-0.01 0,-0.01 -0.01,-0.01 v -0.01 c -0.01,0 -0.01,0 -0.01,0 -0.02,-0.02 -0.03,-0.03 -0.05,-0.04 l -0.01,-0.01 v 0 c -0.01,-0.01 -0.01,-0.01 -0.02,-0.02 v 0 c -0.01,0 -0.01,0 -0.01,-0.01 -0.01,0 -0.01,0 -0.01,-0.01 h -0.01 v 0 c 0,-0.01 -0.01,-0.01 -0.01,-0.01 0,0 0,0 -0.01,-0.01 v 0 m -64.61,0.13 v 0.01 c 0,-0.01 0,-0.01 0,-0.01 m -0.13,0.14 v 0 0 m -0.12,0.13 c 0,0.01 -0.01,0.01 -0.01,0.01 0,0 0.01,0 0.01,-0.01 m -0.13,0.14 c 0,0 0,0 0,0.01 0,-0.01 0,-0.01 0,-0.01"
         style="fill:#d16138;fill-opacity:1;fill-rule:nonzero;stroke:none"
         id="path64" /><path
         d="m 2566.86,1215.61 h -64.48 v 0 c -0.04,0.04 -0.08,0.09 -0.13,0.13 v 0 c 0,0 0,0 0,0.01 v 0 c -0.04,0.04 -0.08,0.08 -0.13,0.13 v 0 0 0 c -0.04,0.05 -0.08,0.09 -0.12,0.13 v 0 c 0,0.01 -0.01,0.01 -0.01,0.01 v 0 c -0.04,0.04 -0.08,0.09 -0.12,0.13 v 0 c 0,0 0,0 0,0.01 v 0 c -10.55,11.37 -10.16,18.66 -5.07,23.64 8.13,2.3 15.08,5.38 21.04,9.09 1.28,0.33 2.55,0.63 3.78,0.92 14.72,-7.7 30.79,-10.81 47.4,-10.81 9.04,0 18.24,0.92 27.46,2.52 -17.09,-15.67 -29.3,-25.65 -29.62,-25.91 v 0 0 0 0 0 0 0"
         style="fill:#f1c2a5;fill-opacity:1;fill-rule:nonzero;stroke:none"
         id="path66" /><path
         d="m 2861.3,1474.59 c -12.18,-30.09 -10.74,-87.04 37.97,-134.32 0,0 69.62,-43.67 165.2,-45.48 0,0 25.69,-39.06 21.23,-47.66 0,0 -45.99,4.89 -51.67,-8.59 -5.89,-14.01 9.12,-22.71 13.45,-22.93 9.09,-0.47 29.68,0 61.02,0 0,0 34.35,61.61 37.22,71.64 2.87,10.03 -48.72,12.74 -48.72,117.49 0,110.66 -63.82,166.96 -163.34,139.93 -31.46,-8.55 -60.12,-39.86 -72.36,-70.08"
         style="fill:#d86d3f;fill-opacity:1;fill-rule:nonzero;stroke:none"
         id="path68" /><path
         d="m 3109.62,1243.23 c -8.13,0.89 -15.84,3.15 -23.42,5.85 l -0.5,-1.95 c 0,0 -45.99,4.89 -51.67,-8.59 -5.89,-14.01 9.12,-22.7 13.45,-22.93 9.09,-0.47 29.68,0 61.02,0 0,0 7.17,12.87 15.23,27.78 -4.54,-0.58 -9.23,-0.69 -14.11,-0.16"
         style="fill:#f9dfc9;fill-opacity:1;fill-rule:nonzero;stroke:none"
         id="path70" /><path
         d="m 3145.83,1288.06 c -0.02,8.4 -38.59,13.56 -47.15,86.17 v 0 c 8.56,-72.61 47.13,-77.77 47.15,-86.17"
         style="fill:#f7dccf;fill-opacity:1;fill-rule:nonzero;stroke:none"
         id="path72" /><path
         d="m 3064.49,1294.77 c -0.01,0.01 -0.02,0.02 -0.02,0.02 -95.58,1.81 -165.2,45.48 -165.2,45.48 v 0 0 c 0,0 69.62,-43.67 165.2,-45.48 0,0 0.01,-0.01 0.02,-0.02 v 0 m -165.42,45.7 c -0.02,0.01 -0.04,0.03 -0.05,0.04 0.02,-0.01 0.03,-0.03 0.05,-0.04 m -0.25,0.24 c -0.01,0.01 -0.03,0.02 -0.04,0.03 0.01,-0.01 0.03,-0.02 0.04,-0.03 m -0.24,0.23 c 0,0.01 -0.01,0.01 -0.01,0.01 0,0 0.01,0 0.01,-0.01 m -0.23,0.23 c -0.01,0 -0.01,0.01 -0.01,0.01 0,0 0,0 0.01,-0.01"
         style="fill:#ebaa87;fill-opacity:1;fill-rule:nonzero;stroke:none"
         id="path74" /><path
         d="m 3108.5,1215.61 c 0,0 0.01,0 0.01,0.01 0,-0.01 -0.01,-0.01 -0.01,-0.01 m 0.01,0.01 c 0,0 0,0.01 0.01,0.01 -0.01,0 -0.01,-0.01 -0.01,-0.01 m 0.01,0.01 c 0.32,0.59 7.34,13.2 15.21,27.76 -2.54,-0.32 -5.14,-0.5 -7.79,-0.5 -2.07,0 -4.17,0.11 -6.32,0.34 -8.13,0.89 -15.84,3.15 -23.42,5.85 0.02,0.21 0.02,0.44 0.02,0.67 -0.01,11.79 -21.06,43.99 -21.73,45.02 -0.01,0.01 -0.02,0.02 -0.02,0.02 -95.58,1.81 -165.2,45.48 -165.2,45.48 v 0 c -0.07,0.06 -0.13,0.13 -0.2,0.2 -0.02,0.01 -0.03,0.03 -0.05,0.04 -0.07,0.07 -0.13,0.13 -0.2,0.2 -0.01,0.01 -0.03,0.02 -0.04,0.03 -0.07,0.07 -0.13,0.14 -0.2,0.2 0,0.01 -0.01,0.01 -0.01,0.01 -0.07,0.07 -0.15,0.15 -0.22,0.22 -0.01,0.01 -0.01,0.01 -0.01,0.01 -19.45,19.17 -31.12,39.87 -37.41,59.71 36.09,-26.3 76.95,-47.1 119.62,-47.09 0.8,0 1.6,0 2.4,0.02 29.4,0.54 60.65,18.31 86.14,31.39 11.16,5.73 19.76,14.35 27.84,23.5 0.02,-1.33 0.07,-2.63 0.07,-3.97 0,-0.1 0,-0.2 0,-0.3 0.01,-11.2 0.61,-21.22 1.68,-30.21 8.56,-72.61 47.13,-77.77 47.15,-86.17 0.01,-0.27 -0.03,-0.53 -0.11,-0.81 -2.58,-9.03 -30.69,-59.88 -36.26,-69.92 -0.55,-0.99 -0.88,-1.58 -0.94,-1.7"
         style="fill:#d16138;fill-opacity:1;fill-rule:nonzero;stroke:none"
         id="path76" /><path
         d="m 3060.38,1215.4 c -5.56,0 -9.87,0.05 -12.9,0.21 -3.63,0.19 -14.81,6.35 -14.8,16.62 0,1.96 0.41,4.06 1.35,6.31 3.29,7.81 20.14,9.45 33.72,9.45 9.83,0 17.95,-0.86 17.95,-0.86 0.28,0.54 0.44,1.19 0.5,1.95 7.58,-2.7 15.29,-4.96 23.42,-5.85 2.15,-0.23 4.25,-0.34 6.32,-0.34 2.65,0 5.25,0.18 7.79,0.5 -7.87,-14.56 -14.89,-27.17 -15.21,-27.76 v 0 0 0 c -0.01,0 -0.01,-0.01 -0.01,-0.01 v 0 0 0 c 0,-0.01 -0.01,-0.01 -0.01,-0.01 v 0 0 0 c -20.89,0 -37.01,-0.21 -48.12,-0.21"
         style="fill:#f1c2a5;fill-opacity:1;fill-rule:nonzero;stroke:none"
         id="path78" /><path
         d="m 2338.72,1670.47 c -2.85,-5.52 0.41,-12.1 6.41,-13.7 31.49,-8.38 42.18,-46.51 32.12,-72.98 0.88,0.01 25.81,-4.68 36.75,-11.69 1.83,-1.17 3.72,-2.24 5.66,-3.21 19.21,-9.58 42.18,-7.55 60.99,2.82 42.56,23.45 86.38,56.8 89.13,85.14 0,0 -41.81,114.07 -126.9,107.67 -44.87,-3.37 -93.78,-24.46 -104.67,-42.04 7.19,-11.65 9.92,-25.97 5.67,-39.65 -1.5,-4.85 -3.24,-8.66 -5.16,-12.36"
         style="fill:#d86d3f;fill-opacity:1;fill-rule:nonzero;stroke:none"
         id="path80" /><path
         d="m 2383.54,1686.21 c 0,0 -20.24,25.59 -28.69,12.8 -3.3,-4.99 -3.01,-17.34 1.74,-19.53 15.49,-7.15 26.95,6.73 26.95,6.73"
         style="fill:#242823;fill-opacity:1;fill-rule:nonzero;stroke:none"
         id="path82" /><path
         d="m 2356.47,1698.19 c -0.71,-1.07 -1.25,-2.43 -1.62,-3.89 -2.09,-6.72 1.15,-12.78 3.14,-13.7 3.63,-1.68 7.12,-1.9 10.3,-1.36 2.57,3.02 4.5,6.52 4.59,9.54 0.1,2.97 -1.38,6.45 -3.53,9.62 -4.69,1.95 -9.93,4.25 -12.88,-0.21"
         style="fill:#3f1e24;fill-opacity:1;fill-rule:nonzero;stroke:none"
         id="path84" /><path
         d="m 2365.28,1693.4 c -0.07,-1.49 -1.35,-2.65 -2.84,-2.58 -1.5,0.07 -2.66,1.34 -2.59,2.84 0.08,1.5 1.35,2.65 2.84,2.58 1.5,-0.07 2.66,-1.34 2.59,-2.84"
         style="fill:#9f6c74;fill-opacity:1;fill-rule:nonzero;stroke:none"
         id="path86" /><path
         d="m 2282.46,1641.92 c -0.15,3.84 -4.21,11.38 -7.73,12.95 -8.24,3.7 -23.7,3.74 -30.93,-7.64 -10.06,-15.8 4.47,-32.39 8.06,-32.39 3.32,0 31.54,3.79 30.6,27.08"
         style="fill:#3f1e24;fill-opacity:1;fill-rule:nonzero;stroke:none"
         id="path88" /><path
         d="m 2464.56,1674.24 c 0,0 26.55,30.21 22.65,59.77 -3.1,23.43 -7.39,41.89 -10.64,63.03 -2.92,19.02 -0.35,54.61 -9.97,51.77 0,0 -30.64,-13.32 -52.92,-123.19 0,0 -6.16,-62.18 50.88,-51.38"
         style="fill:#d86d3f;fill-opacity:1;fill-rule:nonzero;stroke:none"
         id="path90" /><path
         d="m 2420.97,1726.33 c 10.88,-11.81 30.2,-10.29 33.38,8.11 3.35,19.32 -3.19,27.66 -4.24,50.74 -0.85,18.9 -2.61,23.96 0.75,45.93 -12.55,-16.58 -35.02,-99.21 -29.89,-104.78"
         style="fill:#dbb798;fill-opacity:1;fill-rule:nonzero;stroke:none"
         id="path92" /><path
         d="m 2339.64,1605.85 c -6.83,0.87 -14.71,-10.48 -27.7,-16.02 1.82,-0.46 3.75,-0.88 5.7,-1.29 3.95,2.1 13.2,8.66 22.72,4.19 5.52,-2.59 12.29,4.47 10.33,7.84 -1.47,2.52 -4.99,4.52 -11.05,5.28"
         style="fill:#363a36;fill-opacity:1;fill-rule:nonzero;stroke:none"
         id="path94" /></g></g></svg>
